<svg viewBox="0 0 16 16" xmlns="http://www.w3.org/2000/svg">
  <path fill="#33333380" d="M10.7832 5.0166C11.5962 5.0166 12.2993 4.52588 12.5996 3.82275H14.9434C15.3462 3.82275 15.6831 3.46387 15.6831 3.04639C15.6831 2.61426 15.3462 2.27002 14.9434 2.27002H12.6069C12.2993 1.56689 11.5962 1.06885 10.7832 1.06885C9.97021 1.06885 9.26709 1.56689 8.9668 2.27002H1.07861C0.653809 2.27002 0.316895 2.62158 0.316895 3.04639C0.316895 3.46387 0.653809 3.82275 1.07861 3.82275H8.9668C9.27441 4.52588 9.97021 5.0166 10.7832 5.0166ZM10.7832 3.96924C10.2705 3.96924 9.86035 3.55908 9.86035 3.03906C9.86035 2.51904 10.2705 2.11621 10.7832 2.11621C11.3105 2.11621 11.7134 2.51904 11.7134 3.03906C11.7134 3.55908 11.3105 3.96924 10.7832 3.96924ZM1.05664 6.8916C0.653809 6.8916 0.316895 7.24316 0.316895 7.66797C0.316895 8.08545 0.653809 8.44434 1.05664 8.44434H3.48096C3.78125 9.14746 4.48438 9.64551 5.29736 9.64551C6.11035 9.64551 6.81348 9.14746 7.11377 8.44434H14.9214C15.3462 8.44434 15.6831 8.09277 15.6831 7.66797C15.6831 7.24316 15.3462 6.8916 14.9214 6.8916H7.11377C6.81348 6.18848 6.11035 5.69775 5.29736 5.69775C4.48438 5.69775 3.78125 6.18848 3.48096 6.8916H1.05664ZM5.29736 8.59814C4.78467 8.59814 4.37451 8.18799 4.37451 7.66797C4.37451 7.14062 4.78467 6.74512 5.29736 6.74512C5.82471 6.74512 6.22754 7.14062 6.22754 7.66797C6.22754 8.18799 5.82471 8.59814 5.29736 8.59814ZM10.7832 14.2744C11.5962 14.2744 12.2993 13.7764 12.6069 13.0659H14.9434C15.3462 13.0659 15.6831 12.7144 15.6831 12.2969C15.6831 11.8647 15.3462 11.5205 14.9434 11.5205H12.5996C12.2993 10.8174 11.6035 10.3193 10.7832 10.3193C9.97021 10.3193 9.27441 10.8174 8.9668 11.5205H1.07861C0.653809 11.5205 0.316895 11.8721 0.316895 12.2969C0.316895 12.707 0.653809 13.0659 1.07861 13.0659H8.9668C9.26709 13.7764 9.97021 14.2744 10.7832 14.2744ZM10.7832 13.2197C10.2705 13.2197 9.86035 12.8096 9.86035 12.2969C9.86035 11.7695 10.2705 11.3667 10.7832 11.3667C11.3105 11.3667 11.7134 11.7695 11.7134 12.2969C11.7134 12.8096 11.3105 13.2197 10.7832 13.2197Z"/>
</svg>
