<svg viewBox="0 0 16 16" xmlns="http://www.w3.org/2000/svg">
  <path fill="white" d="M0.712402 6.41553C0.712402 9.75537 3.42236 12.4653 6.76221 12.4653C7.94873 12.4653 9.04004 12.1138 9.95557 11.5205L13.1416 14.7065C13.3833 14.9482 13.7056 15.0654 14.0425 15.0654C14.7603 15.0654 15.2876 14.5161 15.2876 13.813C15.2876 13.4761 15.1631 13.1611 14.9287 12.9268L11.772 9.75537C12.4312 8.81055 12.812 7.66064 12.812 6.41553C12.812 3.06836 10.1021 0.358398 6.76221 0.358398C3.42236 0.358398 0.712402 3.06836 0.712402 6.41553ZM2.49951 6.41553C2.49951 4.05713 4.40381 2.14551 6.76221 2.14551C9.12061 2.14551 11.0322 4.05713 11.0322 6.41553C11.0322 8.7666 9.12061 10.6782 6.76221 10.6782C4.40381 10.6782 2.49951 8.7666 2.49951 6.41553Z"/>
</svg>
