<svg viewBox="0 0 16 17" xmlns="http://www.w3.org/2000/svg">
  <path fill="#33333380" d="M7.3335 16.5854H8.6665C9.14258 16.5854 9.50146 16.2998 9.604 15.8384L9.96289 14.3223C10.1899 14.249 10.4097 14.1611 10.6001 14.0659L11.9258 14.8789C12.3213 15.1279 12.7827 15.084 13.1123 14.7544L14.0498 13.8242C14.3794 13.4946 14.4233 13.0112 14.167 12.6157L13.3613 11.3047C13.4492 11.1069 13.5371 10.8945 13.603 10.6895L15.1338 10.3232C15.5952 10.2207 15.8735 9.86182 15.8735 9.38574V8.07471C15.8735 7.60596 15.5952 7.24707 15.1338 7.14453L13.6177 6.77832C13.5444 6.54395 13.4492 6.33154 13.3687 6.15576L14.1816 4.81543C14.438 4.4126 14.4014 3.95117 14.0571 3.62158L13.105 2.68408C12.7754 2.38379 12.3579 2.3252 11.9624 2.54492L10.6001 3.37988C10.4097 3.28467 10.1973 3.2041 9.96289 3.12354L9.604 1.58545C9.50146 1.12402 9.14258 0.838379 8.6665 0.838379H7.3335C6.85742 0.838379 6.49121 1.12402 6.396 1.58545L6.02979 3.10889C5.80273 3.18945 5.58301 3.27734 5.38525 3.37256L4.0376 2.54492C3.63477 2.3252 3.21729 2.37646 2.88037 2.69141L1.93555 3.62158C1.59131 3.95117 1.56201 4.4126 1.81104 4.81543L2.62402 6.15576C2.54346 6.33154 2.44824 6.54395 2.375 6.77832L0.858887 7.14453C0.397461 7.24707 0.119141 7.60596 0.119141 8.07471V9.38574C0.119141 9.86182 0.397461 10.2207 0.858887 10.3232L2.38965 10.6895C2.45557 10.8945 2.54346 11.1069 2.63867 11.3047L1.83301 12.6157C1.56934 13.0112 1.61328 13.4946 1.94287 13.8242L2.88037 14.7544C3.20996 15.084 3.67139 15.1279 4.06689 14.8789L5.39258 14.0659C5.59033 14.1611 5.80273 14.249 6.02979 14.3223L6.396 15.8384C6.49121 16.2998 6.85742 16.5854 7.3335 16.5854ZM8 11.2607C6.60107 11.2607 5.45117 10.1108 5.45117 8.70459C5.45117 7.31299 6.60107 6.17041 8 6.17041C9.39893 6.17041 10.5415 7.31299 10.5415 8.70459C10.5415 10.1108 9.39893 11.2607 8 11.2607Z"/>
</svg>
