<svg viewBox="0 0 22 23" xmlns="http://www.w3.org/2000/svg">
  <path fill="#007AFF7f" d="M0.962891 12.3662H2.60645C2.94043 16.4707 6.20117 19.7402 10.2969 20.0742V21.7002C10.2969 22.0957 10.6045 22.4121 10.9912 22.4121C11.3955 22.4121 11.7031 22.0957 11.7031 21.7002V20.0742C15.7988 19.7402 19.0596 16.4707 19.3936 12.3662H21.0371C21.4326 12.3662 21.7402 12.0586 21.7402 11.6631C21.7402 11.2676 21.4326 10.96 21.0371 10.96H19.3936C19.0508 6.86426 15.79 3.59473 11.7031 3.25195V1.62598C11.7031 1.23047 11.3955 0.914062 10.9912 0.914062C10.6045 0.914062 10.2969 1.23047 10.2969 1.62598V3.25195C6.20117 3.59473 2.94043 6.86426 2.60645 10.96H0.962891C0.567383 10.96 0.250977 11.2676 0.250977 11.6631C0.250977 12.0586 0.567383 12.3662 0.962891 12.3662ZM10.9912 8.24414C11.3955 8.24414 11.7031 7.92773 11.7031 7.53223V4.95703C14.8672 5.28223 17.3193 7.76953 17.6357 10.96H15.1309C14.7354 10.96 14.4189 11.2676 14.4189 11.6631C14.4189 12.0586 14.7354 12.3662 15.1309 12.3662H17.6357C17.3193 15.5654 14.8672 18.0527 11.7031 18.3779V15.7939C11.7031 15.3984 11.3955 15.0908 10.9912 15.0908C10.6045 15.0908 10.2969 15.3984 10.2969 15.7939V18.3779C7.13281 18.0527 4.67188 15.5654 4.35547 12.3662H6.86035C7.25586 12.3662 7.57227 12.0586 7.57227 11.6631C7.57227 11.2676 7.25586 10.96 6.86035 10.96H4.35547C4.67188 7.76953 7.13281 5.28223 10.2969 4.95703V7.53223C10.2969 7.92773 10.6045 8.24414 10.9912 8.24414Z"/>
</svg>
