<svg width="64" height="64" viewBox="0 0 64 64" xmlns="http://www.w3.org/2000/svg">
    <defs>
        <linearGradient x1="50.014%" y1="-21.543%" x2="50.014%" y2="112.181%" id="a">
            <stop stop-color="#FFF" offset="0%"/>
            <stop stop-color="#CDCDCD" offset="100%"/>
        </linearGradient>
        <linearGradient x1="65.687%" y1="50%" x2="-136.309%" y2="50%" id="b">
            <stop stop-color="#FFF" offset="0%"/>
            <stop stop-color="#CDCDCD" offset="100%"/>
        </linearGradient>
    </defs>
    <g fill-rule="nonzero" fill="none">
        <circle fill="#666" cx="32" cy="32" r="32"/>
        <path d="M25.5 20.895a6.86 6.86 0 1 1 13.715 0H41.5a9.145 9.145 0 1 0-18.285 0H25.5z" fill="url(#a)"/>
        <path d="M46.125 20.895H18.7a4.575 4.575 0 0 0-4.575 4.57V43.75a4.575 4.575 0 0 0 4.575 4.575h27.425A4.575 4.575 0 0 0 50.7 43.75V25.465a4.575 4.575 0 0 0-4.575-4.57zM32.41 43.75a9.145 9.145 0 1 1 0-18.29 9.145 9.145 0 0 1 0 18.29z" fill="url(#b)"/>
        <rect fill="#FFF" x="30.7" y="29.71" width="3.43" height="10.285" rx=".5"/>
        <rect fill="#FFF" transform="rotate(-90 32.413 34.85)" x="30.698" y="29.707" width="3.43" height="10.285" rx=".5"/>
    </g>
</svg>
