<svg width="64" height="64" viewBox="0 0 64 64" xmlns="http://www.w3.org/2000/svg">
    <defs>
        <linearGradient x1="50%" y1="9.294%" x2="50%" y2="147.413%" id="a">
            <stop stop-color="#666" stop-opacity="0" offset="0%"/>
            <stop stop-color="#333" offset="100%"/>
        </linearGradient>
        <linearGradient x1="98.615%" y1="49.991%" x2="-120.27%" y2="49.991%" id="b">
            <stop stop-color="#FFF" offset="0%"/>
            <stop stop-color="#CDCDCD" offset="100%"/>
        </linearGradient>
        <linearGradient x1="1.385%" y1="49.982%" x2="220.306%" y2="49.982%" id="c">
            <stop stop-color="#FFF" offset="0%"/>
            <stop stop-color="#CDCDCD" offset="100%"/>
        </linearGradient>
        <linearGradient x1="0%" y1="1.441%" x2="0%" y2="330.836%" id="d">
            <stop stop-color="#FFF" offset="0%"/>
            <stop stop-color="#CDCDCD" offset="100%"/>
        </linearGradient>
        <linearGradient x1="50.022%" y1="1.441%" x2="50.022%" y2="330.836%" id="e">
            <stop stop-color="#FFF" offset="0%"/>
            <stop stop-color="#CDCDCD" offset="100%"/>
        </linearGradient>
    </defs>
    <g fill="none" fill-rule="evenodd">
        <circle fill="#666" fill-rule="nonzero" cx="32" cy="32" r="32"/>
        <path d="M8.595 43.93a26.25 26.25 0 0 0 46.81 0H8.595z" fill="url(#a)" opacity=".8"/>
        <path d="M54.84 28.55H45.7a2.28 2.28 0 0 0-2.285 2.255v-7.12a2.285 2.285 0 0 0-2.285-2.29H37.7v-9.14a2.285 2.285 0 0 0-2.285-2.285h-6.86a2.285 2.285 0 0 0-2.285 2.285v9.14h-3.425a2.29 2.29 0 0 0-2.285 2.29v6.885a2.28 2.28 0 0 0-2.26-2H9.16a2.285 2.285 0 0 0-2.29 2.285v8.835a26.37 26.37 0 0 0 13.69 16 25.92 25.92 0 0 0 5.715 2V46.075c0-.632.513-1.145 1.145-1.145h9.14a1.14 1.14 0 0 1 1.145 1.145v11.58a26.06 26.06 0 0 0 5.71-2 26.365 26.365 0 0 0 13.715-16v-8.82a2.285 2.285 0 0 0-2.29-2.285zM28.55 15.11c0-.63.51-1.14 1.14-1.14h4.57a1.14 1.14 0 0 1 1.145 1.14v1.145a1.14 1.14 0 0 1-1.145 1.14h-4.57c-.63 0-1.14-.51-1.14-1.14V15.11zM17.16 41.755A1.15 1.15 0 0 1 16 42.9h-4.555a1.15 1.15 0 0 1-1.145-1.145v-1.14c0-.632.513-1.145 1.145-1.145H16c.632 0 1.145.513 1.145 1.145l.015 1.14zm0-6.855A1.145 1.145 0 0 1 16 36.04h-4.555c-.63 0-1.142-.51-1.145-1.14v-1.145c.003-.63.515-1.14 1.145-1.14H16c.63 0 1.142.51 1.145 1.14l.015 1.145zm13.3 5.14a1.14 1.14 0 0 1-1.14 1.145h-4.575a1.14 1.14 0 0 1-1.14-1.145v-4.57c0-.63.51-1.142 1.14-1.145h4.575c.63.003 1.14.515 1.14 1.145v4.57zm0-9.185A1.14 1.14 0 0 1 29.32 32h-4.575a1.14 1.14 0 0 1-1.14-1.145v-4.57c0-.63.51-1.142 1.14-1.145h4.575c.63.003 1.14.515 1.14 1.145v4.57zm9.91 9.185a1.14 1.14 0 0 1-1.14 1.145h-4.575A1.14 1.14 0 0 1 33.5 40.04v-4.57c0-.63.51-1.142 1.14-1.145h4.575c.63.003 1.14.515 1.14 1.145l.015 4.57zm0-9.185A1.14 1.14 0 0 1 39.23 32h-4.575a1.14 1.14 0 0 1-1.155-1.145v-4.57c0-.63.51-1.142 1.14-1.145h4.575c.63.003 1.14.515 1.14 1.145l.015 4.57zm13.33 10.9c0 .632-.513 1.145-1.145 1.145H48a1.15 1.15 0 0 1-1.145-1.145v-1.14c0-.632.513-1.145 1.145-1.145h4.57a1.14 1.14 0 0 1 1.145 1.145l-.015 1.14zm0-6.855a1.14 1.14 0 0 1-1.145 1.14H48c-.63 0-1.142-.51-1.145-1.14v-1.145c.003-.63.515-1.14 1.145-1.14h4.57a1.14 1.14 0 0 1 1.145 1.14L53.7 34.9z" fill="#FFF"/>
        <path d="M57.15 39.67v-8.835a2.28 2.28 0 0 0-2.285-2.285h-9.14a2.285 2.285 0 0 0-2.29 2.285v24.84A26.35 26.35 0 0 0 57.15 39.67zm-10.285-5.915A1.145 1.145 0 0 1 48 32.615h4.57c.63 0 1.142.51 1.145 1.14V34.9a1.145 1.145 0 0 1-1.145 1.14H48c-.63 0-1.142-.51-1.145-1.14l.01-1.145zm0 6.86c0-.628.507-1.14 1.135-1.145h4.57c.632 0 1.145.513 1.145 1.145v1.14A1.15 1.15 0 0 1 52.57 42.9H48a1.15 1.15 0 0 1-1.145-1.145l.01-1.14z" fill="url(#b)"/>
        <path d="M18.295 28.55H9.15a2.285 2.285 0 0 0-2.285 2.285v8.855a26.365 26.365 0 0 0 13.715 16V30.835a2.285 2.285 0 0 0-2.285-2.285zM17.15 41.755A1.145 1.145 0 0 1 16 42.9h-4.565a1.145 1.145 0 0 1-1.14-1.145v-1.14a1.14 1.14 0 0 1 1.14-1.145H16a1.14 1.14 0 0 1 1.14 1.145l.01 1.14zm0-6.855A1.14 1.14 0 0 1 16 36.04h-4.565a1.14 1.14 0 0 1-1.14-1.14v-1.145c0-.63.51-1.14 1.14-1.14H16c.63 0 1.14.51 1.14 1.14l.01 1.145z" fill="url(#c)"/>
        <path d="M41.155 21.395H22.87a2.285 2.285 0 0 0-2.285 2.29v32a25.92 25.92 0 0 0 5.715 2v-11.61a1.14 1.14 0 0 1 1.145-1.145h9.14c.632 0 1.145.513 1.145 1.145v11.58a26.245 26.245 0 0 0 5.71-2v-32a2.29 2.29 0 0 0-2.285-2.26zM30.5 40.04a1.14 1.14 0 0 1-1.145 1.145H24.77a1.145 1.145 0 0 1-1.145-1.145v-4.57a1.15 1.15 0 0 1 1.145-1.145h4.57a1.145 1.145 0 0 1 1.16 1.145v4.57zm0-9.185A1.14 1.14 0 0 1 29.34 32h-4.57a1.145 1.145 0 0 1-1.145-1.145v-4.57a1.15 1.15 0 0 1 1.145-1.145h4.57a1.145 1.145 0 0 1 1.16 1.145v4.57zm9.895 9.185a1.14 1.14 0 0 1-1.145 1.145h-4.57a1.14 1.14 0 0 1-1.14-1.145v-4.57c0-.63.51-1.142 1.14-1.145h4.57a1.145 1.145 0 0 1 1.145 1.145v4.57zm0-9.185A1.14 1.14 0 0 1 39.25 32h-4.57a1.14 1.14 0 0 1-1.14-1.145v-4.57c0-.63.51-1.142 1.14-1.145h4.57a1.145 1.145 0 0 1 1.145 1.145v4.57z" fill="#FFF"/>
        <path d="M35.435 9.97H28.58a2.28 2.28 0 0 0-2.285 2.285v9.14h11.43v-9.14a2.285 2.285 0 0 0-2.29-2.285zm0 6.285a1.145 1.145 0 0 1-1.145 1.14h-4.575c-.63 0-1.142-.51-1.145-1.14V15.11c.003-.63.515-1.14 1.145-1.14h4.57c.63 0 1.142.51 1.145 1.14l.005 1.145z" fill="#FFF"/>
        <path fill="#FFF" fill-rule="nonzero" d="M26.295 17.925h11.43"/>
        <path fill="url(#d)" fill-rule="nonzero" d="M37.725 17.925h1v3.47h-1z"/>
        <path fill="#FFF" fill-rule="nonzero" d="M26.295 17.925v3.47H37.72v-3.47"/>
        <path fill="url(#e)" fill-rule="nonzero" d="M26.295 17.925H37.72v3.47H26.295z"/>
    </g>
</svg>
