<svg width="64" height="64" viewBox="0 0 64 64" xmlns="http://www.w3.org/2000/svg">
    <defs>
        <linearGradient x1="-56.833%" y1="49.967%" x2="44.016%" y2="49.967%" id="a">
            <stop stop-color="#CDCDCD" offset="0%"/>
            <stop stop-color="#FFF" offset="100%"/>
        </linearGradient>
        <linearGradient x1="67.803%" y1="82.246%" x2="47.26%" y2="37.981%" id="b">
            <stop stop-color="#CDCDCD" offset="0%"/>
            <stop stop-color="#FFF" offset="100%"/>
        </linearGradient>
        <linearGradient x1="50%" y1="290.792%" x2="50%" y2="6.417%" id="c">
            <stop stop-color="#CDCDCD" offset="0%"/>
            <stop stop-color="#FFF" offset="100%"/>
        </linearGradient>
        <linearGradient x1="-56.409%" y1="50.011%" x2="43.814%" y2="50.011%" id="d">
            <stop stop-color="#CDCDCD" offset="0%"/>
            <stop stop-color="#FFF" offset="100%"/>
        </linearGradient>
        <linearGradient x1="-56.754%" y1="50%" x2="44.058%" y2="50%" id="e">
            <stop stop-color="#CDCDCD" offset="0%"/>
            <stop stop-color="#FFF" offset="100%"/>
        </linearGradient>
        <linearGradient x1="-56.763%" y1="49.962%" x2="43.962%" y2="49.962%" id="f">
            <stop stop-color="#CDCDCD" offset="0%"/>
            <stop stop-color="#FFF" offset="100%"/>
        </linearGradient>
        <linearGradient x1="78.601%" y1="80.889%" x2="43.877%" y2="27.36%" id="g">
            <stop stop-color="#CDCDCD" offset="0%"/>
            <stop stop-color="#FFF" offset="100%"/>
        </linearGradient>
    </defs>
    <g fill="none" fill-rule="evenodd">
        <path d="M55.67 43.105a17.365 17.365 0 0 0-5.5-5.645A9.29 9.29 0 0 0 48 36.29a16.935 16.935 0 0 0-2.545-.92c-.23.115-.47.215-.71.315h-.09v.045a10.375 10.375 0 0 1-3.75.705 10.265 10.265 0 0 1-4.56-1.06c-.72.197-1.426.44-2.115.725l-1.78.88a18.43 18.43 0 0 0-8.875 12.07 24.605 24.605 0 0 0-.5 5.365c.002.689.047 1.377.135 2.06a26.255 26.255 0 0 0 22.03-2.055c.165-.03.24-.08.255-.15A26.37 26.37 0 0 0 55.67 43.105z" fill="url(#a)" fill-rule="nonzero"/>
        <circle fill="#8A8A8D" fill-rule="nonzero" cx="32" cy="32" r="32"/>
        <path d="M23.575 34.685v-4.8a1.2 1.2 0 0 1 1.2-1.2h4.795a11.84 11.84 0 0 1-.295-2.615c0-.44.025-.878.075-1.315h-1.385v-9.6a2.4 2.4 0 0 0-2.4-2.4h-7.2a2.4 2.4 0 0 0-2.4 2.4v9.6H12.37a2.4 2.4 0 0 0-2.4 2.4V46a26.405 26.405 0 0 0 9.85 9v-.135c-.033-2.137.17-4.272.605-6.365a21.055 21.055 0 0 1 3.15-7.425 20.805 20.805 0 0 1 2.13-2.745 31.71 31.71 0 0 1 2.665-2.445h-3.595a1.195 1.195 0 0 1-1.2-1.2zm-5.205-16.23a.6.6 0 0 1 .6-.6h2.1v-2.1a.6.6 0 0 1 .6-.6h.6a.6.6 0 0 1 .6.6v2.1h2.1a.6.6 0 0 1 .6.6v.6a.6.6 0 0 1-.6.6h-2.1v2.1a.6.6 0 0 1-.6.6h-.6a.6.6 0 0 1-.6-.6v-2.1h-2.1a.6.6 0 0 1-.6-.6v-.6zm2 25.875a1.195 1.195 0 0 1-1.2 1.2h-4.8a1.2 1.2 0 0 1-1.2-1.2v-4.8a1.205 1.205 0 0 1 1.2-1.2h4.8a1.2 1.2 0 0 1 1.2 1.2v4.8zm0-9.645a1.195 1.195 0 0 1-1.2 1.2h-4.8a1.2 1.2 0 0 1-1.2-1.2v-4.8a1.205 1.205 0 0 1 1.2-1.2h4.8a1.2 1.2 0 0 1 1.2 1.2v4.8z" fill="url(#b)"/>
        <path d="M15.965 15.155v9.6h12v-9.6a2.4 2.4 0 0 0-2.4-2.4h-7.2a2.4 2.4 0 0 0-2.4 2.4zm9.605 3.9a.6.6 0 0 1-.6.6h-2.1v2.1a.6.6 0 0 1-.6.6h-.6a.6.6 0 0 1-.6-.6v-2.1h-2.1a.6.6 0 0 1-.6-.6v-.6a.6.6 0 0 1 .6-.6h2.1v-2.1a.6.6 0 0 1 .6-.6h.6a.6.6 0 0 1 .6.6v2.1h2.1a.6.6 0 0 1 .6.6v.6z" fill="url(#c)"/>
        <path d="M47.15 43.305a1.785 1.785 0 0 0 2.35 2.04c.52-.171.929-.58 1.1-1.1a1.785 1.785 0 1 0-3.435-.94h-.015z" fill="url(#d)" fill-rule="nonzero"/>
        <circle fill="url(#e)" fill-rule="nonzero" cx="40.895" cy="26.07" r="8.625"/>
        <path d="M49.79 37.22v3a3.57 3.57 0 1 1-1.785 0v-3.94a16.935 16.935 0 0 0-2.545-.92 10.35 10.35 0 0 1-9.125 0c-.72.197-1.426.44-2.115.725v4.035c2.74.63 4.78 4.08 4.78 8.41a.89.89 0 0 1-.89.89h-1.75a.92.92 0 0 1-.925-.745.89.89 0 0 1 .875-1.04h.855c-.26-3.255-1.905-5.865-3.835-5.865s-3.575 2.61-3.83 5.865h.795a.925.925 0 0 1 .93.745.895.895 0 0 1-.88 1.04H28.55a.625.625 0 0 1-.89-.61c-.09-4.46 2-8.045 4.78-8.69v-3.155a18.43 18.43 0 0 0-8.865 12.085 24.605 24.605 0 0 0-.5 5.365c.002.689.047 1.377.135 2.06 12.659 4.517 26.684-1.253 32.5-13.37a17.245 17.245 0 0 0-5.92-5.885z" fill="url(#f)" fill-rule="nonzero"/>
        <path d="M25.705 38.33a31.71 31.71 0 0 1 2.665-2.445h-3.595a1.195 1.195 0 0 1-1.2-1.2v-4.8a1.2 1.2 0 0 1 1.2-1.2h4.795a11.84 11.84 0 0 1-.295-2.615c0-.44.025-.878.075-1.315h-17a2.4 2.4 0 0 0-2.4 2.4V46a26.405 26.405 0 0 0 9.85 9v-.135a29.115 29.115 0 0 1 .625-6.365 21.055 21.055 0 0 1 3.15-7.425 20.805 20.805 0 0 1 2.13-2.745zm-12.54-8.445a1.205 1.205 0 0 1 1.2-1.2h4.8a1.2 1.2 0 0 1 1.2 1.2v4.8a1.195 1.195 0 0 1-1.2 1.2h-4.8a1.2 1.2 0 0 1-1.2-1.2v-4.8zm1.2 15.645a1.2 1.2 0 0 1-1.2-1.2v-4.8a1.205 1.205 0 0 1 1.2-1.2h4.8a1.2 1.2 0 0 1 1.2 1.2v4.8a1.195 1.195 0 0 1-1.2 1.2h-4.8z" fill="url(#g)"/>
    </g>
</svg>
