<svg width="64" height="64" viewBox="0 0 64 64" xmlns="http://www.w3.org/2000/svg">
    <defs>
        <linearGradient x1="50.044%" y1="14.884%" x2="50.044%" y2="122.133%" id="a">
            <stop stop-color="#FFF" offset="0%"/>
            <stop stop-color="#CDCDCD" offset="100%"/>
        </linearGradient>
    </defs>
    <g fill-rule="nonzero" fill="none">
        <circle fill="#666" cx="32" cy="32" r="32"/>
        <rect fill="url(#a)" x="29.115" y="11.205" width="5.715" height="16.83" rx="2.855"/>
        <circle fill="#666" cx="31.975" cy="14.25" r="1.715"/>
        <path d="M41.545 19.62h-19.14a3 3 0 0 0-3 3v26a3 3 0 0 0 3 3h19.14a3 3 0 0 0 3-3v-26a3 3 0 0 0-3-3zM39.99 47.19h-16a1.145 1.145 0 1 1 0-2.285h16a1.145 1.145 0 0 1 0 2.285zm0-4.105h-16a1.145 1.145 0 1 1 0-2.285h16a1.145 1.145 0 0 1 0 2.285z" fill="#FFF"/>
        <circle fill="#666" cx="31.975" cy="29.98" r="7.43"/>
        <path d="M31.865 24.875a2.18 2.18 0 1 1 .01 4.36 2.18 2.18 0 0 1-.01-4.36M31.99 29.645c1.755 0 3.955 1.395 4.565 4a.295.295 0 0 1-.065.255.41.41 0 0 1-.32.15h-8.375a.425.425 0 0 1-.325-.15.31.31 0 0 1-.06-.255c.61-2.59 2.81-4 4.565-4" fill="#FFF"/>
    </g>
</svg>
