<svg width="64" height="64" viewBox="0 0 64 64" xmlns="http://www.w3.org/2000/svg">
    <defs>
        <linearGradient x1="70.605%" y1="50.109%" x2="-29.468%" y2="50.109%" id="a">
            <stop stop-color="#FFF" offset="0%"/>
            <stop stop-color="#CDCDCD" offset="100%"/>
        </linearGradient>
        <linearGradient x1="49.854%" y1="112.525%" x2="49.854%" y2="-22.823%" id="b">
            <stop stop-color="#FFF" offset="0%"/>
            <stop stop-color="#CDCDCD" offset="100%"/>
        </linearGradient>
        <linearGradient x1="99.99%" y1="50.997%" x2="-104.562%" y2="50.997%" id="c">
            <stop stop-color="#FFF" offset="0%"/>
            <stop stop-color="#E7E7E7" offset="49%"/>
            <stop stop-color="#CDCDCD" offset="100%"/>
        </linearGradient>
        <linearGradient x1="50%" y1="114.155%" x2="50%" y2="-23.26%" id="d">
            <stop stop-color="#FFF" offset="0%"/>
            <stop stop-color="#CDCDCD" offset="100%"/>
        </linearGradient>
        <linearGradient x1="50%" y1="113.36%" x2="50%" y2="-22.744%" id="e">
            <stop stop-color="#FFF" offset="0%"/>
            <stop stop-color="#CDCDCD" offset="100%"/>
        </linearGradient>
        <linearGradient x1="50%" y1="114.036%" x2="50%" y2="-20.636%" id="f">
            <stop stop-color="#FFF" offset="0%"/>
            <stop stop-color="#CDCDCD" offset="100%"/>
        </linearGradient>
        <linearGradient x1="60.286%" y1="49.993%" x2="-39.726%" y2="49.993%" id="g">
            <stop stop-color="#FFF" offset="0%"/>
            <stop stop-color="#CDCDCD" offset="100%"/>
        </linearGradient>
    </defs>
    <g fill-rule="nonzero" fill="none">
        <circle fill="#666" cx="32" cy="32" r="32"/>
        <path d="M45 46.575A2.29 2.29 0 0 0 45 42h-.45V29.43H45A1.715 1.715 0 1 0 45 26h-.715c-.027-6.65-5.23-12.13-11.87-12.5v-3.395h6.675V5.53h-6.675a.57.57 0 0 0-1.14 0v7.97c-6.745.231-12.102 5.751-12.13 12.5h-.45a1.715 1.715 0 0 0 0 3.43h.18V42h-.18a2.29 2.29 0 1 0 0 4.575h-8.57a26.285 26.285 0 0 0 43.75 0H45zM29.69 29.43h3.96V42h-3.96V29.43zM41.1 42h-4V29.43h4V42zM22.3 29.43h3.96V42H22.3V29.43z" fill="#FFF"/>
        <rect fill="#FFF" x="16.98" y="26" width="29.715" height="3.43" rx="1.715"/>
        <path fill="url(#a)" d="M32.23 5.53h6.855v4.57H32.23z"/>
        <rect fill="#FFF" x="16.405" y="42" width="30.855" height="4.57" rx="2.285"/>
        <path fill="url(#b)" d="M18.875 29.43h3.43v12.575h-3.43z"/>
        <rect fill="#FFF" x="31.275" y="4.96" width="1.145" height="10.255" rx=".57"/>
        <path d="M44.285 26.035a12.575 12.575 0 1 0-25.145 0h25.145z" fill="url(#c)"/>
        <path fill="url(#d)" d="M26.26 29.43h3.43v12.575h-3.43z"/>
        <path fill="url(#e)" d="M33.65 29.43h3.43v12.575h-3.43z"/>
        <path fill="url(#f)" d="M41.1 29.43h3.43v12.575H41.1z"/>
        <path d="M10.125 46.575a26.285 26.285 0 0 0 43.75 0h-43.75z" fill="url(#g)"/>
    </g>
</svg>
