<svg width="64" height="64" viewBox="0 0 64 64" xmlns="http://www.w3.org/2000/svg">
    <g fill="none" fill-rule="evenodd">
        <circle fill="#666" fill-rule="nonzero" cx="32" cy="32" r="32"/>
        <path d="M43 14H21.385C18.415 14 16 16.105 16 18.69v26.62c0 2.585 2.415 4.69 5.385 4.69H43c3 0 5.4-2.105 5.4-4.69V18.69C48.4 16.105 46 14 43 14z" fill="#FFF"/>
        <path d="M42.715 42.64a1.065 1.065 0 0 1-1.13 1H36.7a1.065 1.065 0 0 1-1.13-1v-8.195h-6.735v8.195a1.065 1.065 0 0 1-1.13 1H22.82a1.07 1.07 0 0 1-1.135-1V21.36a1.07 1.07 0 0 1 1.135-1h4.885a1.065 1.065 0 0 1 1.13 1v7.185h6.735V21.36a1.065 1.065 0 0 1 1.13-1h4.885a1.065 1.065 0 0 1 1.13 1v21.28z" fill="#666"/>
    </g>
</svg>
