<svg width="64" height="64" viewBox="0 0 64 64" xmlns="http://www.w3.org/2000/svg">
    <defs>
        <linearGradient x1="36.018%" y1="49.901%" x2="128.257%" y2="50.214%" id="a">
            <stop stop-color="#FFF" offset="0%"/>
            <stop stop-color="#CDCDCD" offset="100%"/>
        </linearGradient>
        <linearGradient x1="88.891%" y1="50.07%" x2="15.915%" y2="50.184%" id="b">
            <stop stop-color="#FFF" offset="0%"/>
            <stop stop-color="#CDCDCD" offset="100%"/>
        </linearGradient>
        <linearGradient x1="61.391%" y1="49.918%" x2="-35.256%" y2="50.226%" id="c">
            <stop stop-color="#FFF" offset="0%"/>
            <stop stop-color="#CDCDCD" offset="100%"/>
        </linearGradient>
        <linearGradient x1="50%" y1="99.524%" x2="50%" y2=".571%" id="d">
            <stop stop-color="#FFF" offset="0%"/>
            <stop stop-color="#CDCDCD" offset="100%"/>
        </linearGradient>
    </defs>
    <g fill="none" fill-rule="evenodd">
        <circle fill="#666" fill-rule="nonzero" cx="32" cy="32" r="32"/>
        <path d="M11.19 30.73c5.275-.055 7.82-2.675 9.5-4.41.89-.92 1.54-1.585 2.355-1.585a1.82 1.82 0 0 1 1.455.885 8.69 8.69 0 0 0 4.21 3.325.615.615 0 0 1 .465.58V33.1a.59.59 0 0 1-.35.53 14.67 14.67 0 0 1-6.5 1.43c-6.05 0-11.25-3.085-11.465-3.215a.58.58 0 0 1-.275-.675.655.655 0 0 1 .62-.44" fill="url(#a)"/>
        <path d="m29.53 39.83.295-.095c.195-.065.415-.125.65-.19l.19-.045V22.385h-20.12c3.1-4.79 10.715-8.245 19.745-8.5a1.21 1.21 0 1 1 2.3 0c9.03.275 16.64 3.73 19.74 8.5H32v16.79l.265-.06 1-.23c2.325-.555 2.815-.96 2.815-1.205 0-.045-.05-.125-.2-.23a3.1 3.1 0 0 0-.605-.295l-.215-.08-.145-.075c-.32-.105-.705-.21-1.14-.31l-.46-.1-.09-.03a.5.5 0 0 1-.15-.105.5.5 0 0 1-.13-.33.55.55 0 0 1 0-.09.47.47 0 0 1 .555-.345c.41.085.76.17 1.07.25.225.06.435.12.625.18s.385.13.55.2a4.5 4.5 0 0 1 .465.22c.468.19.786.63.82 1.135 0 1.175-1.735 1.685-3.5 2.11l-1.035.235-.47.11v6.5l.555-.185c.265-.09.5-.17.675-.25A4.5 4.5 0 0 0 34 45.82l.165-.125c.04-.037.08-.078.115-.12.027-.035.052-.072.075-.11a.5.5 0 0 0 .045-.105.46.46 0 0 0-.18-.42 1.075 1.075 0 0 0-.135-.115l-.09-.06-.205-.12-.25-.12a3.272 3.272 0 0 0-.295-.125.35.35 0 0 1-.085-.045l-.07-.055a.42.42 0 0 1-.1-.145A.445.445 0 0 1 33 44a.46.46 0 0 1 .45-.5.39.39 0 0 1 .185.03c.155.06.29.12.415.175l.29.15c.69.385 1.04.855 1.04 1.405 0 .965-.935 1.5-1.75 1.815-.365.15-.765.285-1.11.395l-.385.125-.095.03V54c0 .265-.28.465-.655.465s-.655-.2-.655-.465v-5.905a5.5 5.5 0 0 0-.53.245l-.185.105c-.475.305-.475.5-.475.605a.58.58 0 0 0 .09.305.95.95 0 0 0 .165.195c.074.066.152.126.235.18.05.036.094.08.13.13a.5.5 0 0 1 0 .5.445.445 0 0 1-.17.15.465.465 0 0 1-.475-.025 2.085 2.085 0 0 1-.77-.84 1.45 1.45 0 0 1-.135-.615 1.71 1.71 0 0 1 0-.23 1.77 1.77 0 0 1 .055-.22 1.7 1.7 0 0 1 .45-.65c.118-.106.245-.202.38-.285a2.35 2.35 0 0 1 .25-.145 4.5 4.5 0 0 1 .535-.255l.445-.175v-6.615c-.21.055-.395.11-.56.16l-.285.09c-1.12.39-1.205.68-1.205.76 0 .047.01.093.03.135.031.058.07.112.115.16l.08.07c.065.057.135.107.21.15a2.77 2.77 0 0 0 .35.19c.148.073.3.136.455.19a.5.5 0 0 1 .24.21c.07.12.08.266.03.395a.47.47 0 0 1-.6.27c-.86-.32-1.845-.815-1.845-1.77 0-.955 1.04-1.365 1.825-1.635" fill="#FFF"/>
        <path d="M30.29 13.84c-9.03.27-16.645 3.725-19.745 8.5H30.3V13.8h2.3" fill="url(#b)"/>
        <path d="M33.58 33.1v-3.575a.615.615 0 0 1 .47-.58 8.635 8.635 0 0 0 4.24-3.325 1.825 1.825 0 0 1 1.44-.885c.82 0 1.5.665 2.375 1.585 1.7 1.735 4.265 4.355 9.575 4.41a.655.655 0 0 1 .625.44.585.585 0 0 1-.275.675c-.22.13-5.455 3.215-11.55 3.215a14.89 14.89 0 0 1-6.55-1.43.6.6 0 0 1-.35-.53" fill="url(#c)"/>
        <path d="M32.68 52.07a.435.435 0 0 1 .155-.09.585.585 0 0 1 .46.04c.645.35.96.76.96 1.255a.355.355 0 0 1-.04.155.435.435 0 0 1-.18.175.56.56 0 0 1-.275.07.5.5 0 0 1-.405-.18.335.335 0 0 1-.085-.22c0-.13-.05-.335-.5-.59a.355.355 0 0 1-.07-.615" fill="#FFF"/>
        <path fill="url(#d)" fill-rule="nonzero" d="M30.69 22.385H32V38.15h-1.31z"/>
    </g>
</svg>
