<svg width="64" height="64" viewBox="0 0 64 64" xmlns="http://www.w3.org/2000/svg">
    <defs>
        <radialGradient cx="-78.825%" cy="50.925%" fx="-78.825%" fy="50.925%" r="134.375%" id="a">
            <stop stop-color="#CDCDCD" offset="0%"/>
            <stop stop-color="#FFF" offset="100%"/>
        </radialGradient>
        <linearGradient x1="50%" y1="-53.988%" x2="50%" y2="54.007%" id="b">
            <stop stop-color="#CDCDCD" offset="0%"/>
            <stop stop-color="#FFF" offset="100%"/>
        </linearGradient>
    </defs>
    <g fill="none" fill-rule="evenodd">
        <circle fill="#8A8A8D" fill-rule="nonzero" cx="32" cy="32" r="32"/>
        <path d="M32 11.6c5.71 0 10.34 4.63 10.34 10.34S37.71 32.28 32 32.28s-10.34-4.63-10.34-10.34c.008-5.707 4.633-10.332 10.34-10.34"/>
        <circle fill="url(#a)" fill-rule="nonzero" cx="32" cy="21.94" r="10"/>
        <path d="M51.68 48.455A20 20 0 0 0 37.295 32.71a12 12 0 0 1-10.59 0A20 20 0 0 0 12.32 48.455c-.115.638.08 1.293.525 1.765a26.23 26.23 0 0 0 38.31 0c.445-.472.64-1.127.525-1.765z" fill="url(#b)" fill-rule="nonzero"/>
    </g>
</svg>
