<svg width="64" height="64" viewBox="0 0 64 64" xmlns="http://www.w3.org/2000/svg">
    <defs>
        <linearGradient x1="49.982%" y1="403.385%" x2="49.982%" y2="-66.084%" id="a">
            <stop stop-color="#FFF" offset="0%"/>
            <stop stop-color="#CDCDCD" offset="100%"/>
        </linearGradient>
        <linearGradient x1="49.961%" y1="-12.272%" x2="49.961%" y2="78.045%" id="b">
            <stop stop-color="#FFF" offset="0%"/>
            <stop stop-color="#CDCDCD" offset="100%"/>
        </linearGradient>
        <linearGradient x1="75.148%" y1="50.007%" x2="-94.157%" y2="50.007%" id="c">
            <stop stop-color="#FFF" offset="0%"/>
            <stop stop-color="#CDCDCD" offset="100%"/>
        </linearGradient>
    </defs>
    <g fill="none" fill-rule="evenodd">
        <circle fill="#666" fill-rule="nonzero" cx="32" cy="32" r="32"/>
        <path d="M26.54 50.23a1.37 1.37 0 0 1-1.325-1.7 7.11 7.11 0 0 1 13.805 0 1.37 1.37 0 0 1-1.325 1.7H26.54z" fill="url(#a)" fill-rule="nonzero"/>
        <rect fill="url(#b)" fill-rule="nonzero" transform="rotate(45 39.064 24.174)" x="36.346" y="10.586" width="5.435" height="27.175" rx="2.715"/>
        <path d="M49.565 26.295a2.735 2.735 0 0 1 2.685 3.175c-1.566 9.907-10.105 17.202-20.135 17.202-10.03 0-18.57-7.295-20.135-17.202a2.735 2.735 0 0 1 2.69-3.175h34.895z" fill="url(#c)" fill-rule="nonzero"/>
        <path d="m35 41.065-1.285-1.66-1.29 1.66h-2.14l2.365-3-2.365-3.08h-1.32v3.11h-1.83v-7.85h3.945a2.68 2.68 0 0 1 2.255.925c.33.43.506.958.5 1.5a2 2 0 0 1-.125.695 2.27 2.27 0 0 1-1.545 1.375l1.555 2 1.105-1.405h2.065l-.3.385-1.85 2.33 2.36 3-2.1.015z" fill="#666"/>
        <path d="M30.85 31.63h-1.885v1.955h1.885c.805 0 1.17-.47 1.17-1s-.365-.975-1.17-.975" fill="#FFF"/>
    </g>
</svg>
