<svg xmlns="http://www.w3.org/2000/svg" width="64" height="64" viewBox="0 0 64 64">
    <defs>
        <linearGradient id="1ibtygib5a" x1="50.043%" x2="50.043%" y1="74.748%" y2="7.207%">
            <stop offset="0%" stop-color="#FFF"/>
            <stop offset="100%" stop-color="#CDCDCD"/>
        </linearGradient>
        <linearGradient id="n022o4gk6b" x1="49.979%" x2="49.979%" y1="89.637%" y2="7.886%">
            <stop offset="0%" stop-color="#FFF"/>
            <stop offset="100%" stop-color="#CDCDCD"/>
        </linearGradient>
    </defs>
    <g fill="none" fill-rule="evenodd">
        <g fill-rule="nonzero">
            <g transform="translate(-440 -690) translate(440 690)">
                <circle cx="32" cy="32" r="32" fill="#007A7F"/>
                <path fill="#FFF" d="M47.775 33.715h-2.86v5.63c-.114 4.81-4.046 8.65-8.858 8.65-4.81 0-8.743-3.84-8.857-8.65V36.73h-2.855V39.625c.185 6.329 5.369 11.363 11.7 11.363 6.331 0 11.515-5.034 11.7-11.363l.03-5.91z"/>
                <path fill="url(#1ibtygib5a)" d="M36.06 51.06c6.355-.009 11.545-5.082 11.7-11.435v-5.91h-2.845v5.63c-.006 4.888-3.967 8.85-8.855 8.855"/>
                <path fill="url(#n022o4gk6b)" d="M36.06 48.2c-4.89-.003-8.854-3.965-8.86-8.855V36.73h-2.855V39.625c.155 6.353 5.345 11.426 11.7 11.435"/>
                <path fill="#FFF" d="M46.345 25.91c-2.525-.003-4.575 2.041-4.58 4.567-.005 2.525 2.038 4.577 4.563 4.583 2.526.006 4.579-2.035 4.587-4.56.005-1.216-.474-2.383-1.331-3.244-.858-.862-2.023-1.346-3.239-1.346zm0 6.285c-.695 0-1.322-.42-1.586-1.063-.265-.644-.114-1.383.38-1.872.495-.489 1.236-.63 1.876-.359.64.272 1.053.904 1.045 1.599-.008.94-.774 1.698-1.715 1.695zM36.06 16.155H33.2c-.756.045-1.345.67-1.345 1.427s.59 1.383 1.345 1.428h1.43v7.435c-.114 4.81-4.046 8.65-8.858 8.65-4.81 0-8.743-3.84-8.857-8.65V18.8h1.43c.79 0 1.43-.64 1.43-1.43 0-.79-.64-1.43-1.43-1.43H15.5c-.788.003-1.425.642-1.425 1.43V26.725c.185 6.329 5.369 11.363 11.7 11.363 6.331 0 11.515-5.034 11.7-11.363V17.58c-.003-.782-.633-1.417-1.415-1.425z"/>
            </g>
        </g>
    </g>
</svg>
