<svg width="64" height="64" viewBox="0 0 64 64" xmlns="http://www.w3.org/2000/svg">
    <defs>
        <linearGradient x1="50.043%" y1="74.748%" x2="50.043%" y2="7.207%" id="a">
            <stop stop-color="#FFF" offset="0%"/>
            <stop stop-color="#CDCDCD" offset="100%"/>
        </linearGradient>
        <linearGradient x1="49.979%" y1="89.637%" x2="49.979%" y2="7.886%" id="b">
            <stop stop-color="#FFF" offset="0%"/>
            <stop stop-color="#CDCDCD" offset="100%"/>
        </linearGradient>
    </defs>
    <g fill-rule="nonzero" fill="none">
        <circle fill="#666" cx="32" cy="32" r="32"/>
        <path d="M47.775 33.715h-2.86v5.63a8.86 8.86 0 0 1-17.715 0V36.73h-2.855V39.625c.185 6.329 5.369 11.363 11.7 11.363 6.331 0 11.515-5.034 11.7-11.363l.03-5.91z" fill="#FFF"/>
        <path d="M36.06 51.06c6.355-.009 11.545-5.082 11.7-11.435v-5.91h-2.845v5.63A8.865 8.865 0 0 1 36.06 48.2" fill="url(#a)"/>
        <path d="M36.06 48.2a8.865 8.865 0 0 1-8.86-8.855V36.73h-2.855V39.625c.155 6.353 5.345 11.426 11.7 11.435" fill="url(#b)"/>
        <path d="M46.345 25.91a4.575 4.575 0 1 0-.01 9.15 4.575 4.575 0 0 0 .01-9.15zm0 6.285a1.715 1.715 0 1 1 0-3.43 1.715 1.715 0 0 1 0 3.43zM36.06 16.155H33.2a1.43 1.43 0 0 0 0 2.855h1.43v7.435a8.86 8.86 0 0 1-17.715 0V18.8h1.43a1.43 1.43 0 1 0 0-2.86H15.5a1.43 1.43 0 0 0-1.425 1.43V26.725c.185 6.329 5.369 11.363 11.7 11.363 6.331 0 11.515-5.034 11.7-11.363V17.58a1.43 1.43 0 0 0-1.415-1.425z" fill="#FFF"/>
    </g>
</svg>
