<svg width="64" height="64" viewBox="0 0 64 64" xmlns="http://www.w3.org/2000/svg">
    <defs>
        <radialGradient cx="-78.825%" cy="50.925%" fx="-78.825%" fy="50.925%" r="134.375%" id="a">
            <stop stop-color="#CDCDCD" offset="0%"/>
            <stop stop-color="#FFF" offset="100%"/>
        </radialGradient>
        <linearGradient x1="-56.773%" y1="49.999%" x2="44.039%" y2="49.999%" id="b">
            <stop stop-color="#CDCDCD" offset="0%"/>
            <stop stop-color="#FFF" offset="100%"/>
        </linearGradient>
    </defs>
    <g fill-rule="nonzero" fill="none">
        <circle fill="#8A8A8D" cx="32" cy="32" r="32"/>
        <path d="M39.21 42.335a2.07 2.07 0 1 0 4.14 0 2.07 2.07 0 0 0-4.14 0z" fill="#FFF"/>
        <circle fill="url(#a)" cx="32" cy="21.94" r="10"/>
        <path d="M51.68 48.455a20 20 0 0 0-9.37-13.59v3.5a4.14 4.14 0 1 1-2.065 0V33.78a20 20 0 0 0-2.955-1.07 12 12 0 0 1-10.58 0c-.834.225-1.653.506-2.45.84v4.675c3.175.735 5.54 4.735 5.54 9.775a1.035 1.035 0 0 1-1.03 1h-2.085a1.035 1.035 0 0 1 0-2.07h1c-.3-3.775-2.205-6.8-4.445-6.8s-4.145 3-4.445 6.8h1a1.035 1.035 0 0 1 0 2.07h-2.11a1.035 1.035 0 0 1-1.035-1c0-5 2.365-9 5.54-9.75v-3.675a20 20 0 0 0-9.87 13.88c-.115.638.08 1.293.525 1.765a26.23 26.23 0 0 0 38.31 0c.445-.472.64-1.127.525-1.765z" fill="url(#b)"/>
    </g>
</svg>
