<svg width="64" height="64" viewBox="0 0 64 64" xmlns="http://www.w3.org/2000/svg">
    <defs>
        <linearGradient x1="-258.534%" y1="50%" x2="306.018%" y2="50%" id="a">
            <stop stop-color="#FFF" offset="0%"/>
            <stop stop-color="#CDCDCD" offset="100%"/>
        </linearGradient>
    </defs>
    <g fill-rule="nonzero" fill="none">
        <circle fill="#666" cx="32" cy="32" r="32"/>
        <path d="M48.545 13.32H18.83a2.29 2.29 0 0 0-2.285 2.285v4.57h-2.26A2.29 2.29 0 0 0 12 22.46v26.585a26.5 26.5 0 0 0 4.545 4.21c10.576 7.677 25.187 6.412 34.285-2.97v-34.68a2.285 2.285 0 0 0-2.285-2.285z" fill="#FFF"/>
        <path d="M12 22.46v26.585a26.375 26.375 0 0 0 4.57 4.23v-33.1h-2.285A2.29 2.29 0 0 0 12 22.46z" fill="url(#a)"/>
        <path d="M50.855 15.605a2.285 2.285 0 0 0-2.285-2.285H18.855a2.29 2.29 0 0 0-2.285 2.285v37.67c10.576 7.677 25.187 6.412 34.285-2.97v-34.7z" fill="#FFF"/>
        <rect fill="#666" x="20.69" y="17.43" width="11.39" height="10.995" rx=".855"/>
        <rect fill="#666" x="35.35" y="35.99" width="11.39" height="10.995" rx=".855"/>
        <path d="M36.18 17.43h9.695a.86.86 0 0 1 0 1.715H36.18a.86.86 0 0 1 0-1.715zM36.18 22.07h9.695a.86.86 0 0 1 0 1.715H36.18a.86.86 0 0 1 0-1.715zM36.18 26.71h9.695a.86.86 0 0 1 0 1.715H36.18a.86.86 0 0 1 0-1.715zM21.555 31.35h9.675a.855.855 0 1 1 0 1.71h-9.675a.855.855 0 1 1 0-1.71zM21.555 36h9.675a.855.855 0 1 1 0 1.71h-9.675a.855.855 0 1 1 0-1.71zM31.25 47h-9.675a.86.86 0 0 1 0-1.715h9.675a.86.86 0 1 1 0 1.715zM31.25 42.34h-9.675a.86.86 0 0 1 0-1.715h9.675a.86.86 0 1 1 0 1.715zM36.18 31.35h9.695a.855.855 0 1 1 0 1.71H36.18a.855.855 0 1 1 0-1.71z" fill="#666"/>
    </g>
</svg>
