<svg width="64" height="64" viewBox="0 0 64 64" xmlns="http://www.w3.org/2000/svg">
    <defs>
        <linearGradient x1="0%" y1="49.992%" x2="100%" y2="49.992%" id="a">
            <stop stop-color="#DBDBDB" offset="0%"/>
            <stop stop-color="#CCC" offset="100%"/>
        </linearGradient>
        <linearGradient x1="93.437%" y1="50%" x2="-87.64%" y2="50%" id="b">
            <stop stop-color="#DBDBDB" offset="0%"/>
            <stop stop-color="#CCC" offset="100%"/>
        </linearGradient>
        <linearGradient x1="0%" y1="50%" x2="100%" y2="50%" id="c">
            <stop stop-color="#9A9A9A" offset="0%"/>
            <stop stop-color="#BDBDBD" offset="100%"/>
        </linearGradient>
        <linearGradient x1="50.014%" y1="61.646%" x2="50.014%" y2="-14.542%" id="d">
            <stop stop-color="#FFF" offset="0%"/>
            <stop stop-color="#CDCDCD" offset="100%"/>
        </linearGradient>
        <linearGradient x1="100%" y1="50%" x2="0%" y2="50%" id="e">
            <stop stop-color="#E0E0E0" offset="0%"/>
            <stop stop-color="#CECECE" offset="100%"/>
        </linearGradient>
    </defs>
    <g fill-rule="nonzero" fill="none">
        <circle fill="#666" cx="32" cy="32" r="32"/>
        <path fill="url(#a)" d="M13.715 44.62V26.29L32 20.53l18.285 5.715V44.62L32 50.335"/>
        <path fill="url(#b)" d="M50.285 26.245 32 20.53v18.285l18.285 5.715z"/>
        <path fill="url(#c)" d="M13.715 26.245 32 20.53v18.285L13.715 44.53z"/>
        <path fill="url(#d)" d="M50.285 44.615 32 50.33V32.045l18.285-5.715z"/>
        <path fill="url(#e)" d="M13.715 44.615 32 50.33V32.045L13.715 26.33z"/>
        <path fill="#FFF" d="M56 33.145 37.715 38.86 32 32l18.285-5.71zM56 19.38l-18.285-5.71L32 20.525l18.285 5.715z"/>
        <path fill="#F4F4F4" d="m8 19.38 18.285-5.71L32 20.525 13.715 26.24zM8 33.145l18.285 5.715L32 32l-18.285-5.71z"/>
    </g>
</svg>
