<svg viewBox="0 0 20 23" fill="none" xmlns="http://www.w3.org/2000/svg">
  <path d="M9.82235 22.7656C8.81454 22.7656 8.12313 22.0625 8.12313 21.0078V8L8.24032 5.45703L5.88485 8.17578L3.24813 10.8008C2.94345 11.1172 2.54501 11.3281 2.02938 11.3281C1.11532 11.3281 0.423916 10.6484 0.423916 9.6875C0.423916 9.24219 0.599697 8.83203 0.95126 8.46875L8.56845 0.839844C8.88485 0.511719 9.36532 0.324219 9.82235 0.324219C10.2911 0.324219 10.7599 0.511719 11.0763 0.839844L18.7052 8.46875C19.0567 8.83203 19.2325 9.24219 19.2325 9.6875C19.2325 10.6484 18.5411 11.3281 17.627 11.3281C17.1231 11.3281 16.7247 11.1172 16.4083 10.8008L13.7716 8.17578L11.4161 5.45703L11.5216 8V21.0078C11.5216 22.0625 10.8419 22.7656 9.82235 22.7656Z" fill="#CDCDCD"/>
</svg>
