<svg viewBox="0 0 24 20" fill="none" xmlns="http://www.w3.org/2000/svg">
  <path d="M0.92453 9.98828C0.92453 11.0078 1.62766 11.6875 2.68234 11.6875H15.6902L18.2331 11.582L15.5144 13.9375L12.8894 16.5742C12.573 16.8906 12.362 17.2891 12.362 17.793C12.362 18.707 13.0417 19.3984 14.0027 19.3984C14.448 19.3984 14.8581 19.2227 15.2214 18.8711L22.8503 11.2422C23.1784 10.9258 23.3659 10.457 23.3659 9.98828C23.3659 9.53125 23.1784 9.05078 22.8503 8.73438L15.2214 1.11719C14.8581 0.765625 14.448 0.589844 14.0027 0.589844C13.0417 0.589844 12.362 1.28125 12.362 2.19531C12.362 2.71094 12.573 3.10938 12.8894 3.41406L15.5144 6.05078L18.2331 8.40625L15.6902 8.28906L2.68234 8.28906C1.62766 8.28906 0.92453 8.98047 0.92453 9.98828Z" fill="black"/>
</svg>
