<svg viewBox="0 0 14 11" fill="none" xmlns="http://www.w3.org/2000/svg">
  <path d="M2.723 3.58638C2.40575 3.98588 1.9945 3.83901 1.84762 3.32788L1.11325 0.78401C0.989873 0.378635 1.23662 0.0613852 1.6655 0.0790102L4.31512 0.167135C4.84387 0.18476 5.073 0.554885 4.7675 0.94851L4.24462 1.62413L4.26225 1.63588C5.34912 2.35263 6.67099 3.84488 6.98824 4.83188H7.01174C7.31724 3.85076 8.64499 2.35263 9.73187 1.63588L9.76124 1.61826L9.21487 0.872135C8.92112 0.46676 9.16787 0.10251 9.69662 0.108385L12.3462 0.0966352C12.7751 0.0966352 13.0101 0.425635 12.875 0.83101L12.0584 3.34551C11.8939 3.85076 11.4767 3.98588 11.1771 3.56876L10.6014 2.78151L10.478 2.86376C9.29712 3.61576 7.70499 5.46638 7.70499 6.81176V9.95488C7.70499 10.466 7.45237 10.7421 6.99999 10.7421C6.54174 10.7421 6.28912 10.466 6.28912 9.95488V6.81176C6.28912 5.46638 4.69112 3.61576 3.522 2.86376L3.36337 2.76388L2.723 3.58638Z" fill="#004C93"/>
</svg>
