<svg width="7" height="12" viewBox="0 0 7 12" fill="none" xmlns="http://www.w3.org/2000/svg">
  <path d="M0.709717 5.76953C0.715576 5.5293 0.797607 5.33008 0.990967 5.14258L5.50269 0.730469C5.64917 0.578125 5.83081 0.507812 6.05347 0.507812C6.49292 0.507812 6.84448 0.853516 6.84448 1.29297C6.84448 1.50977 6.75659 1.70898 6.59839 1.86719L2.59058 5.76367L6.59839 9.67188C6.75659 9.83008 6.84448 10.0234 6.84448 10.2461C6.84448 10.6855 6.49292 11.0371 6.05347 11.0371C5.83667 11.0371 5.64917 10.9609 5.50269 10.8086L0.990967 6.39648C0.797607 6.20898 0.709717 6.00977 0.709717 5.76953Z" fill="#007AFF"/>
</svg>