<svg width="14" height="13" viewBox="0 0 14 13" fill="none" xmlns="http://www.w3.org/2000/svg">
  <path opacity="0.5" d="M0.803711 6.71191C0.803711 6.19189 1.23584 5.76709 1.74854 5.76709H6.05518V1.46045C6.05518 0.947754 6.47998 0.515625 7 0.515625C7.52002 0.515625 7.94482 0.947754 7.94482 1.46045V5.76709H12.2515C12.7715 5.76709 13.1963 6.19189 13.1963 6.71191C13.1963 7.23193 12.7715 7.65674 12.2515 7.65674H7.94482V11.9634C7.94482 12.4834 7.52002 12.9082 7 12.9082C6.47998 12.9082 6.05518 12.4834 6.05518 11.9634V7.65674H1.74854C1.23584 7.65674 0.803711 7.23193 0.803711 6.71191Z" fill="#333333"/>
</svg>
