<svg xmlns="http://www.w3.org/2000/svg" width="64" height="64" viewBox="0 0 64 64">
    <defs>
        <linearGradient id="wk38md72ka" x1="83.227%" x2="12.564%" y1="16.773%" y2="87.436%">
            <stop offset="0%" stop-color="#FFF"/>
            <stop offset="100%" stop-color="#CDCDCD"/>
        </linearGradient>
        <linearGradient id="qgioaqnk8b" x1="84.949%" x2="14.287%" y1="15.242%" y2="85.905%">
            <stop offset="0%" stop-color="#FFF"/>
            <stop offset="100%" stop-color="#CDCDCD"/>
        </linearGradient>
        <linearGradient id="t1tlxbsdfc" x1="50.026%" x2="50.026%" y1="0%" y2="117.347%">
            <stop offset="0%" stop-color="#007A7F" stop-opacity="0"/>
            <stop offset="100%" stop-color="#005765"/>
        </linearGradient>
        <linearGradient id="1ms5e0rbvd" x1="83.413%" x2="-73.539%" y1="50.048%" y2="49.823%">
            <stop offset="0%" stop-color="#FFF"/>
            <stop offset="100%" stop-color="#CDCDCD"/>
        </linearGradient>
        <linearGradient id="lv4nn5h59e" x1="78.423%" x2="24.423%" y1="43.135%" y2="70.135%">
            <stop offset="0%" stop-color="#FFF"/>
            <stop offset="100%" stop-color="#CDCDCD"/>
        </linearGradient>
        <linearGradient id="opduos81wf" x1="75.517%" x2="-116.937%" y1="20.702%" y2="213.525%">
            <stop offset="0%" stop-color="#FFF"/>
            <stop offset="100%" stop-color="#CDCDCD"/>
        </linearGradient>
        <linearGradient id="g55ur8n5sg" x1="79.308%" x2="23.963%" y1="42.427%" y2="70.315%">
            <stop offset="0%" stop-color="#FFF"/>
            <stop offset="100%" stop-color="#CDCDCD"/>
        </linearGradient>
    </defs>
    <g fill="none" fill-rule="evenodd">
        <g fill-rule="nonzero">
            <g transform="translate(-248 -412) translate(248 412)">
                <circle cx="32" cy="32" r="32" fill="#007A7F"/>
                <path fill="url(#wk38md72ka)" d="M20.73 38.03c-2.165 0-3.92 1.755-3.92 3.92s1.755 3.92 3.92 3.92 3.92-1.755 3.92-3.92-1.755-3.92-3.92-3.92zm0 5.88c-1.082 0-1.96-.878-1.96-1.96 0-1.082.878-1.96 1.96-1.96 1.082 0 1.96.878 1.96 1.96-.003 1.081-.879 1.957-1.96 1.96z"/>
                <path fill="url(#qgioaqnk8b)" d="M47.595 38.03c-1.587-.006-3.02.945-3.632 2.41-.612 1.464-.28 3.152.84 4.277 1.12 1.124 2.807 1.462 4.274.856 1.466-.606 2.423-2.036 2.423-3.623 0-2.16-1.746-3.912-3.905-3.92zm0 5.88c-1.082 0-1.96-.878-1.96-1.96 0-1.082.878-1.96 1.96-1.96 1.082 0 1.96.878 1.96 1.96-.003 1.081-.879 1.957-1.96 1.96z"/>
                <path fill="url(#t1tlxbsdfc)" d="M41.96 33.165L41.96 28.265 46.86 28.265 51.755 33.165z"/>
                <path fill="url(#1ms5e0rbvd)" d="M36 18.425H13.535c-1.26.003-2.282 1.024-2.285 2.285v18.97c.003 1.26 1.024 2.282 2.285 2.285h1.775c0-2.993 2.427-5.42 5.42-5.42s5.42 2.427 5.42 5.42h12.14V20.71c-.003-1.263-1.027-2.285-2.29-2.285z"/>
                <path fill="url(#lv4nn5h59e)" d="M20.73 35.45c-3.59 0-6.5 2.91-6.5 6.5h1.1c0-2.982 2.418-5.4 5.4-5.4s5.4 2.418 5.4 5.4h1.1c0-1.724-.685-3.377-1.904-4.596-1.219-1.22-2.872-1.904-4.596-1.904z"/>
                <path fill="url(#opduos81wf)" d="M54.86 33.54l-6.69-6.69c-.37-.364-.866-.57-1.385-.575h-7V41.95h2.42c.089-2.928 2.488-5.255 5.418-5.255 2.929 0 5.328 2.327 5.417 5.255h.46c1.068-.014 1.927-.882 1.93-1.95v-5.075c0-.519-.204-1.017-.57-1.385zm-12.9-.375v-4.9h4.9l4.895 4.9H41.96z"/>
                <path fill="url(#g55ur8n5sg)" d="M42.2 41.955c0-2.982 2.418-5.4 5.4-5.4s5.4 2.418 5.4 5.4h.5c.211-.003.42-.04.62-.11-.03-3.59-2.965-6.475-6.555-6.445-3.59.03-6.475 2.965-6.445 6.555h1.08z"/>
                <path fill="#007A7F" d="M47.595 38.03c2.165 0 3.92 1.755 3.92 3.92s-1.755 3.92-3.92 3.92-3.92-1.755-3.92-3.92 1.755-3.92 3.92-3.92m0-1.5c-2.194-.006-4.174 1.31-5.018 3.335-.844 2.025-.384 4.359 1.165 5.912 1.55 1.553 3.882 2.02 5.909 1.182C51.678 46.12 53 44.144 53 41.95c-.005-2.985-2.42-5.406-5.405-5.42z"/>
            </g>
        </g>
    </g>
</svg>
