<svg xmlns="http://www.w3.org/2000/svg" width="64" height="64" viewBox="0 0 64 64">
    <defs>
        <linearGradient id="yzn7xs0lha" x1="50.044%" x2="50.044%" y1="14.884%" y2="122.133%">
            <stop offset="0%" stop-color="#FFF"/>
            <stop offset="100%" stop-color="#CDCDCD"/>
        </linearGradient>
    </defs>
    <g fill="none" fill-rule="evenodd">
        <g fill-rule="nonzero">
            <g transform="translate(-632 -551) translate(632 551)">
                <circle cx="32" cy="32" r="32" fill="#007A7F"/>
                <rect width="5.715" height="16.83" x="29.115" y="11.205" fill="url(#yzn7xs0lha)" rx="2.855"/>
                <circle cx="31.975" cy="14.25" r="1.715" fill="#007A7F"/>
                <path fill="#FFF" d="M41.545 19.62h-19.14c-1.657 0-3 1.343-3 3v26c0 1.657 1.343 3 3 3h19.14c1.657 0 3-1.343 3-3v-26c0-1.657-1.343-3-3-3zM39.99 47.19h-16c-.426.028-.833-.183-1.054-.548-.222-.365-.222-.824 0-1.189.221-.365.628-.576 1.054-.548h16c.602.04 1.07.54 1.07 1.142 0 .604-.468 1.103-1.07 1.143zm0-4.105h-16c-.426.028-.833-.183-1.054-.548-.222-.365-.222-.824 0-1.189.221-.365.628-.576 1.054-.548h16c.602.04 1.07.54 1.07 1.143s-.468 1.102-1.07 1.142z"/>
                <circle cx="31.975" cy="29.98" r="7.43" fill="#007A7F"/>
                <path fill="#FFF" d="M31.865 24.875c.883-.002 1.68.528 2.018 1.343.339.816.153 1.754-.472 2.378-.624.625-1.562.81-2.378.472-.815-.339-1.345-1.135-1.343-2.018 0-1.201.974-2.175 2.175-2.175M31.99 29.645c1.755 0 3.955 1.395 4.565 4 .02.09-.005.185-.065.255-.079.096-.196.15-.32.15h-8.375c-.125 0-.244-.055-.325-.15-.057-.072-.079-.165-.06-.255.61-2.59 2.81-4 4.565-4"/>
            </g>
        </g>
    </g>
</svg>
