<svg xmlns="http://www.w3.org/2000/svg" width="64" height="64" viewBox="0 0 64 64">
    <defs>
        <linearGradient id="hpshiyimda" x1="0%" x2="100%" y1="49.992%" y2="49.992%">
            <stop offset="0%" stop-color="#DBDBDB"/>
            <stop offset="100%" stop-color="#CCC"/>
        </linearGradient>
        <linearGradient id="3kmz0hd0jb" x1="93.437%" x2="-87.64%" y1="50%" y2="50%">
            <stop offset="0%" stop-color="#DBDBDB"/>
            <stop offset="100%" stop-color="#CCC"/>
        </linearGradient>
        <linearGradient id="ab53cdmuvc" x1="0%" x2="100%" y1="50%" y2="50%">
            <stop offset="0%" stop-color="#9A9A9A"/>
            <stop offset="100%" stop-color="#BDBDBD"/>
        </linearGradient>
        <linearGradient id="tbynfiig1d" x1="50.014%" x2="50.014%" y1="61.646%" y2="-14.542%">
            <stop offset="0%" stop-color="#FFF"/>
            <stop offset="100%" stop-color="#CDCDCD"/>
        </linearGradient>
        <linearGradient id="an824t4uve" x1="100%" x2="0%" y1="50%" y2="50%">
            <stop offset="0%" stop-color="#E0E0E0"/>
            <stop offset="100%" stop-color="#CECECE"/>
        </linearGradient>
    </defs>
    <g fill="none" fill-rule="evenodd">
        <g fill-rule="nonzero">
            <g transform="translate(-56 -690) translate(56 690)">
                <circle cx="32" cy="32" r="32" fill="#007A7F"/>
                <path fill="url(#hpshiyimda)" d="M13.715 44.62L13.715 26.29 32 20.53 50.285 26.245 50.285 44.62 32 50.335"/>
                <path fill="url(#3kmz0hd0jb)" d="M50.285 26.245L32 20.53 32 38.815 50.285 44.53z"/>
                <path fill="url(#ab53cdmuvc)" d="M13.715 26.245L32 20.53 32 38.815 13.715 44.53z"/>
                <path fill="url(#tbynfiig1d)" d="M50.285 44.615L32 50.33 32 32.045 50.285 26.33z"/>
                <path fill="url(#an824t4uve)" d="M13.715 44.615L32 50.33 32 32.045 13.715 26.33z"/>
                <path fill="#FFF" d="M56 33.145L37.715 38.86 32 32 50.285 26.29zM56 19.38L37.715 13.67 32 20.525 50.285 26.24z"/>
                <path fill="#F4F4F4" d="M8 19.38L26.285 13.67 32 20.525 13.715 26.24zM8 33.145L26.285 38.86 32 32 13.715 26.29z"/>
            </g>
        </g>
    </g>
</svg>
