<svg width="20" height="20" viewBox="0 0 20 20" fill="none" xmlns="http://www.w3.org/2000/svg">
<path d="M18.625 0.625H1.375C0.960156 0.625 0.625 0.960156 0.625 1.375V18.625C0.625 19.0398 0.960156 19.375 1.375 19.375H18.625C19.0398 19.375 19.375 19.0398 19.375 18.625V1.375C19.375 0.960156 19.0398 0.625 18.625 0.625ZM17.6875 17.6875H2.3125V2.3125H17.6875V17.6875Z" fill="#00857C"/>
<path d="M6.69063 10.9938C5.41094 10.9938 4.375 12.0297 4.375 13.3094C4.375 14.5891 5.41094 15.625 6.69063 15.625C7.97031 15.625 9.00625 14.5891 9.00625 13.3094V12.3156H10.9914V13.3094C10.9914 14.5891 12.0273 15.625 13.307 15.625C14.5867 15.625 15.6227 14.5891 15.6227 13.3094C15.6227 12.0297 14.5867 10.9938 13.307 10.9938H12.3133V9.00859H13.307C14.5867 9.00859 15.6227 7.97266 15.6227 6.69297C15.6227 5.41328 14.5867 4.37734 13.307 4.37734C12.0273 4.37734 10.9914 5.41328 10.9914 6.69297V7.68672H9.00625V6.69297C9.00625 5.41328 7.97031 4.37734 6.69063 4.37734C5.41094 4.37734 4.375 5.41094 4.375 6.69063C4.375 7.97031 5.41094 9.00625 6.69063 9.00625H7.68438V10.9914H6.69063V10.9938ZM7.68438 13.3094C7.68438 13.8578 7.23906 14.3031 6.69063 14.3031C6.14219 14.3031 5.69688 13.8578 5.69688 13.3094C5.69688 12.7609 6.14219 12.3156 6.69063 12.3156H7.68438V13.3094ZM12.3156 6.69063C12.3156 6.14219 12.7609 5.69688 13.3094 5.69688C13.8578 5.69688 14.3031 6.14219 14.3031 6.69063C14.3031 7.23906 13.8578 7.68438 13.3094 7.68438H12.3156V6.69063ZM12.3156 12.3156H13.3094C13.8578 12.3156 14.3031 12.7609 14.3031 13.3094C14.3031 13.8578 13.8578 14.3031 13.3094 14.3031C12.7609 14.3031 12.3156 13.8578 12.3156 13.3094V12.3156ZM9.00625 9.00625H10.9914V10.9914H9.00625V9.00625ZM6.69063 7.68438C6.14219 7.68438 5.69688 7.23906 5.69688 6.69063C5.69688 6.14219 6.14219 5.69688 6.69063 5.69688C7.23906 5.69688 7.68438 6.14219 7.68438 6.69063V7.68438H6.69063Z" fill="#00857C"/>
</svg>
