<svg width="18" height="22" viewBox="0 0 18 22" fill="none" xmlns="http://www.w3.org/2000/svg">
<path d="M3.9375 5C3.83437 5 3.75 5.08437 3.75 5.1875V6.3125C3.75 6.41563 3.83437 6.5 3.9375 6.5H12.9375C13.0406 6.5 13.125 6.41563 13.125 6.3125V5.1875C13.125 5.08437 13.0406 5 12.9375 5H3.9375ZM8.4375 9.6875V8.5625C8.4375 8.45937 8.35312 8.375 8.25 8.375H3.9375C3.83437 8.375 3.75 8.45937 3.75 8.5625V9.6875C3.75 9.79062 3.83437 9.875 3.9375 9.875H8.25C8.35312 9.875 8.4375 9.79062 8.4375 9.6875ZM7.3125 18.9688H1.875V2.46875H15V10.5312C15 10.6344 15.0844 10.7188 15.1875 10.7188H16.5C16.6031 10.7188 16.6875 10.6344 16.6875 10.5312V1.53125C16.6875 1.11641 16.3523 0.78125 15.9375 0.78125H0.9375C0.522656 0.78125 0.1875 1.11641 0.1875 1.53125V19.9062C0.1875 20.3211 0.522656 20.6562 0.9375 20.6562H7.3125C7.41563 20.6562 7.5 20.5719 7.5 20.4688V19.1562C7.5 19.0531 7.41563 18.9688 7.3125 18.9688ZM9.75234 16.2594C9.79453 15.4508 10.132 14.6938 10.7086 14.1172C11.3227 13.5031 12.1617 13.1562 13.0312 13.1562C13.9078 13.1562 14.7328 13.4984 15.3539 14.1172C15.4289 14.1922 15.5016 14.2719 15.5695 14.3539L15.0281 14.7734C15.0002 14.795 14.979 14.8241 14.9668 14.8572C14.9547 14.8903 14.9521 14.9262 14.9595 14.9608C14.9668 14.9953 14.9837 15.027 15.0083 15.0524C15.0329 15.0777 15.0641 15.0955 15.0984 15.1039L17.2852 15.6312C17.4023 15.6594 17.5148 15.5703 17.5172 15.4508L17.5312 13.2148C17.5316 13.1796 17.522 13.145 17.5036 13.115C17.4852 13.085 17.4586 13.0607 17.4271 13.0451C17.3955 13.0294 17.3602 13.023 17.3252 13.0265C17.2901 13.03 17.2567 13.0433 17.2289 13.0648L16.7531 13.4352C15.8766 12.35 14.5336 11.6562 13.0312 11.6562C10.4555 11.6562 8.35312 13.693 8.25 16.243C8.24531 16.3484 8.33203 16.4375 8.4375 16.4375H9.56484C9.66562 16.4375 9.74766 16.3602 9.75234 16.2594ZM17.625 16.4375H16.4977C16.3969 16.4375 16.3148 16.5148 16.3102 16.6156C16.268 17.4242 15.9305 18.1812 15.3539 18.7578C14.7398 19.3719 13.9008 19.7188 13.0312 19.7188C12.1547 19.7188 11.3297 19.3766 10.7086 18.7578C10.6336 18.6828 10.5609 18.6031 10.493 18.5211L11.0344 18.1016C11.0623 18.08 11.0835 18.0509 11.0957 18.0178C11.1078 17.9847 11.1104 17.9488 11.103 17.9142C11.0957 17.8797 11.0788 17.848 11.0542 17.8226C11.0296 17.7973 10.9984 17.7795 10.9641 17.7711L8.77734 17.2438C8.66016 17.2156 8.54766 17.3047 8.54531 17.4242L8.53125 19.6602C8.53091 19.6954 8.54051 19.73 8.55893 19.76C8.57735 19.79 8.60386 19.8143 8.63541 19.8299C8.66696 19.8456 8.70229 19.852 8.73734 19.8485C8.77239 19.845 8.80575 19.8317 8.83359 19.8102L9.30938 19.4398C10.1859 20.525 11.5289 21.2188 13.0312 21.2188C15.607 21.2188 17.7094 19.182 17.8125 16.632C17.8172 16.5266 17.7305 16.4375 17.625 16.4375Z" fill="#00857C"/>
</svg>
