<svg xmlns="http://www.w3.org/2000/svg" width="64" height="64" viewBox="0 0 64 64">
    <defs>
        <linearGradient id="fdeqpouvfa" x1="-56.833%" x2="44.016%" y1="49.967%" y2="49.967%">
            <stop offset="0%" stop-color="#CDCDCD"/>
            <stop offset="100%" stop-color="#FFF"/>
        </linearGradient>
        <linearGradient id="hknm00n5gb" x1="67.803%" x2="47.26%" y1="82.246%" y2="37.981%">
            <stop offset="0%" stop-color="#CDCDCD"/>
            <stop offset="100%" stop-color="#FFF"/>
        </linearGradient>
        <linearGradient id="0hbbiuopnc" x1="50%" x2="50%" y1="290.792%" y2="6.417%">
            <stop offset="0%" stop-color="#CDCDCD"/>
            <stop offset="100%" stop-color="#FFF"/>
        </linearGradient>
        <linearGradient id="8kazplxd1d" x1="-56.409%" x2="43.814%" y1="50.011%" y2="50.011%">
            <stop offset="0%" stop-color="#CDCDCD"/>
            <stop offset="100%" stop-color="#FFF"/>
        </linearGradient>
        <linearGradient id="brey035dge" x1="-56.754%" x2="44.058%" y1="50%" y2="50%">
            <stop offset="0%" stop-color="#CDCDCD"/>
            <stop offset="100%" stop-color="#FFF"/>
        </linearGradient>
        <linearGradient id="mnvzkh32kf" x1="-56.763%" x2="43.962%" y1="49.962%" y2="49.962%">
            <stop offset="0%" stop-color="#CDCDCD"/>
            <stop offset="100%" stop-color="#FFF"/>
        </linearGradient>
        <linearGradient id="ferxnmb2fg" x1="78.601%" x2="43.877%" y1="80.889%" y2="27.36%">
            <stop offset="0%" stop-color="#CDCDCD"/>
            <stop offset="100%" stop-color="#FFF"/>
        </linearGradient>
    </defs>
    <g fill="none" fill-rule="evenodd">
        <g>
            <g transform="translate(-520 -171) translate(520 171)">
                <path fill="url(#fdeqpouvfa)" fill-rule="nonzero" d="M55.67 43.105c-1.376-2.278-3.258-4.21-5.5-5.645-.668-.485-1.398-.878-2.17-1.17-.822-.374-1.673-.682-2.545-.92-.23.115-.47.215-.71.315h-.09v.045c-1.196.465-2.467.704-3.75.705-1.581.003-3.142-.36-4.56-1.06-.72.197-1.426.44-2.115.725l-1.78.88c-4.534 2.585-7.76 6.972-8.875 12.07-.363 1.765-.53 3.564-.5 5.365.002.689.047 1.377.135 2.06 7.288 2.594 15.348 1.842 22.03-2.055.165-.03.24-.08.255-.15 4.408-2.65 7.945-6.53 10.175-11.165z"/>
                <circle cx="32" cy="32" r="32" fill="#8A8A8D" fill-rule="nonzero"/>
                <path fill="url(#hknm00n5gb)" d="M23.575 34.685v-4.8c0-.663.537-1.2 1.2-1.2h4.795c-.195-.858-.294-1.735-.295-2.615 0-.44.025-.878.075-1.315h-1.385v-9.6c0-1.325-1.075-2.4-2.4-2.4h-7.2c-1.325 0-2.4 1.075-2.4 2.4v9.6H12.37c-1.325 0-2.4 1.075-2.4 2.4V46c2.459 3.794 5.85 6.893 9.85 9v-.135c-.033-2.137.17-4.272.605-6.365.562-2.655 1.631-5.176 3.15-7.425.632-.973 1.345-1.891 2.13-2.745.841-.865 1.73-1.681 2.665-2.445h-3.595c-.319.001-.625-.125-.85-.35-.225-.225-.351-.531-.35-.85zm-5.205-16.23c0-.331.269-.6.6-.6h2.1v-2.1c0-.331.269-.6.6-.6h.6c.331 0 .6.269.6.6v2.1h2.1c.16 0 .312.063.424.176.113.112.176.265.176.424v.6c0 .16-.063.312-.176.424-.112.113-.265.176-.424.176h-2.1v2.1c0 .331-.269.6-.6.6h-.6c-.331 0-.6-.269-.6-.6v-2.1h-2.1c-.331 0-.6-.269-.6-.6v-.6zm2 25.875c.001.319-.125.625-.35.85-.225.225-.531.351-.85.35h-4.8c-.663 0-1.2-.537-1.2-1.2v-4.8c.003-.662.538-1.197 1.2-1.2h4.8c.663 0 1.2.537 1.2 1.2v4.8zm0-9.645c.001.319-.125.625-.35.85-.225.225-.531.351-.85.35h-4.8c-.663 0-1.2-.537-1.2-1.2v-4.8c.003-.662.538-1.197 1.2-1.2h4.8c.663 0 1.2.537 1.2 1.2v4.8z"/>
                <path fill="url(#0hbbiuopnc)" d="M15.965 15.155v9.6h12v-9.6c0-1.325-1.075-2.4-2.4-2.4h-7.2c-1.325 0-2.4 1.075-2.4 2.4zm9.605 3.9c0 .16-.063.312-.176.424-.112.113-.265.176-.424.176h-2.1v2.1c0 .331-.269.6-.6.6h-.6c-.331 0-.6-.269-.6-.6v-2.1h-2.1c-.331 0-.6-.269-.6-.6v-.6c0-.331.269-.6.6-.6h2.1v-2.1c0-.16.063-.312.176-.424.112-.113.265-.176.424-.176h.6c.331 0 .6.269.6.6v2.1h2.1c.331 0 .6.269.6.6v.6z"/>
                <path fill="url(#8kazplxd1d)" fill-rule="nonzero" d="M47.15 43.305c-.13.632.091 1.285.578 1.707.487.423 1.165.55 1.772.333.52-.171.929-.58 1.1-1.1.22-.63.071-1.33-.387-1.816-.458-.485-1.149-.674-1.79-.49-.642.185-1.127.711-1.258 1.366h-.015z"/>
                <circle cx="40.895" cy="26.07" r="8.625" fill="url(#brey035dge)" fill-rule="nonzero"/>
                <path fill="url(#mnvzkh32kf)" fill-rule="nonzero" d="M49.79 37.22v3c1.74.45 2.876 2.123 2.649 3.906-.226 1.784-1.744 3.12-3.541 3.12-1.798 0-3.316-1.336-3.542-3.12-.227-1.783.908-3.457 2.649-3.906v-3.94c-.822-.374-1.673-.682-2.545-.92-2.878 1.413-6.247 1.413-9.125 0-.72.197-1.426.44-2.115.725v4.035c2.74.63 4.78 4.08 4.78 8.41 0 .492-.398.89-.89.89h-1.75c-.449.01-.84-.304-.925-.745-.044-.258.028-.523.196-.723.169-.2.417-.316.679-.317h.855c-.26-3.255-1.905-5.865-3.835-5.865s-3.575 2.61-3.83 5.865h.795c.45-.011.843.303.93.745.042.259-.03.523-.2.723-.17.2-.418.316-.68.317H28.55c-.2.095-.437.076-.62-.05-.183-.125-.286-.339-.27-.56-.09-4.46 2-8.045 4.78-8.69v-3.155c-4.534 2.59-7.755 6.983-8.865 12.085-.363 1.765-.53 3.564-.5 5.365.002.689.047 1.377.135 2.06 12.659 4.517 26.684-1.253 32.5-13.37-1.462-2.417-3.495-4.438-5.92-5.885z"/>
                <path fill="url(#ferxnmb2fg)" d="M25.705 38.33c.841-.865 1.73-1.681 2.665-2.445h-3.595c-.319.001-.625-.125-.85-.35-.225-.225-.351-.531-.35-.85v-4.8c0-.663.537-1.2 1.2-1.2h4.795c-.195-.858-.294-1.735-.295-2.615 0-.44.025-.878.075-1.315h-17c-1.325 0-2.4 1.075-2.4 2.4V46c2.459 3.794 5.85 6.893 9.85 9v-.135c-.026-2.138.184-4.273.625-6.365.562-2.655 1.631-5.176 3.15-7.425.632-.973 1.345-1.891 2.13-2.745zm-12.54-8.445c.003-.662.538-1.197 1.2-1.2h4.8c.663 0 1.2.537 1.2 1.2v4.8c.001.319-.125.625-.35.85-.225.225-.531.351-.85.35h-4.8c-.663 0-1.2-.537-1.2-1.2v-4.8zm1.2 15.645c-.663 0-1.2-.537-1.2-1.2v-4.8c.003-.662.538-1.197 1.2-1.2h4.8c.663 0 1.2.537 1.2 1.2v4.8c.001.319-.125.625-.35.85-.225.225-.531.351-.85.35h-4.8z"/>
            </g>
        </g>
    </g>
</svg>
