<svg xmlns="http://www.w3.org/2000/svg" width="64" height="64" viewBox="0 0 64 64">
    <defs>
        <linearGradient id="py3h6zizpa" x1="50%" x2="50%" y1="9.294%" y2="147.413%">
            <stop offset="0%" stop-color="#666" stop-opacity="0"/>
            <stop offset="100%" stop-color="#333"/>
        </linearGradient>
        <linearGradient id="1vqqxkr1jb" x1="98.615%" x2="-120.27%" y1="49.991%" y2="49.991%">
            <stop offset="0%" stop-color="#FFF"/>
            <stop offset="100%" stop-color="#CDCDCD"/>
        </linearGradient>
        <linearGradient id="4dmwcrh2hc" x1="1.385%" x2="220.306%" y1="49.982%" y2="49.982%">
            <stop offset="0%" stop-color="#FFF"/>
            <stop offset="100%" stop-color="#CDCDCD"/>
        </linearGradient>
        <linearGradient id="1lhz9njjzd" x1="0%" x2="0%" y1="1.441%" y2="330.836%">
            <stop offset="0%" stop-color="#FFF"/>
            <stop offset="100%" stop-color="#CDCDCD"/>
        </linearGradient>
        <linearGradient id="l2jch65p6e" x1="50.022%" x2="50.022%" y1="1.441%" y2="330.836%">
            <stop offset="0%" stop-color="#FFF"/>
            <stop offset="100%" stop-color="#CDCDCD"/>
        </linearGradient>
    </defs>
    <g fill="none" fill-rule="evenodd">
        <g>
            <g transform="translate(-712 -690) translate(712 690)">
                <circle cx="32" cy="32" r="32" fill="#666" fill-rule="nonzero"/>
                <path fill="url(#py3h6zizpa)" d="M8.595 43.93C13.07 52.743 22.116 58.294 32 58.294s18.93-5.551 23.405-14.364H8.595z" opacity=".8"/>
                <path fill="#FFF" d="M54.84 28.55H45.7c-1.251-.003-2.271 1.004-2.285 2.255v-7.12c.001-.607-.239-1.19-.667-1.619-.43-.43-1.011-.671-1.618-.671H37.7v-9.14c0-1.262-1.023-2.285-2.285-2.285h-6.86c-.606 0-1.187.24-1.616.67-.428.428-.669 1.009-.669 1.615v9.14h-3.425c-1.263.003-2.285 1.027-2.285 2.29v6.885c-.141-1.141-1.11-1.999-2.26-2H9.16c-.607-.001-1.19.239-1.619.667-.43.43-.671 1.011-.671 1.618v8.835c2.144 7.003 7.103 12.8 13.69 16 1.82.888 3.738 1.559 5.715 2V46.075c0-.632.513-1.145 1.145-1.145h9.14c.304-.001.596.119.811.334.215.215.335.507.334.811v11.58c1.975-.443 3.89-1.114 5.71-2 6.597-3.195 11.566-8.992 13.715-16v-8.82c0-.607-.241-1.189-.671-1.618-.43-.428-1.012-.668-1.619-.667zM28.55 15.11c0-.63.51-1.14 1.14-1.14h4.57c.303-.001.594.118.81.332.214.214.335.505.335.808v1.145c0 .303-.12.594-.336.808-.215.214-.506.333-.809.332h-4.57c-.63 0-1.14-.51-1.14-1.14V15.11zM17.16 41.755c-.001.306-.124.599-.342.813-.218.215-.512.335-.818.332h-4.555c-.631-.003-1.142-.514-1.145-1.145v-1.14c0-.632.513-1.145 1.145-1.145H16c.632 0 1.145.513 1.145 1.145l.015 1.14zm0-6.855c-.001.305-.125.598-.342.812-.218.214-.513.332-.818.328h-4.555c-.63 0-1.142-.51-1.145-1.14v-1.145c.003-.63.515-1.14 1.145-1.14H16c.63 0 1.142.51 1.145 1.14l.015 1.145zm13.3 5.14c.001.303-.118.594-.332.81-.214.214-.505.335-.808.335h-4.575c-.303 0-.594-.12-.808-.336-.214-.215-.333-.506-.332-.809v-4.57c0-.63.51-1.142 1.14-1.145h4.575c.63.003 1.14.515 1.14 1.145v4.57zm0-9.185c.001.303-.118.594-.332.81-.214.214-.505.335-.808.335h-4.575c-.303 0-.594-.12-.808-.336-.214-.215-.333-.506-.332-.809v-4.57c0-.63.51-1.142 1.14-1.145h4.575c.63.003 1.14.515 1.14 1.145v4.57zm9.91 9.185c.001.303-.118.594-.332.81-.214.214-.505.335-.808.335h-4.575c-.306.004-.6-.115-.818-.33-.217-.216-.338-.51-.337-.815v-4.57c0-.63.51-1.142 1.14-1.145h4.575c.63.003 1.14.515 1.14 1.145l.015 4.57zm0-9.185c.001.303-.118.594-.332.81-.214.214-.505.335-.808.335h-4.575c-.306.004-.6-.115-.818-.33-.217-.216-.338-.51-.337-.815v-4.57c0-.63.51-1.142 1.14-1.145h4.575c.63.003 1.14.515 1.14 1.145l.015 4.57zm13.33 10.9c0 .632-.513 1.145-1.145 1.145H48c-.631-.003-1.142-.514-1.145-1.145v-1.14c0-.632.513-1.145 1.145-1.145h4.57c.304-.001.596.119.811.334.215.215.335.507.334.811l-.015 1.14zm0-6.855c0 .303-.12.594-.336.808-.215.214-.506.333-.809.332H48c-.63 0-1.142-.51-1.145-1.14v-1.145c.003-.63.515-1.14 1.145-1.14h4.57c.303-.001.594.118.81.332.214.214.335.505.335.808L53.7 34.9z"/>
                <path fill="url(#1vqqxkr1jb)" d="M57.15 39.67v-8.835c.001-.606-.239-1.188-.668-1.617-.429-.429-1.01-.67-1.617-.668h-9.14c-.607-.001-1.19.239-1.619.667-.43.43-.671 1.011-.671 1.618v24.84c6.6-3.195 11.57-8.994 13.715-16.005zm-10.285-5.915c.003-.627.508-1.135 1.135-1.14h4.57c.63 0 1.142.51 1.145 1.14V34.9c-.003.63-.515 1.14-1.145 1.14H48c-.63 0-1.142-.51-1.145-1.14l.01-1.145zm0 6.86c0-.628.507-1.14 1.135-1.145h4.57c.632 0 1.145.513 1.145 1.145v1.14c-.003.631-.514 1.142-1.145 1.145H48c-.631-.003-1.142-.514-1.145-1.145l.01-1.14z"/>
                <path fill="url(#4dmwcrh2hc)" d="M18.295 28.55H9.15c-1.262 0-2.285 1.023-2.285 2.285v8.855c2.149 7.008 7.118 12.805 13.715 16V30.835c0-1.262-1.023-2.285-2.285-2.285zM17.15 41.755c0 .305-.121.597-.337.811-.216.215-.508.335-.813.334h-4.565c-.63-.003-1.14-.515-1.14-1.145v-1.14c-.001-.303.118-.594.332-.81.214-.214.505-.335.808-.335H16c.303 0 .594.12.808.336.214.215.333.506.332.809l.01 1.14zm0-6.855c0 .304-.121.596-.337.81-.216.214-.509.333-.813.33h-4.565c-.302 0-.592-.12-.806-.334-.214-.214-.334-.504-.334-.806v-1.145c0-.63.51-1.14 1.14-1.14H16c.63 0 1.14.51 1.14 1.14l.01 1.145z"/>
                <path fill="#FFF" d="M41.155 21.395H22.87c-.607 0-1.189.241-1.618.671-.428.43-.668 1.012-.667 1.619v32c1.82.888 3.738 1.559 5.715 2v-11.61c-.001-.304.119-.596.334-.811.215-.215.507-.335.811-.334h9.14c.632 0 1.145.513 1.145 1.145v11.58c1.974-.444 3.89-1.115 5.71-2v-32c-.016-1.251-1.034-2.257-2.285-2.26zM30.5 40.04c.001.304-.119.596-.334.811-.215.215-.507.335-.811.334H24.77c-.632 0-1.145-.513-1.145-1.145v-4.57c.003-.631.514-1.142 1.145-1.145h4.57c.306-.004.601.115.82.33.217.215.34.509.34.815v4.57zm0-9.185c.001.307-.12.601-.34.817-.217.215-.513.333-.82.328h-4.57c-.632 0-1.145-.513-1.145-1.145v-4.57c.003-.631.514-1.142 1.145-1.145h4.57c.306-.004.601.115.82.33.217.215.34.509.34.815v4.57zm9.895 9.185c.001.304-.119.596-.334.811-.215.215-.507.335-.811.334h-4.57c-.303 0-.594-.12-.808-.336-.214-.215-.333-.506-.332-.809v-4.57c0-.63.51-1.142 1.14-1.145h4.57c.304 0 .595.12.81.335.214.215.335.506.335.81v4.57zm0-9.185c.001.304-.119.596-.334.811-.215.215-.507.335-.811.334h-4.57c-.303 0-.594-.12-.808-.336-.214-.215-.333-.506-.332-.809v-4.57c0-.63.51-1.142 1.14-1.145h4.57c.304 0 .595.12.81.335.214.215.335.506.335.81v4.57zM35.435 9.97H28.58c-.606-.001-1.188.239-1.617.668-.429.429-.67 1.01-.668 1.617v9.14h11.43v-9.14c0-.607-.241-1.189-.671-1.618-.43-.428-1.012-.668-1.619-.667zm0 6.285c-.003.63-.515 1.14-1.145 1.14h-4.575c-.63 0-1.142-.51-1.145-1.14V15.11c.003-.63.515-1.14 1.145-1.14h4.57c.63 0 1.142.51 1.145 1.14l.005 1.145z"/>
                <path fill="#FFF" fill-rule="nonzero" d="M26.295 17.925L37.725 17.925"/>
                <path fill="url(#1lhz9njjzd)" fill-rule="nonzero" d="M37.725 17.925H38.725V21.395H37.725z"/>
                <path fill="#FFF" fill-rule="nonzero" d="M26.295 17.925L26.295 21.395 37.72 21.395 37.72 17.925"/>
                <path fill="url(#l2jch65p6e)" fill-rule="nonzero" d="M26.295 17.925H37.72V21.395H26.295z"/>
            </g>
        </g>
    </g>
</svg>
