<svg xmlns="http://www.w3.org/2000/svg" width="64" height="64" viewBox="0 0 64 64">
    <defs>
        <linearGradient id="psfnsdiy5a" x1="49.979%" x2="50.07%" y1="54.029%" y2="10.512%">
            <stop offset="0%" stop-color="#E5E5E5"/>
            <stop offset="24%" stop-color="#F1F1F1"/>
            <stop offset="59%" stop-color="#FCFCFC"/>
            <stop offset="100%" stop-color="#FFF"/>
        </linearGradient>
        <linearGradient id="yi05tixmvb" x1="49.454%" x2="49.544%" y1="54.981%" y2="11.465%">
            <stop offset="0%" stop-color="#E5E5E5"/>
            <stop offset="24%" stop-color="#F1F1F1"/>
            <stop offset="59%" stop-color="#FCFCFC"/>
            <stop offset="100%" stop-color="#FFF"/>
        </linearGradient>
        <linearGradient id="ju8b68n9fc" x1="50.212%" x2="50.268%" y1="55.222%" y2="11.621%">
            <stop offset="0%" stop-color="#E5E5E5"/>
            <stop offset="24%" stop-color="#F1F1F1"/>
            <stop offset="59%" stop-color="#FCFCFC"/>
            <stop offset="100%" stop-color="#FFF"/>
        </linearGradient>
        <linearGradient id="8l2mu2e5kd" x1="49.962%" x2="50.018%" y1="56.368%" y2="12.767%">
            <stop offset="0%" stop-color="#E5E5E5"/>
            <stop offset="24%" stop-color="#F1F1F1"/>
            <stop offset="59%" stop-color="#FCFCFC"/>
            <stop offset="100%" stop-color="#FFF"/>
        </linearGradient>
        <linearGradient id="nbivz2etwe" x1="49.466%" x2="49.522%" y1="55.008%" y2="11.407%">
            <stop offset="0%" stop-color="#E5E5E5"/>
            <stop offset="24%" stop-color="#F1F1F1"/>
            <stop offset="36.067%" stop-color="#EDEDED"/>
            <stop offset="59%" stop-color="#FCFCFC"/>
            <stop offset="100%" stop-color="#FFF"/>
        </linearGradient>
        <linearGradient id="s9ycu4c5bf" x1="50.172%" x2="50.258%" y1="55.245%" y2="11.63%">
            <stop offset="0%" stop-color="#E5E5E5"/>
            <stop offset="24%" stop-color="#F1F1F1"/>
            <stop offset="59%" stop-color="#FCFCFC"/>
            <stop offset="100%" stop-color="#FFF"/>
        </linearGradient>
        <linearGradient id="kd4gmi11fg" x1="49.75%" x2="49.841%" y1="53.883%" y2="10.366%">
            <stop offset="0%" stop-color="#E5E5E5"/>
            <stop offset="24%" stop-color="#F1F1F1"/>
            <stop offset="59%" stop-color="#FCFCFC"/>
            <stop offset="100%" stop-color="#FFF"/>
        </linearGradient>
        <linearGradient id="hio9pbp5kh" x1="49.641%" x2="49.701%" y1="54.189%" y2="10.687%">
            <stop offset="0%" stop-color="#E5E5E5"/>
            <stop offset="24%" stop-color="#F1F1F1"/>
            <stop offset="59%" stop-color="#FCFCFC"/>
            <stop offset="100%" stop-color="#FFF"/>
        </linearGradient>
        <linearGradient id="769evrspai" x1="47.337%" x2="47.398%" y1="69.65%" y2="26.055%">
            <stop offset="0%" stop-color="#E5E5E5"/>
            <stop offset="24%" stop-color="#F1F1F1"/>
            <stop offset="59%" stop-color="#FCFCFC"/>
            <stop offset="100%" stop-color="#FFF"/>
        </linearGradient>
        <linearGradient id="ej9g3ku8mj" x1="48.857%" x2="48.947%" y1="52.338%" y2="8.73%">
            <stop offset="0%" stop-color="#E5E5E5"/>
            <stop offset="24%" stop-color="#F1F1F1"/>
            <stop offset="59%" stop-color="#FCFCFC"/>
            <stop offset="100%" stop-color="#FFF"/>
        </linearGradient>
        <linearGradient id="6rk8weyzxk" x1="49.708%" x2="49.794%" y1="56.333%" y2="12.717%">
            <stop offset="0%" stop-color="#E5E5E5"/>
            <stop offset="24%" stop-color="#F1F1F1"/>
            <stop offset="59%" stop-color="#FCFCFC"/>
            <stop offset="100%" stop-color="#FFF"/>
        </linearGradient>
        <linearGradient id="ustipbev1l" x1="49.518%" x2="49.579%" y1="55.416%" y2="11.914%">
            <stop offset="0%" stop-color="#E5E5E5"/>
            <stop offset="24%" stop-color="#F1F1F1"/>
            <stop offset="59%" stop-color="#FCFCFC"/>
            <stop offset="100%" stop-color="#FFF"/>
        </linearGradient>
        <linearGradient id="0gxdbo0jlm" x1="50.197%" x2="50.253%" y1="54.789%" y2="11.187%">
            <stop offset="0%" stop-color="#E5E5E5"/>
            <stop offset="24%" stop-color="#F1F1F1"/>
            <stop offset="59%" stop-color="#FCFCFC"/>
            <stop offset="100%" stop-color="#FFF"/>
        </linearGradient>
        <linearGradient id="7fdu108l0n" x1="49.051%" x2="49.116%" y1="69.433%" y2="25.938%">
            <stop offset="0%" stop-color="#E5E5E5"/>
            <stop offset="24%" stop-color="#F1F1F1"/>
            <stop offset="59%" stop-color="#FCFCFC"/>
            <stop offset="65.426%" stop-color="#F6F6F6"/>
            <stop offset="100%" stop-color="#FFF"/>
        </linearGradient>
        <linearGradient id="kopuwk73qo" x1="49.692%" x2="49.748%" y1="56.309%" y2="12.708%">
            <stop offset="0%" stop-color="#E5E5E5"/>
            <stop offset="24%" stop-color="#F1F1F1"/>
            <stop offset="59%" stop-color="#FCFCFC"/>
            <stop offset="100%" stop-color="#FFF"/>
        </linearGradient>
        <linearGradient id="j1uud0y8dp" x1="45.707%" x2="45.773%" y1="56.666%" y2="13.17%">
            <stop offset="0%" stop-color="#E5E5E5"/>
            <stop offset="24%" stop-color="#F1F1F1"/>
            <stop offset="59%" stop-color="#FCFCFC"/>
            <stop offset="100%" stop-color="#FFF"/>
        </linearGradient>
        <linearGradient id="1nt4ndq7cq" x1="49.686%" x2="49.747%" y1="53.972%" y2="10.469%">
            <stop offset="0%" stop-color="#E5E5E5"/>
            <stop offset="24%" stop-color="#F1F1F1"/>
            <stop offset="59%" stop-color="#FCFCFC"/>
            <stop offset="100%" stop-color="#FFF"/>
        </linearGradient>
        <linearGradient id="h4lb2xppbr" x1="50.046%" x2="50.107%" y1="56.171%" y2="12.669%">
            <stop offset="0%" stop-color="#E5E5E5"/>
            <stop offset="24%" stop-color="#F1F1F1"/>
            <stop offset="59%" stop-color="#FCFCFC"/>
            <stop offset="100%" stop-color="#FFF"/>
        </linearGradient>
        <linearGradient id="qqqb7kwods" x1="50.496%" x2="50.557%" y1="65.134%" y2="21.54%">
            <stop offset="0%" stop-color="#E5E5E5"/>
            <stop offset="24%" stop-color="#F1F1F1"/>
            <stop offset="59%" stop-color="#FCFCFC"/>
            <stop offset="100%" stop-color="#FFF"/>
        </linearGradient>
        <linearGradient id="jum3tvszht" x1="49.993%" x2="50.079%" y1="54.188%" y2="10.573%">
            <stop offset="0%" stop-color="#E5E5E5"/>
            <stop offset="24%" stop-color="#F1F1F1"/>
            <stop offset="59%" stop-color="#FCFCFC"/>
            <stop offset="100%" stop-color="#FFF"/>
        </linearGradient>
        <linearGradient id="7emscmvvdu" x1="50.253%" x2="50.309%" y1="55.939%" y2="12.338%">
            <stop offset="0%" stop-color="#E5E5E5"/>
            <stop offset="24%" stop-color="#F1F1F1"/>
            <stop offset="59%" stop-color="#FCFCFC"/>
            <stop offset="100%" stop-color="#FFF"/>
        </linearGradient>
        <linearGradient id="o6r536iw2E" x1="45.784%" x2="45.875%" y1="55.197%" y2="11.589%">
            <stop offset="0%" stop-color="#E5E5E5"/>
            <stop offset="24%" stop-color="#F1F1F1"/>
            <stop offset="59%" stop-color="#FCFCFC"/>
            <stop offset="100%" stop-color="#FFF"/>
        </linearGradient>
        <radialGradient id="quycmnt5sv" cx="10.4%" cy="82.5%" r="77.6%" fx="10.4%" fy="82.5%">
            <stop offset="0%" stop-color="#E5E5E5"/>
            <stop offset="24%" stop-color="#F1F1F1"/>
            <stop offset="59%" stop-color="#FCFCFC"/>
            <stop offset="100%" stop-color="#FFF"/>
        </radialGradient>
        <radialGradient id="i4cecxmy7w" cx="51.4%" cy="-19.4%" r="80.2%" fx="51.4%" fy="-19.4%">
            <stop offset="25%" stop-color="#D5D5D5"/>
            <stop offset="34%" stop-color="#E0E0E0"/>
            <stop offset="54%" stop-color="#F1F1F1"/>
            <stop offset="75%" stop-color="#FCFCFC"/>
            <stop offset="100%" stop-color="#FFF"/>
        </radialGradient>
        <radialGradient id="rb7psgr2kx" cx="118.271%" cy="19.418%" r="63.825%" fx="118.271%" fy="19.418%">
            <stop offset="0%" stop-color="#D5D5D5"/>
            <stop offset="39%" stop-color="#E0E0E0"/>
            <stop offset="58%" stop-color="#F1F1F1"/>
            <stop offset="77%" stop-color="#FCFCFC"/>
            <stop offset="100%" stop-color="#FFF"/>
        </radialGradient>
        <radialGradient id="ucig9tzi3y" cx="77%" cy="110.2%" r="97.1%" fx="77%" fy="110.2%">
            <stop offset="16%" stop-color="#D5D5D5"/>
            <stop offset="26%" stop-color="#E0E0E0"/>
            <stop offset="48%" stop-color="#F1F1F1"/>
            <stop offset="72%" stop-color="#FCFCFC"/>
            <stop offset="100%" stop-color="#FFF"/>
        </radialGradient>
        <radialGradient id="r049jgap7z" cx="6.3%" cy="10.4%" r="81.3%" fx="6.3%" fy="10.4%">
            <stop offset="11%" stop-color="#D5D5D5"/>
            <stop offset="22%" stop-color="#E0E0E0"/>
            <stop offset="45%" stop-color="#F1F1F1"/>
            <stop offset="71%" stop-color="#FCFCFC"/>
            <stop offset="100%" stop-color="#FFF"/>
        </radialGradient>
        <radialGradient id="yu99rbi9rA" cx="9.9%" cy="100.8%" r="85.9%" fx="9.9%" fy="100.8%">
            <stop offset="17%" stop-color="#D5D5D5"/>
            <stop offset="27%" stop-color="#E0E0E0"/>
            <stop offset="49%" stop-color="#F1F1F1"/>
            <stop offset="72%" stop-color="#FCFCFC"/>
            <stop offset="100%" stop-color="#FFF"/>
        </radialGradient>
        <radialGradient id="attrpt9ekB" cx="88.1%" cy="95.4%" r="110.4%" fx="88.1%" fy="95.4%">
            <stop offset="9%" stop-color="#D5D5D5"/>
            <stop offset="20%" stop-color="#E0E0E0"/>
            <stop offset="44%" stop-color="#F1F1F1"/>
            <stop offset="70%" stop-color="#FCFCFC"/>
            <stop offset="100%" stop-color="#FFF"/>
        </radialGradient>
        <radialGradient id="3txwykqdeC" cx="74.666%" cy="98.4%" r="108.834%" fx="74.666%" fy="98.4%">
            <stop offset="0%" stop-color="#E5E5E5"/>
            <stop offset="27%" stop-color="#F1F1F1"/>
            <stop offset="60%" stop-color="#FCFCFC"/>
            <stop offset="100%" stop-color="#FFF"/>
        </radialGradient>
        <radialGradient id="vcvkf2083D" cx="56.048%" cy="-6.831%" r="77.532%" fx="56.048%" fy="-6.831%">
            <stop offset="0%" stop-color="#E5E5E5"/>
            <stop offset="36%" stop-color="#F1F1F1"/>
            <stop offset="66%" stop-color="#FCFCFC"/>
            <stop offset="100%" stop-color="#FFF"/>
        </radialGradient>
        <radialGradient id="22m2k78r5F" cx="39%" cy="112.6%" r="89.5%" fx="39%" fy="112.6%">
            <stop offset="15%" stop-color="#D5D5D5"/>
            <stop offset="25%" stop-color="#E0E0E0"/>
            <stop offset="48%" stop-color="#F1F1F1"/>
            <stop offset="72%" stop-color="#FCFCFC"/>
            <stop offset="100%" stop-color="#FFF"/>
        </radialGradient>
        <radialGradient id="f603she46G" cx="122.626%" cy="73.86%" r="81.81%" fx="122.626%" fy="73.86%">
            <stop offset="0%" stop-color="#D5D5D5"/>
            <stop offset="29%" stop-color="#E0E0E0"/>
            <stop offset="50%" stop-color="#F1F1F1"/>
            <stop offset="73%" stop-color="#FCFCFC"/>
            <stop offset="100%" stop-color="#FFF"/>
        </radialGradient>
        <radialGradient id="s9iesgjuhH" cx="-13.1%" cy="50.7%" r="86.4%" fx="-13.1%" fy="50.7%">
            <stop offset="14%" stop-color="#D5D5D5"/>
            <stop offset="24%" stop-color="#E0E0E0"/>
            <stop offset="47%" stop-color="#F1F1F1"/>
            <stop offset="71%" stop-color="#FCFCFC"/>
            <stop offset="100%" stop-color="#FFF"/>
        </radialGradient>
        <radialGradient id="0mdtulwvwI" cx="14.4%" cy="-11.7%" r="98.4%" fx="14.4%" fy="-11.7%">
            <stop offset="21%" stop-color="#D5D5D5"/>
            <stop offset="31%" stop-color="#E0E0E0"/>
            <stop offset="52%" stop-color="#F1F1F1"/>
            <stop offset="74%" stop-color="#FCFCFC"/>
            <stop offset="100%" stop-color="#FFF"/>
        </radialGradient>
    </defs>
    <g fill="none" fill-rule="evenodd">
        <g fill-rule="nonzero">
            <g transform="translate(-56 -829) translate(56 829)">
                <circle cx="32" cy="32" r="32" fill="#007A7F"/>
                <path fill="#EAEAEA" d="M38.615 51.925h-13l-10.5-7.65-4-12.375 4-12.37 10.525-7.65h13l10.53 7.65 4 12.37-4 12.375-10.555 7.65zm-12.36-2H37.97l9.47-6.885 3.62-11.14-3.62-11.135-9.47-6.885H26.255l-9.475 6.885L13.165 31.9l3.615 11.14 9.475 6.885z"/>
                <path fill="#FFF" d="M23.568 44.381H40.088V45.881H23.568z" transform="rotate(-44.49 31.828 45.13)"/>
                <path fill="#FFF" d="M37.39 40.02L21.33 32.14 37.94 25.545 38.495 26.94 25.03 32.285 38.05 38.67z"/>
                <path fill="#FFF" d="M48.23 44.305L36.95 39.845 37.455 26.53 26.45 14.82 23.925 32.32 22.44 32.105 25.41 11.525 38.98 25.96 38.49 38.845 48.78 42.91z"/>
                <path fill="#BFBFBF" d="M37.351 39.332H38.851V50.697H37.351z" transform="rotate(-3.91 38.1 45.014)"/>
                <path fill="#FFF" d="M35.5 40.5l-8.54 8.36c.465.212.854.56 1.115 1l8.465-8.31c-.445-.237-.807-.603-1.04-1.05zM25.64 32.58c-.07.505-.294.976-.64 1.35l10.25 5.04c.074-.508.305-.98.66-1.35l-10.27-5.04zM36.28 27.82c-.324-.396-.516-.884-.55-1.395L25.105 30.64c.322.398.514.885.55 1.395L36.28 27.82zM24.265 30l2.07-14.335c-.134.023-.27.037-.405.04-.375-.003-.744-.09-1.08-.255l-2.07 14.31c.132-.023.266-.037.4-.04.378.01.75.106 1.085.28zM46 43.43c.033-.511.225-.999.55-1.395L40.19 39.5c-.034.51-.226.999-.55 1.395L46 43.43zM37.145 24l-9.035-9.605c-.255.45-.642.81-1.11 1.03l9.055 9.61c.249-.449.63-.81 1.09-1.035zM37.38 28.6l-.32 8.355c.214-.064.436-.098.66-.1.287.003.571.056.84.155l.32-8.355c-.214.064-.436.097-.66.1-.287-.003-.571-.056-.84-.155zM49.41 31.5c.039-.51.232-.994.555-1.39l-9.26-3.685c-.034.51-.226.999-.55 1.395l9.255 3.68zM40.63 25.65l5.95-3.625c-.387-.336-.66-.783-.785-1.28l-5.95 3.625c.387.336.66.783.785 1.28z"/>
                <path fill="#BFBFBF" d="M23.82 32.605L22.545 31.82 28.725 22.495 29.385 22.905z"/>
                <path fill="#FFF" d="M21.27 33.82l-4.7 7.39c.492.128.934.404 1.265.79l4.7-7.39c-.493-.127-.935-.403-1.265-.79z"/>
                <path fill="url(#psfnsdiy5a)" d="M22.78 27.323H24.28V32.318H22.78z" transform="rotate(8.07 23.53 29.82)"/>
                <path fill="url(#yi05tixmvb)" d="M23.962 30.466H25.462V35.461H23.962z" transform="rotate(116.05 24.712 32.964)"/>
                <path fill="url(#ju8b68n9fc)" d="M35.163 35.96H36.663V40.955H35.163z" transform="rotate(-63.95 35.913 38.457)"/>
                <path fill="url(#8l2mu2e5kd)" d="M35.283 38.509H36.783V43.504H35.283z" transform="rotate(-134.5 36.033 41.006)"/>
                <path fill="url(#nbivz2etwe)" d="M38.945 37.628H40.445V42.623H38.945z" transform="rotate(111.58 39.695 40.126)"/>
                <path fill="url(#s9ycu4c5bf)" d="M45.764 40.323H47.264V45.318H45.764z" transform="rotate(-68.42 46.514 42.82)"/>
                <path fill="url(#kd4gmi11fg)" d="M26.612 47.018H28.112V52.013H26.612z" transform="rotate(45.5 27.362 49.515)"/>
                <path fill="url(#hio9pbp5kh)" d="M24.688 28.819H26.188V33.814H24.688z" transform="rotate(68.37 25.438 31.316)"/>
                <path fill="url(#769evrspai)" d="M21.273 31.534H22.773V36.528999999999996H21.273z" transform="rotate(-147.58 22.023 34.031)"/>
                <path fill="#BFBFBF" d="M28.63 22.84L25.225 13.405 26.65 12.94 29.46 22.565z"/>
                <path fill="url(#ej9g3ku8mj)" d="M16.365 39.262H17.865V44.257H16.365z" transform="rotate(32.42 17.115 41.76)"/>
                <path fill="url(#6rk8weyzxk)" d="M24.886 12.755H26.386V17.75H24.886z" transform="rotate(-171.74 25.636 15.253)"/>
                <path fill="#BFBFBF" d="M37.945 26.945L28.91 23.07 29.21 22.295 38.49 25.545z"/>
                <path fill="url(#ustipbev1l)" d="M26.471 12.048H27.971V17.043H26.471z" transform="rotate(136.88 27.221 14.546)"/>
                <path fill="url(#0gxdbo0jlm)" d="M36.181 22.373H37.681V27.368000000000002H36.181z" transform="rotate(-43.12 36.93 24.871)"/>
                <path fill="url(#7fdu108l0n)" d="M35.618 24.487H37.118V29.482H35.618z" transform="rotate(-111.63 36.368 26.985)"/>
                <path fill="url(#kopuwk73qo)" d="M37.39 25.699H38.89V30.694000000000003H37.39z" transform="rotate(-177.85 38.14 28.196)"/>
                <path fill="url(#j1uud0y8dp)" d="M39.312 24.477H40.812999999999995V29.476H39.312z" transform="rotate(111.695 40.063 26.977)"/>
                <path fill="#BFBFBF" d="M18.804 19.139H20.304V33.214H18.804z" transform="rotate(-31 19.554 26.177)"/>
                <path fill="url(#1nt4ndq7cq)" d="M39.19 22.69H40.69V27.685000000000002H39.19z" transform="rotate(58.71 39.94 25.187)"/>
                <path fill="url(#h4lb2xppbr)" d="M45.721 18.722H47.221V23.717000000000002H45.721z" transform="rotate(-121.29 46.471 21.22)"/>
                <path fill="url(#qqqb7kwods)" d="M49.085 28.346H50.585V33.341H49.085z" transform="rotate(-68.42 49.835 30.844)"/>
                <path fill="url(#jum3tvszht)" d="M37.055 34.647H38.555V39.641999999999996H37.055z" transform="rotate(2.15 37.805 37.145)"/>
                <path fill="#FFF" d="M16.898 26.575H18.398V37.644999999999996H16.898z" transform="rotate(-88.9 17.648 32.11)"/>
                <path fill="#BFBFBF" d="M16.07 44.345L15.795 42.87 27.285 41.03 27.445 41.905z"/>
                <path fill="url(#7emscmvvdu)" d="M20.206 29.662H21.706V34.657H20.206z" transform="rotate(-88.71 20.956 32.16)"/>
                <path fill="#BFBFBF" d="M27.025 41.595L22.5 32.52 23.865 31.905 27.745 41.3z"/>
                <path fill="#BFBFBF" d="M27.445 41.905L27.285 41.03 37.565 38.61 37.87 40.08z"/>
                <circle cx="23.18" cy="32.215" r="2.5" fill="url(#quycmnt5sv)"/>
                <path fill="#BFBFBF" d="M26.675 51.23L25.19 51.01 26.935 41.405 27.81 41.505zM38.25 39.875L37.185 38.815 43.07 33.5 43.56 33.98z"/>
                <path fill="#BFBFBF" d="M43.405 34.155L43.195 33.29 51.715 30.93 52.065 32.39z"/>
                <path fill="#BFBFBF" d="M42.985 33.94L37.595 26.665 38.84 25.825 43.615 33.51z"/>
                <path fill="#BFBFBF" d="M47.84 43.96L42.89 33.94 43.68 33.52 49.17 43.26z"/>
                <circle cx="27.365" cy="41.47" r="1.5" fill="#D3D3D3"/>
                <circle cx="43.3" cy="33.725" r="1.5" fill="#D3D3D3"/>
                <path fill="#BFBFBF" d="M31.553 18.814H44.918V20.314H31.553z" transform="rotate(-89.88 38.235 19.564)"/>
                <circle cx="29.055" cy="22.7" r="1.5" fill="#D3D3D3"/>
                <circle cx="38.245" cy="12.88" r="2.5" fill="url(#i4cecxmy7w)"/>
                <circle cx="48.225" cy="20.145" r="2.5" fill="url(#rb7psgr2kx)"/>
                <circle cx="38.495" cy="50.925" r="2.5" fill="url(#ucig9tzi3y)"/>
                <circle cx="15.93" cy="20.145" r="2.5" fill="url(#r049jgap7z)"/>
                <circle cx="15.93" cy="43.61" r="2.5" fill="url(#yu99rbi9rA)"/>
                <circle cx="48.505" cy="43.61" r="2.5" fill="url(#attrpt9ekB)"/>
                <circle cx="37.72" cy="39.345" r="2.5" fill="url(#3txwykqdeC)"/>
                <circle cx="38.22" cy="26.245" r="2.5" fill="url(#vcvkf2083D)"/>
                <path fill="url(#o6r536iw2E)" d="M13.422 29.543H14.922V34.538H13.422z" transform="rotate(91.29 14.171 32.04)"/>
                <circle cx="25.93" cy="51.12" r="2.5" fill="url(#22m2k78r5F)"/>
                <circle cx="51.89" cy="31.66" r="2.5" fill="url(#f603she46G)"/>
                <circle cx="12.11" cy="32" r="2.5" fill="url(#s9iesgjuhH)"/>
                <circle cx="25.935" cy="13.17" r="2.5" fill="url(#0mdtulwvwI)"/>
            </g>
        </g>
    </g>
</svg>
