<svg xmlns="http://www.w3.org/2000/svg" width="64" height="64" viewBox="0 0 64 64">
    <g fill="none" fill-rule="evenodd">
        <g>
            <g transform="translate(-520 -412) translate(520 412)">
                <circle cx="32" cy="32" r="32" fill="#666" fill-rule="nonzero"/>
                <path fill="#FFF" d="M43 14H21.385C18.415 14 16 16.105 16 18.69v26.62c0 2.585 2.415 4.69 5.385 4.69H43c3 0 5.4-2.105 5.4-4.69V18.69C48.4 16.105 46 14 43 14z"/>
                <path fill="#666" d="M42.715 42.64c-.017.283-.145.547-.357.735-.212.187-.49.283-.773.265H36.7c-.283.018-.56-.078-.773-.265-.212-.188-.34-.452-.357-.735v-8.195h-6.735v8.195c-.017.283-.145.547-.357.735-.212.187-.49.283-.773.265H22.82c-.59.037-1.098-.41-1.135-1V21.36c.037-.59.546-1.037 1.135-1h4.885c.283-.018.56.078.773.265.212.188.34.452.357.735v7.185h6.735V21.36c.017-.283.145-.547.357-.735.212-.187.49-.283.773-.265h4.885c.283-.018.56.078.773.265.212.188.34.452.357.735v21.28z"/>
            </g>
        </g>
    </g>
</svg>
