<svg xmlns="http://www.w3.org/2000/svg" xmlns:xlink="http://www.w3.org/1999/xlink" width="64" height="64" viewBox="0 0 64 64">
    <defs>
        <linearGradient id="sgy1dl9r5d" x1="49.988%" x2="49.988%" y1="72.782%" y2="6.114%">
            <stop offset="0%" stop-color="#FFF"/>
            <stop offset="100%" stop-color="#CDCDCD"/>
        </linearGradient>
        <linearGradient id="kktqor6dif" x1="50.01%" x2="50.01%" y1="27.226%" y2="93.888%">
            <stop offset="0%" stop-color="#FFF"/>
            <stop offset="100%" stop-color="#CDCDCD"/>
        </linearGradient>
        <linearGradient id="nochrm45oh" x1="49.988%" x2="49.988%" y1="27.229%" y2="93.889%">
            <stop offset="0%" stop-color="#FFF"/>
            <stop offset="100%" stop-color="#CDCDCD"/>
        </linearGradient>
        <linearGradient id="27ih69iouj" x1="49.991%" x2="49.991%" y1="27.226%" y2="93.888%">
            <stop offset="0%" stop-color="#FFF"/>
            <stop offset="100%" stop-color="#CDCDCD"/>
        </linearGradient>
        <path id="yfyis4y40a" d="M0 0L64 0 64 64 0 64z"/>
        <path id="n3ts2j6tac" d="M0.236 0.026L2.236 0.026 2.236 4.621 0.236 4.621z"/>
        <path id="f6zeveeb2g" d="M0.236 0.072L2.236 0.072 2.236 3.22 0.236 3.22z"/>
    </defs>
    <g fill="none" fill-rule="evenodd">
        <g>
            <g>
                <g>
                    <g transform="translate(-824 -690) translate(824 690)">
                        <mask id="iiq2mcyy2b" fill="#fff">
                            <use xlink:href="#yfyis4y40a"/>
                        </mask>
                        <path fill="#007A7F" d="M64 32c0 17.673-14.327 32-32 32C14.327 64 0 49.673 0 32 0 14.327 14.327 0 32 0c17.673 0 32 14.327 32 32" mask="url(#iiq2mcyy2b)"/>
                    </g>
                    <path fill="#FFF" d="M38.209 12.026H26.192c-1.65 0-2.992 1.168-2.992 2.604v14.79c0 1.437 1.342 2.606 2.992 2.606h12.017c1.65 0 2.991-1.169 2.991-2.605V14.63c0-1.437-1.341-2.605-2.991-2.605" transform="translate(-824 -690) translate(824 690)"/>
                    <path fill="#007A7F" d="M38.042 27.938c0 .302-.281.547-.627.547h-2.716c-.347 0-.628-.245-.628-.547v-4.553h-3.74v4.553c0 .302-.283.547-.63.547h-2.713c-.347 0-.63-.245-.63-.547V16.115c0-.302.283-.548.63-.548h2.714c.346 0 .628.246.628.548v3.99h3.741v-3.99c0-.302.28-.548.628-.548h2.716c.346 0 .627.246.627.548v11.823z" transform="translate(-824 -690) translate(824 690)"/>
                    <path fill="#FFF" d="M42.336 36.647h-9.1v-5.176h-2v5.176h-9.1c-1.738 0-3.152 1.558-3.152 3.472v2.954c0 .553.448 1 1 1s1-.447 1-1V40.12c0-.798.528-1.472 1.152-1.472h9.1v4.912h2v-4.912h9.1c.624 0 1.151.674 1.151 1.472v2.954c0 .553.448 1 1 1 .553 0 1-.447 1-1V40.12c0-1.914-1.413-3.472-3.15-3.472" transform="translate(-824 -690) translate(824 690)"/>
                </g>
                <g transform="translate(-824 -690) translate(824 690) translate(31 32)">
                    <mask id="ckq77hy6ee" fill="#fff">
                        <use xlink:href="#n3ts2j6tac"/>
                    </mask>
                    <path fill="url(#sgy1dl9r5d)" d="M0.236 4.621L2.236 4.621 2.236 0.026 0.236 0.026z" mask="url(#ckq77hy6ee)"/>
                </g>
                <path fill="url(#kktqor6dif)" d="M18.984 42.72L20.984 42.72 20.984 40.118 18.984 40.118z" transform="translate(-824 -690) translate(824 690)"/>
                <g transform="translate(-824 -690) translate(824 690) translate(31 39.5)">
                    <mask id="3vrzw3upci" fill="#fff">
                        <use xlink:href="#f6zeveeb2g"/>
                    </mask>
                    <path fill="url(#nochrm45oh)" d="M0.236 3.22L2.236 3.22 2.236 0.072 0.236 0.072z" mask="url(#3vrzw3upci)"/>
                </g>
                <path fill="url(#27ih69iouj)" d="M43.487 42.72L45.487 42.72 45.487 40.118 43.487 40.118z" transform="translate(-824 -690) translate(824 690)"/>
                <g fill="#FFF">
                    <path d="M29.487 2.06c-1.493 0-2.707 1.214-2.707 2.707 0 1.492 1.214 2.707 2.707 2.707 1.493 0 2.708-1.215 2.708-2.707 0-1.493-1.215-2.708-2.708-2.708m0 7.415c-2.595 0-4.707-2.112-4.707-4.707 0-2.596 2.112-4.708 4.707-4.708 2.596 0 4.708 2.112 4.708 4.708 0 2.595-2.112 4.707-4.708 4.707M17.236 2.06c-1.493 0-2.708 1.214-2.708 2.707 0 1.492 1.215 2.707 2.708 2.707s2.707-1.215 2.707-2.707c0-1.493-1.214-2.708-2.707-2.708m0 7.415c-2.596 0-4.708-2.112-4.708-4.707 0-2.596 2.112-4.708 4.708-4.708 2.595 0 4.707 2.112 4.707 4.708 0 2.595-2.112 4.707-4.707 4.707M4.984 2.06c-1.493 0-2.707 1.214-2.707 2.707 0 1.492 1.214 2.707 2.707 2.707 1.493 0 2.708-1.215 2.708-2.707 0-1.493-1.215-2.708-2.708-2.708m0 7.415C2.39 9.474.277 7.362.277 4.767.277 2.17 2.389.059 4.984.059c2.596 0 4.708 2.112 4.708 4.708 0 2.595-2.112 4.707-4.708 4.707" transform="translate(-824 -690) translate(824 690) translate(15 42.5)"/>
                </g>
            </g>
        </g>
    </g>
</svg>
