<svg xmlns="http://www.w3.org/2000/svg" width="64" height="64" viewBox="0 0 64 64">
    <defs>
        <radialGradient id="8dw86b5gka" cx="-78.825%" cy="50.925%" r="134.375%" fx="-78.825%" fy="50.925%">
            <stop offset="0%" stop-color="#CDCDCD"/>
            <stop offset="100%" stop-color="#FFF"/>
        </radialGradient>
        <linearGradient id="wb4846o7fb" x1="50%" x2="50%" y1="-53.988%" y2="54.007%">
            <stop offset="0%" stop-color="#CDCDCD"/>
            <stop offset="100%" stop-color="#FFF"/>
        </linearGradient>
    </defs>
    <g fill="none" fill-rule="evenodd">
        <g>
            <g transform="translate(-712 -171) translate(712 171)">
                <circle cx="32" cy="32" r="32" fill="#8A8A8D" fill-rule="nonzero"/>
                <path d="M32 11.6c5.71 0 10.34 4.63 10.34 10.34S37.71 32.28 32 32.28s-10.34-4.63-10.34-10.34c.008-5.707 4.633-10.332 10.34-10.34"/>
                <circle cx="32" cy="21.94" r="10" fill="url(#8dw86b5gka)" fill-rule="nonzero"/>
                <path fill="url(#wb4846o7fb)" fill-rule="nonzero" d="M51.68 48.455c-1.363-7.58-6.958-13.704-14.385-15.745-3.34 1.642-7.25 1.642-10.59 0-7.427 2.04-13.022 8.165-14.385 15.745-.115.638.08 1.293.525 1.765 4.96 5.302 11.895 8.31 19.155 8.31 7.26 0 14.195-3.008 19.155-8.31.445-.472.64-1.127.525-1.765z"/>
            </g>
        </g>
    </g>
</svg>
