<svg xmlns="http://www.w3.org/2000/svg" width="64" height="64" viewBox="0 0 64 64">
    <defs>
        <linearGradient id="o995qh9w1a" x1="-258.534%" x2="306.018%" y1="50%" y2="50%">
            <stop offset="0%" stop-color="#FFF"/>
            <stop offset="100%" stop-color="#CDCDCD"/>
        </linearGradient>
    </defs>
    <g fill="none" fill-rule="evenodd">
        <g fill-rule="nonzero">
            <g transform="translate(-520 -551) translate(520 551)">
                <circle cx="32" cy="32" r="32" fill="#666"/>
                <path fill="#FFF" d="M48.545 13.32H18.83c-1.26.003-2.282 1.024-2.285 2.285v4.57h-2.26c-1.26.003-2.282 1.024-2.285 2.285v26.585c1.345 1.576 2.87 2.99 4.545 4.21 10.576 7.677 25.187 6.412 34.285-2.97v-34.68c0-1.262-1.023-2.285-2.285-2.285z"/>
                <path fill="url(#o995qh9w1a)" d="M12 22.46v26.585c1.351 1.586 2.885 3.005 4.57 4.23v-33.1h-2.285c-1.26.003-2.282 1.024-2.285 2.285z"/>
                <path fill="#FFF" d="M50.855 15.605c0-1.262-1.023-2.285-2.285-2.285H18.855c-1.26.003-2.282 1.024-2.285 2.285v37.67c10.576 7.677 25.187 6.412 34.285-2.97v-34.7z"/>
                <rect width="11.39" height="10.995" x="20.69" y="17.43" fill="#666" rx=".855"/>
                <rect width="11.39" height="10.995" x="35.35" y="35.99" fill="#666" rx=".855"/>
                <path fill="#666" d="M36.18 17.43h9.695c.448.034.794.408.794.858 0 .449-.346.823-.794.857H36.18c-.448-.034-.794-.408-.794-.857 0-.45.346-.824.794-.858zM36.18 22.07h9.695c.448.034.794.408.794.857 0 .45-.346.824-.794.858H36.18c-.448-.034-.794-.408-.794-.858 0-.449.346-.823.794-.857zM36.18 26.71h9.695c.448.034.794.408.794.857 0 .45-.346.824-.794.858H36.18c-.448-.034-.794-.408-.794-.858 0-.449.346-.823.794-.857zM21.555 31.35h9.675c.472 0 .855.383.855.855s-.383.855-.855.855h-9.675c-.472 0-.855-.383-.855-.855s.383-.855.855-.855zM21.555 36h9.675c.472 0 .855.383.855.855s-.383.855-.855.855h-9.675c-.472 0-.855-.383-.855-.855s.383-.855.855-.855zM31.25 47h-9.675c-.448-.034-.794-.408-.794-.858 0-.449.346-.823.794-.857h9.675c.322-.025.63.133.8.409.168.275.168.622 0 .897-.17.276-.478.434-.8.409zM31.25 42.34h-9.675c-.448-.034-.794-.408-.794-.858 0-.449.346-.823.794-.857h9.675c.322-.025.63.133.8.409.168.275.168.622 0 .897-.17.276-.478.434-.8.409zM36.18 31.35h9.695c.472 0 .855.383.855.855s-.383.855-.855.855H36.18c-.472 0-.855-.383-.855-.855s.383-.855.855-.855z"/>
            </g>
        </g>
    </g>
</svg>
