<svg width="60" height="60" viewBox="0 0 60 60" fill="none" xmlns="http://www.w3.org/2000/svg">
<path fill-rule="evenodd" clip-rule="evenodd" d="M29.2037 28.5882C32.9201 28.5882 35.9259 25.5502 35.9259 21.7941C35.9259 18.038 32.9201 15 29.2037 15C25.4873 15 22.4815 18.038 22.4815 21.7941C22.4815 25.5518 25.4873 28.5882 29.2037 28.5882ZM29.2037 17.3979C31.6164 17.3979 33.5534 19.3556 33.5534 21.7941C33.5534 24.2326 31.6164 26.1903 29.2037 26.1903C26.791 26.1903 24.854 24.2326 24.854 21.7941C24.854 19.3571 26.791 17.3979 29.2037 17.3979Z" fill="#00857C"/>
<path fill-rule="evenodd" clip-rule="evenodd" d="M19.9286 43H38.1101C38.6209 43 39.1317 42.7598 39.4845 42.4011C39.8373 42.0018 40.0336 41.4824 39.9953 40.924C39.5627 34.6149 34.8503 29.8235 29.0002 29.8235C23.15 29.8235 18.4378 34.5742 18.0051 40.924C17.9652 41.4824 18.1616 42.0018 18.5159 42.4011C18.907 42.8004 19.4178 43 19.9286 43ZM37.6373 40.6043C37.1284 35.7723 33.476 32.2193 29.0383 32.2193C24.601 32.2193 20.9483 35.8129 20.439 40.6043H37.6373Z" fill="#00857C"/>
<circle cx="30" cy="30" r="29" stroke="#00857C" stroke-width="2"/>
</svg>