<svg xmlns="http://www.w3.org/2000/svg" width="64" height="64" viewBox="0 0 64 64">
    <defs>
        <linearGradient id="j1lbucq2ya" x1="36.018%" x2="128.257%" y1="49.901%" y2="50.214%">
            <stop offset="0%" stop-color="#FFF"/>
            <stop offset="100%" stop-color="#CDCDCD"/>
        </linearGradient>
        <linearGradient id="5ffdg7wuhb" x1="88.891%" x2="15.915%" y1="50.07%" y2="50.184%">
            <stop offset="0%" stop-color="#FFF"/>
            <stop offset="100%" stop-color="#CDCDCD"/>
        </linearGradient>
        <linearGradient id="kjmye1c9hc" x1="61.391%" x2="-35.256%" y1="49.918%" y2="50.226%">
            <stop offset="0%" stop-color="#FFF"/>
            <stop offset="100%" stop-color="#CDCDCD"/>
        </linearGradient>
        <linearGradient id="tmrxtejg9d" x1="50%" x2="50%" y1="99.524%" y2=".571%">
            <stop offset="0%" stop-color="#FFF"/>
            <stop offset="100%" stop-color="#CDCDCD"/>
        </linearGradient>
    </defs>
    <g fill="none" fill-rule="evenodd">
        <g>
            <g transform="translate(-632 -412) translate(632 412)">
                <circle cx="32" cy="32" r="32" fill="#007A7F" fill-rule="nonzero"/>
                <path fill="url(#j1lbucq2ya)" d="M11.19 30.73c5.275-.055 7.82-2.675 9.5-4.41.89-.92 1.54-1.585 2.355-1.585.602.036 1.146.367 1.455.885 1.018 1.525 2.491 2.688 4.21 3.325.268.067.458.304.465.58V33.1c-.004.23-.14.437-.35.53-2.028.968-4.252 1.458-6.5 1.43-6.05 0-11.25-3.085-11.465-3.215-.24-.132-.354-.413-.275-.675.092-.264.34-.44.62-.44"/>
                <path fill="#FFF" d="M29.53 39.83l.295-.095c.195-.065.415-.125.65-.19l.19-.045V22.385h-20.12c3.1-4.79 10.715-8.245 19.745-8.5-.04-.12-.06-.248-.06-.375 0-.668.542-1.21 1.21-1.21.668 0 1.21.542 1.21 1.21 0 .127-.02.254-.06.375 9.03.275 16.64 3.73 19.74 8.5H32v16.79l.265-.06 1-.23c2.325-.555 2.815-.96 2.815-1.205 0-.045-.05-.125-.2-.23-.19-.12-.393-.219-.605-.295l-.215-.08-.145-.075c-.32-.105-.705-.21-1.14-.31l-.46-.1-.09-.03c-.056-.025-.107-.061-.15-.105-.04-.044-.073-.095-.095-.15-.024-.057-.036-.118-.035-.18-.002-.03-.002-.06 0-.09.062-.246.307-.398.555-.345.41.085.76.17 1.07.25.225.06.435.12.625.18s.385.13.55.2c.16.064.314.138.465.22.468.19.786.63.82 1.135 0 1.175-1.735 1.685-3.5 2.11l-1.035.235-.47.11v6.5l.555-.185c.265-.09.5-.17.675-.25.26-.102.509-.227.745-.375l.165-.125c.04-.037.08-.078.115-.12.027-.035.052-.072.075-.11.019-.033.034-.068.045-.105.003-.033.003-.067 0-.1-.013-.127-.078-.243-.18-.32-.042-.042-.087-.08-.135-.115l-.09-.06-.205-.12-.25-.12c-.09-.045-.19-.085-.295-.125-.03-.011-.059-.026-.085-.045l-.07-.055c-.043-.04-.077-.09-.1-.145-.006-.052-.002-.104.01-.155-.011-.127.031-.253.116-.348.086-.095.206-.15.334-.152.063-.005.127.005.185.03.155.06.29.12.415.175l.29.15c.69.385 1.04.855 1.04 1.405 0 .965-.935 1.5-1.75 1.815-.365.15-.765.285-1.11.395l-.385.125-.095.03V54c0 .265-.28.465-.655.465s-.655-.2-.655-.465v-5.905c-.18.072-.358.154-.53.245l-.185.105c-.475.305-.475.5-.475.605.001.108.032.214.09.305.046.072.101.138.165.195.074.066.152.126.235.18.05.036.094.08.13.13.09.155.09.345 0 .5-.043.064-.101.116-.17.15-.032.02-.068.033-.105.04-.127.031-.261.008-.37-.065-.33-.203-.596-.494-.77-.84-.09-.193-.136-.403-.135-.615-.005-.077-.005-.153 0-.23.014-.074.032-.148.055-.22.097-.249.251-.472.45-.65.118-.106.245-.202.38-.285.08-.053.164-.102.25-.145.173-.097.351-.182.535-.255l.445-.175v-6.615c-.21.055-.395.11-.56.16l-.285.09c-1.12.39-1.205.68-1.205.76 0 .047.01.093.03.135.031.058.07.112.115.16l.08.07c.065.057.135.107.21.15.032.026.068.047.105.065.07.04.155.085.245.125.148.073.3.136.455.19.057.023.11.057.155.1.035.031.064.068.085.11.07.12.08.266.03.395-.093.238-.36.358-.6.27-.86-.32-1.845-.815-1.845-1.77 0-.955 1.04-1.365 1.825-1.635"/>
                <path fill="url(#5ffdg7wuhb)" d="M30.29 13.84c-9.03.27-16.645 3.725-19.745 8.5H30.3V13.8h2.3"/>
                <path fill="url(#kjmye1c9hc)" d="M33.58 33.1v-3.575c.008-.277.2-.515.47-.58 1.732-.628 3.217-1.793 4.24-3.325.306-.513.844-.843 1.44-.885.82 0 1.5.665 2.375 1.585 1.7 1.735 4.265 4.355 9.575 4.41.281-.003.533.174.625.44.077.262-.037.542-.275.675-.22.13-5.455 3.215-11.55 3.215-2.264.027-4.504-.462-6.55-1.43-.208-.095-.344-.301-.35-.53"/>
                <path fill="#FFF" d="M32.68 52.07c.045-.04.098-.071.155-.09.152-.05.319-.036.46.04.645.35.96.76.96 1.255-.001.054-.015.107-.04.155-.041.075-.104.136-.18.175-.084.047-.179.07-.275.07-.156.006-.305-.06-.405-.18-.054-.06-.084-.139-.085-.22 0-.13-.05-.335-.5-.59-.104-.044-.18-.134-.208-.243-.026-.11 0-.226.073-.312.02-.023.041-.043.065-.06"/>
                <path fill="url(#tmrxtejg9d)" fill-rule="nonzero" d="M30.69 22.385H32V38.150000000000006H30.69z"/>
            </g>
        </g>
    </g>
</svg>
