<svg xmlns="http://www.w3.org/2000/svg" width="64" height="64" viewBox="0 0 64 64">
    <defs>
        <radialGradient id="nq00qjzlfa" cx="-78.825%" cy="50.925%" r="134.375%" fx="-78.825%" fy="50.925%">
            <stop offset="0%" stop-color="#CDCDCD"/>
            <stop offset="100%" stop-color="#FFF"/>
        </radialGradient>
        <linearGradient id="8bnpozbt5b" x1="-56.773%" x2="44.039%" y1="49.999%" y2="49.999%">
            <stop offset="0%" stop-color="#CDCDCD"/>
            <stop offset="100%" stop-color="#FFF"/>
        </linearGradient>
    </defs>
    <g fill="none" fill-rule="evenodd">
        <g fill-rule="nonzero">
            <g transform="translate(-56 -171) translate(56 171)">
                <circle cx="32" cy="32" r="32" fill="#38CDB8"/>
                <path fill="#FFF" d="M39.21 42.335c0 .838.505 1.593 1.279 1.913.774.32 1.665.142 2.256-.451.592-.593.768-1.484.446-2.258-.322-.773-1.078-1.276-1.916-1.274-1.14.005-2.062.93-2.065 2.07z"/>
                <circle cx="32" cy="21.94" r="10" fill="url(#nq00qjzlfa)"/>
                <path fill="url(#8bnpozbt5b)" d="M51.68 48.455c-1.021-5.668-4.436-10.62-9.37-13.59v3.5c2.02.52 3.337 2.46 3.075 4.53-.262 2.068-2.022 3.62-4.107 3.62-2.086 0-3.846-1.552-4.108-3.62-.262-2.07 1.056-4.01 3.075-4.53V33.78c-.955-.434-1.943-.791-2.955-1.07-3.336 1.639-7.244 1.639-10.58 0-.834.225-1.653.506-2.45.84v4.675c3.175.735 5.54 4.735 5.54 9.775-.019.556-.474.998-1.03 1h-2.085c-.572 0-1.035-.463-1.035-1.035 0-.572.463-1.035 1.035-1.035h1c-.3-3.775-2.205-6.8-4.445-6.8s-4.145 3-4.445 6.8h1c.572 0 1.035.463 1.035 1.035 0 .572-.463 1.035-1.035 1.035h-2.11c-.558 0-1.016-.442-1.035-1 0-5 2.365-9 5.54-9.75v-3.675c-5.194 2.925-8.813 8.014-9.87 13.88-.115.638.08 1.293.525 1.765 4.96 5.302 11.895 8.31 19.155 8.31 7.26 0 14.195-3.008 19.155-8.31.445-.472.64-1.127.525-1.765z"/>
            </g>
        </g>
    </g>
</svg>
