<svg viewBox="0 0 18 16" xmlns="http://www.w3.org/2000/svg">
  <path fill="white" d="M2.84033 14.7212H15.1523C16.8296 14.7212 17.7378 13.813 17.7378 12.1504V3.28809C17.7378 1.62549 16.8296 0.717285 15.1523 0.717285H2.84033C1.17041 0.717285 0.254883 1.62549 0.254883 3.28809V12.1504C0.254883 13.813 1.17041 14.7212 2.84033 14.7212ZM3.04541 12.8315C2.45947 12.8315 2.14453 12.5459 2.14453 11.9233V3.51514C2.14453 2.89258 2.45947 2.60693 3.04541 2.60693H14.9473C15.5332 2.60693 15.8481 2.89258 15.8481 3.51514V11.9233C15.8481 12.5459 15.5332 12.8315 14.9473 12.8315H3.04541ZM4.43701 5.33887H5.19141C5.50635 5.33887 5.77734 5.0752 5.77734 4.75293C5.77734 4.42334 5.50635 4.16699 5.19141 4.16699H4.43701C4.12207 4.16699 3.8584 4.42334 3.8584 4.75293C3.8584 5.06787 4.12207 5.33887 4.43701 5.33887ZM7.14697 5.26562H13.6069C13.8926 5.26562 14.1196 5.03857 14.1196 4.75293C14.1196 4.46729 13.8926 4.24023 13.6069 4.24023H7.14697C6.86865 4.24023 6.6416 4.46729 6.6416 4.75293C6.6416 5.03857 6.86133 5.26562 7.14697 5.26562ZM4.43701 7.66797H5.19141C5.50635 7.66797 5.77734 7.41162 5.77734 7.08936C5.77734 6.76709 5.51367 6.50342 5.19141 6.50342H4.43701C4.12207 6.50342 3.8584 6.76709 3.8584 7.08936C3.8584 7.41162 4.12207 7.66797 4.43701 7.66797ZM7.14697 7.59473H13.6069C13.8926 7.59473 14.1196 7.375 14.1196 7.08936C14.1196 6.80371 13.8926 6.56934 13.6069 6.56934H7.14697C6.86865 6.56934 6.6416 6.79639 6.6416 7.08936C6.6416 7.36768 6.86133 7.59473 7.14697 7.59473Z"/>
</svg>
