<svg viewBox="0 0 16 16" xmlns="http://www.w3.org/2000/svg">
  <path fill="#B0ADAB" fill-rule="evenodd" clip-rule="evenodd" d="M15.2609 13.9377L11.1378 9.84536C11.9686 8.67613 12.3993 7.19921 12.1839 5.62998C11.8147 2.98382 9.66087 0.891514 6.98395 0.64536C3.35318 0.276129 0.276256 3.35305 0.645487 7.01459C0.891641 9.66075 2.98395 11.8454 5.6301 12.2146C7.19933 12.43 8.67626 11.9992 9.84549 11.1684L13.9378 15.2607C14.1224 15.4454 14.3993 15.4454 14.5839 15.2607L15.2301 14.6146C15.4147 14.43 15.4147 14.1223 15.2609 13.9377ZM2.46087 6.42998C2.46087 4.24536 4.24549 2.46074 6.4301 2.46074C8.61472 2.46074 10.3993 4.24536 10.3993 6.42998C10.3993 8.61459 8.61472 10.3992 6.4301 10.3992C4.24549 10.3992 2.46087 8.64536 2.46087 6.42998Z"/>
</svg>
