<svg viewBox="0 0 16 16" xmlns="http://www.w3.org/2000/svg">
  <path fill="#0070D2" fill-rule="evenodd" clip-rule="evenodd" d="M8.10502 5.846C6.90502 5.846 5.95117 6.79985 5.95117 7.99985C5.95117 9.19985 6.90502 10.1537 8.10502 10.1537C9.30502 10.1537 10.2589 9.19985 10.2589 7.99985C10.2589 6.79985 9.30502 5.846 8.10502 5.846ZM14.5666 9.93831L13.4281 8.98446C13.4896 8.646 13.5204 8.27677 13.5204 7.93831C13.5204 7.59985 13.4896 7.23062 13.4281 6.89216L14.5666 5.93831C14.9358 5.63062 15.0589 5.07677 14.8127 4.646L14.3204 3.78447C14.1358 3.47677 13.7973 3.29216 13.4281 3.29216C13.305 3.29216 13.1819 3.32293 13.0896 3.3537L11.6742 3.87677C11.1204 3.38446 10.505 3.046 9.85887 2.83062L9.61271 1.38447C9.5204 0.892157 9.08963 0.615234 8.59733 0.615234H7.61271C7.1204 0.615234 6.68963 0.892157 6.59733 1.38447L6.35117 2.79985C5.67425 3.01523 5.05887 3.38446 4.50502 3.846L3.08963 3.32293C2.96656 3.29216 2.87425 3.26139 2.75117 3.26139C2.38194 3.26139 2.04348 3.446 1.85886 3.7537L1.36656 4.61523C1.1204 5.046 1.21271 5.59985 1.61271 5.90754L2.75117 6.86139C2.68963 7.19985 2.65886 7.56908 2.65886 7.90754C2.65886 8.27677 2.68963 8.61523 2.75117 8.9537L1.61271 9.90754C1.24348 10.2152 1.1204 10.7691 1.36656 11.1998L1.85886 12.0614C2.04348 12.3691 2.38194 12.5537 2.75117 12.5537C2.87425 12.5537 2.99733 12.5229 3.08963 12.4922L4.50502 11.9691C5.05887 12.4614 5.67425 12.7998 6.3204 13.0152L6.56656 14.4922C6.65886 14.9845 7.05886 15.3229 7.58194 15.3229H8.56656C9.05887 15.3229 9.48963 14.9537 9.58194 14.4614L9.8281 12.9845C10.5358 12.7383 11.1819 12.3691 11.7358 11.846L13.0589 12.3691C13.1819 12.3998 13.305 12.4306 13.4281 12.4306C13.7973 12.4306 14.1358 12.246 14.3204 11.9383L14.7819 11.1383C15.0589 10.7998 14.9358 10.246 14.5666 9.93831ZM8.10502 11.3845C6.2281 11.3845 4.7204 9.87677 4.7204 7.99985C4.7204 6.12293 6.2281 4.61523 8.10502 4.61523C9.98194 4.61523 11.4896 6.12293 11.4896 7.99985C11.4896 9.87677 9.98194 11.3845 8.10502 11.3845Z"/>
</svg>
