<svg viewBox="0 0 18 18" xmlns="http://www.w3.org/2000/svg">
  <path fill="#0070D2" d="M1.21387 9.72754H2.30078C2.60156 12.9473 5.13086 15.4766 8.34375 15.7842V16.8574C8.34375 17.2197 8.63086 17.5137 8.99316 17.5137C9.3623 17.5137 9.64941 17.2197 9.64941 16.8574V15.7842C12.8623 15.4766 15.3916 12.9473 15.6924 9.72754H16.7793C17.1416 9.72754 17.4355 9.44043 17.4355 9.07129C17.4355 8.70215 17.1416 8.42188 16.7793 8.42188H15.6924C15.3916 5.20215 12.8623 2.67285 9.64941 2.37207V1.29199C9.64941 0.922852 9.3623 0.635742 8.99316 0.635742C8.63086 0.635742 8.34375 0.922852 8.34375 1.29199V2.37207C5.13086 2.67285 2.6084 5.20215 2.30078 8.42188H1.21387C0.851562 8.42188 0.557617 8.70215 0.557617 9.07129C0.557617 9.44043 0.851562 9.72754 1.21387 9.72754ZM8.99316 6.48047C9.3623 6.48047 9.64941 6.18652 9.64941 5.82422V4.06055C11.9121 4.34766 13.6689 6.13867 13.9492 8.42188H12.2471C11.8779 8.42188 11.5908 8.70215 11.5908 9.07129C11.5908 9.44043 11.8779 9.72754 12.2471 9.72754H13.9561C13.6689 12.0107 11.9121 13.8018 9.64941 14.0957V12.3184C9.64941 11.9561 9.3623 11.6621 8.99316 11.6621C8.63086 11.6621 8.34375 11.9561 8.34375 12.3184V14.0957C6.08105 13.8018 4.32422 12.0107 4.03711 9.72754H5.74609C6.11523 9.72754 6.40234 9.44043 6.40234 9.07129C6.40234 8.70215 6.11523 8.42188 5.74609 8.42188H4.04395C4.32422 6.13867 6.08105 4.34766 8.34375 4.06055V5.82422C8.34375 6.18652 8.63086 6.48047 8.99316 6.48047Z"/>
</svg>
