<svg viewBox="0 0 16 16" xmlns="http://www.w3.org/2000/svg">
  <path fill="#0070D2" fill-rule="evenodd" clip-rule="evenodd" d="M9.53843 5.846H7.69228V3.99985C7.69228 3.81523 7.5692 3.69216 7.38459 3.69216H6.15382C5.9692 3.69216 5.84613 3.81523 5.84613 3.99985V5.846H3.99997C3.81536 5.846 3.69228 5.96908 3.69228 6.1537V7.38447C3.69228 7.56908 3.81536 7.69216 3.99997 7.69216H5.84613V9.53831C5.84613 9.72293 5.9692 9.846 6.15382 9.846H7.38459C7.5692 9.846 7.69228 9.72293 7.69228 9.53831V7.69216H9.53843C9.72305 7.69216 9.84613 7.56908 9.84613 7.38447V6.1537C9.84613 5.96908 9.72305 5.846 9.53843 5.846ZM15.2615 13.9075L11.723 10.3998C12.4615 9.38446 12.923 8.12293 12.923 6.76908C12.923 3.38446 10.1538 0.615234 6.7692 0.615234C3.38459 0.615234 0.615356 3.38446 0.615356 6.76908C0.615356 10.1537 3.38459 12.9229 6.7692 12.9229C8.12305 12.9229 9.38459 12.4614 10.4 11.7229L13.9384 15.2614C14.123 15.446 14.4 15.446 14.5846 15.2614L15.2307 14.6152C15.4154 14.4306 15.4154 14.1229 15.2615 13.9075ZM6.7692 11.0768C4.39997 11.0768 2.46151 9.13831 2.46151 6.76908C2.46151 4.39985 4.39997 2.46139 6.7692 2.46139C9.13843 2.46139 11.0769 4.39985 11.0769 6.76908C11.0769 9.13831 9.13843 11.0768 6.7692 11.0768Z"/>
</svg>
