<svg width="14" height="14" viewBox="0 0 14 14" fill="none" xmlns="http://www.w3.org/2000/svg">
  <mask id="mask0_2023_2300" style="mask-type:alpha" maskUnits="userSpaceOnUse" x="2" y="2" width="10" height="10">
    <path d="M8.29382 6.98145L11.2469 4.05566C11.411 3.8916 11.411 3.59082 11.2469 3.42676L10.5634 2.74316C10.3993 2.5791 10.0985 2.5791 9.93445 2.74316L7.00867 5.69629L4.05554 2.74316C3.89148 2.5791 3.5907 2.5791 3.42664 2.74316L2.74304 3.42676C2.57898 3.59082 2.57898 3.8916 2.74304 4.05566L5.69617 6.98145L2.74304 9.93457C2.57898 10.0986 2.57898 10.3994 2.74304 10.5635L3.42664 11.2471C3.5907 11.4111 3.89148 11.4111 4.05554 11.2471L7.00867 8.29395L9.93445 11.2471C10.0985 11.4111 10.3993 11.4111 10.5634 11.2471L11.2469 10.5635C11.411 10.3994 11.411 10.0986 11.2469 9.93457L8.29382 6.98145Z" fill="#303030"/>
  </mask>
  <g mask="url(#mask0_2023_2300)">
    <rect width="14" height="14" fill="#303030"/>
  </g>
</svg>
