<svg viewBox="0 0 18 16" xmlns="http://www.w3.org/2000/svg">
  <path fill="white" d="M2.77441 14.626H15.2183C16.8369 14.626 17.7012 13.769 17.7012 12.165V3.27344C17.7012 1.66943 16.8369 0.8125 15.2183 0.8125H2.77441C1.15576 0.8125 0.291504 1.66211 0.291504 3.27344V12.165C0.291504 13.7764 1.15576 14.626 2.77441 14.626ZM2.91357 12.9927C2.26904 12.9927 1.9248 12.6704 1.9248 11.9966V3.44189C1.9248 2.76807 2.26904 2.4458 2.91357 2.4458H15.0791C15.7163 2.4458 16.0679 2.76807 16.0679 3.44189V11.9966C16.0679 12.6704 15.7163 12.9927 15.0791 12.9927H2.91357ZM4.2832 5.26562H5.08887C5.39648 5.26562 5.66748 5.00928 5.66748 4.68701C5.66748 4.37207 5.39648 4.11572 5.08887 4.11572H4.2832C3.96826 4.11572 3.71191 4.37207 3.71191 4.68701C3.71191 5.00195 3.97559 5.26562 4.2832 5.26562ZM7.08105 5.18506H13.7681C14.0464 5.18506 14.2661 4.96533 14.2661 4.68701C14.2661 4.41602 14.0464 4.20361 13.7681 4.20361H7.08105C6.80273 4.20361 6.59033 4.41602 6.59033 4.68701C6.59033 4.96533 6.80273 5.18506 7.08105 5.18506ZM4.2832 7.63867H5.08887C5.39648 7.63867 5.66748 7.38232 5.66748 7.06738C5.66748 6.75244 5.40381 6.48877 5.08887 6.48877H4.2832C3.96826 6.48877 3.71191 6.75244 3.71191 7.06738C3.71191 7.38232 3.96826 7.63867 4.2832 7.63867ZM7.08105 7.55811H13.7681C14.0464 7.55811 14.2661 7.3457 14.2661 7.06738C14.2661 6.78906 14.0464 6.56934 13.7681 6.56934H7.08105C6.81006 6.56934 6.59033 6.78906 6.59033 7.06738C6.59033 7.33838 6.80273 7.55811 7.08105 7.55811Z"/>
</svg>
