<svg viewBox="0 0 16 16" xmlns="http://www.w3.org/2000/svg">
  <path fill="white" d="M14.1437 7.38428L15.1437 6.82178C15.4249 6.66553 15.5812 6.32178 15.4874 5.97803C15.1437 4.66553 14.4249 3.47803 13.4874 2.50928C13.2374 2.29053 12.8624 2.22803 12.5812 2.38428L11.5812 2.97803C11.3312 2.79053 10.8624 2.50928 10.5499 2.38428V1.22803C10.5499 0.915527 10.2999 0.571777 9.98743 0.509277C8.70618 0.165527 7.29993 0.165527 6.01868 0.509277C5.67493 0.603027 5.45618 0.884277 5.45618 1.22803V2.38428C5.14368 2.50928 4.67493 2.79053 4.42493 2.97803L3.42493 2.38428C3.14368 2.22803 2.76868 2.29053 2.51868 2.50928C1.58118 3.47803 0.86243 4.66553 0.51868 5.97803C0.42493 6.32178 0.58118 6.66553 0.86243 6.82178L1.86243 7.38428C1.83118 7.57178 1.83118 7.82178 1.83118 7.97803C1.83118 8.16553 1.83118 8.41553 1.86243 8.57178L0.86243 9.16553C0.58118 9.32178 0.42493 9.66553 0.51868 10.0093C0.86243 11.3218 1.58118 12.5093 2.51868 13.478C2.76868 13.6968 3.14368 13.7593 3.42493 13.603L4.42493 13.0093C4.67493 13.1968 5.14368 13.478 5.45618 13.603V14.7593C5.45618 15.0718 5.70618 15.4155 6.01868 15.478C7.29993 15.8218 8.70618 15.8218 9.98743 15.478C10.3312 15.3843 10.5499 15.103 10.5499 14.7593V13.603C10.8624 13.478 11.3312 13.1968 11.5812 13.0093L12.5812 13.603C12.8624 13.7593 13.2374 13.6968 13.4874 13.478C14.4249 12.5093 15.1437 11.3218 15.4874 10.0093C15.5812 9.66553 15.4249 9.32178 15.1437 9.16553L14.1437 8.57178C14.1749 8.19678 14.1749 7.79053 14.1437 7.38428ZM12.4874 9.38428L13.8624 10.1655C13.6749 10.728 13.1749 11.5405 12.7999 11.978L11.4249 11.1968C10.4249 12.0405 10.2999 12.1343 9.04993 12.5718V14.1655C8.76868 14.1968 8.29993 14.2593 8.01868 14.2593C7.70618 14.2593 7.23743 14.1968 6.95618 14.1655V12.5718C5.70618 12.1343 5.54993 12.0405 4.58118 11.1968L3.20618 11.978C2.83118 11.5405 2.33118 10.728 2.14368 10.1655L3.51868 9.38428C3.26868 8.07178 3.26868 7.91553 3.51868 6.60303L2.14368 5.82178C2.39368 5.16553 2.73743 4.54053 3.20618 4.00928L4.58118 4.79053C5.58118 3.94678 5.70618 3.85303 6.95618 3.41553V1.82178C7.23743 1.79053 7.70618 1.72803 8.01868 1.72803C8.29993 1.72803 8.76868 1.79053 9.04993 1.82178V3.41553C10.2999 3.85303 10.4562 3.94678 11.4249 4.79053L12.7999 4.00928C13.1749 4.44678 13.6749 5.25928 13.8624 5.82178L12.4874 6.60303C12.7374 7.91553 12.7374 8.07178 12.4874 9.38428ZM8.01868 4.97803C6.36243 4.97803 5.01868 6.35303 5.01868 7.97803C5.01868 9.63428 6.36243 10.978 8.01868 10.978C9.64368 10.978 11.0187 9.63428 11.0187 7.97803C11.0187 6.35303 9.64368 4.97803 8.01868 4.97803ZM8.01868 9.47803C7.17493 9.47803 6.51868 8.82178 6.51868 7.97803C6.51868 7.16553 7.17493 6.47803 8.01868 6.47803C8.83118 6.47803 9.51868 7.16553 9.51868 7.97803C9.51868 8.82178 8.83118 9.47803 8.01868 9.47803Z"/>
</svg>