<svg viewBox="0 0 18 19" xmlns="http://www.w3.org/2000/svg">
  <path fill="#008FD2" d="M0.325195 8.05469C0.325195 12.001 3.5332 15.209 7.47949 15.209C8.94727 15.209 10.292 14.7607 11.417 13.9961L15.46 18.0391C15.7061 18.2939 16.0488 18.4082 16.3916 18.4082C17.1387 18.4082 17.6748 17.8457 17.6748 17.1162C17.6748 16.7646 17.5518 16.4395 17.3145 16.1934L13.2979 12.168C14.1328 11.0166 14.6338 9.59277 14.6338 8.05469C14.6338 4.1084 11.4258 0.900391 7.47949 0.900391C3.5332 0.900391 0.325195 4.1084 0.325195 8.05469ZM2.18848 8.05469C2.18848 5.13672 4.55273 2.76367 7.47949 2.76367C10.3975 2.76367 12.7705 5.13672 12.7705 8.05469C12.7705 10.9727 10.3975 13.3457 7.47949 13.3457C4.55273 13.3457 2.18848 10.9727 2.18848 8.05469ZM5.21191 8.74023H9.74707C10.125 8.74023 10.4326 8.43262 10.4326 8.05469C10.4326 7.67676 10.125 7.36914 9.74707 7.36914H5.21191C4.84277 7.36914 4.51758 7.67676 4.52637 8.05469C4.52637 8.43262 4.84277 8.74023 5.21191 8.74023Z"/>
</svg>
