<svg width="78" height="79" viewBox="0 0 78 79" fill="none" xmlns="http://www.w3.org/2000/svg">
<path fill-rule="evenodd" clip-rule="evenodd" d="M38.9995 39.0567C49.7696 39.0567 58.4987 47.8002 58.4987 58.5867C69.2676 58.5867 78 49.8443 78 39.0567C78 28.2725 69.2676 19.5279 58.4987 19.5279C58.4987 30.3154 49.7696 39.0567 38.9995 39.0567ZM19.4993 58.5866C19.4993 69.3741 28.2306 78.1154 38.9995 78.1154C49.7696 78.1154 58.4987 69.3742 58.4987 58.5867L19.4993 58.5866ZM19.4993 58.5866C19.4993 47.8001 28.2306 39.0567 38.9995 39.0567C28.2306 39.0567 19.4991 30.3154 19.4991 19.5279C8.7302 19.5279 0 28.2725 0 39.0567C0 49.8443 8.73034 58.5866 19.4993 58.5866ZM19.4991 19.5279C19.4991 8.74255 28.2306 0 38.9995 0C49.7696 0 58.4987 8.74255 58.4987 19.5279H19.4991Z" fill="#008176"/>
</svg>
