<svg width="28" height="29" viewBox="0 0 28 29" fill="none" xmlns="http://www.w3.org/2000/svg">
<rect y="0.5" width="28" height="28" rx="14" fill="#00857C"/>
<path fill-rule="evenodd" clip-rule="evenodd" d="M18.5 22.5C19.3281 22.5 20 21.8281 20 21V9.99999C20 9.17187 19.3281 8.5 18.5 8.5H16C16 7.39688 15.1031 6.5 14 6.5C12.8969 6.5 12 7.39688 12 8.5H9.5C8.67187 8.5 8 9.17187 8 9.99999V21C8 21.8281 8.67187 22.5 9.5 22.5H18.5ZM14 8.99999C13.725 8.99999 13.5 8.77499 13.5 8.5C13.5 8.225 13.725 8 14 8C14.275 8 14.5 8.225 14.5 8.5C14.5 8.77499 14.275 8.99999 14 8.99999ZM9.5 20.75C9.5 20.8875 9.61248 21 9.75 21H18.25C18.3875 21 18.5 20.8875 18.5 20.75V10.25C18.5 10.1125 18.3875 9.99999 18.25 9.99999H17V11C17 11.275 16.775 11.5 16.5 11.5H11.5C11.225 11.5 11 11.275 11 11V9.99999H9.75C9.61248 9.99999 9.5 10.1125 9.5 10.25V20.75ZM11.5 15.25C11.9156 15.25 12.25 14.9156 12.25 14.5C12.25 14.0844 11.9156 13.75 11.5 13.75C11.0844 13.75 10.75 14.0844 10.75 14.5C10.75 14.9156 11.0844 15.25 11.5 15.25ZM17 14.75C17 14.8875 16.8875 15 16.75 15H13.25C13.1125 15 13 14.8875 13 14.75V14.25C13 14.1125 13.1125 14 13.25 14H16.75C16.8875 14 17 14.1125 17 14.25V14.75ZM11.5 18.25C11.9156 18.25 12.25 17.9156 12.25 17.5C12.25 17.0844 11.9156 16.75 11.5 16.75C11.0844 16.75 10.75 17.0844 10.75 17.5C10.75 17.9156 11.0844 18.25 11.5 18.25ZM17 17.75C17 17.8875 16.8875 18 16.75 18H13.25C13.1125 18 13 17.8875 13 17.75V17.25C13 17.1125 13.1125 17 13.25 17H16.75C16.8875 17 17 17.1125 17 17.25V17.75Z" fill="white"/>
</svg>
