<svg width="16" height="10" viewBox="0 0 16 10" fill="none" xmlns="http://www.w3.org/2000/svg">
<path d="M11.1652 9.87781L15.8744 5.29504C16.0419 5.13209 16.0419 4.86791 15.8744 4.70492L11.1652 0.122191C10.9977 -0.0407302 10.7263 -0.0407302 10.5588 0.122191L9.85756 0.804604C9.68774 0.969867 9.69053 1.2387 9.86374 1.4006L12.7478 4.09596H0.428763C0.19198 4.09596 0 4.28278 0 4.51321V5.48679C0 5.71722 0.19198 5.90404 0.428763 5.90404H12.7478L9.86381 8.5994C9.69053 8.7613 9.68774 9.03013 9.8576 9.1954L10.5588 9.87781C10.7263 10.0407 10.9978 10.0407 11.1652 9.87781Z" fill="#00857C"/>
</svg>
