<svg width="16" height="16" viewBox="0 0 16 16" fill="none" xmlns="http://www.w3.org/2000/svg">
<g id="Icon" clip-path="url(#clip0_33260_838)">
<path id="Icon_2" d="M2.68713 14.0011C2.85007 14.164 3.11793 14.1604 3.28536 13.9929L11.9963 5.282L11.8629 9.22723C11.8548 9.46423 12.0429 9.6563 12.2799 9.65305L13.2583 9.63973C13.4919 9.63653 13.6839 9.44457 13.6871 9.21094L13.7765 2.64056C13.7796 2.40696 13.5928 2.22015 13.3592 2.22329L6.78879 2.31273C6.55518 2.31593 6.36322 2.50789 6.36002 2.74149L6.3467 3.71989C6.34348 3.95683 6.53555 4.14495 6.7725 4.13695L10.7178 4.00348L2.00685 12.7144C1.83941 12.8819 1.83577 13.1497 1.9987 13.3126L2.68713 14.0011Z" fill="#5450E4"/>
</g>
<defs>
<clipPath id="clip0_33260_838">
<rect width="16" height="16" fill="white"/>
</clipPath>
</defs>
</svg>
