<svg width="23" height="23" viewBox="0 0 23 23" fill="none" xmlns="http://www.w3.org/2000/svg">
<g id="Icon">
<path id="Icon_2" d="M14.4797 16.3778L19.1889 11.795C19.3563 11.6321 19.3563 11.3679 19.1889 11.2049L14.4796 6.62219C14.3122 6.45927 14.0407 6.45927 13.8733 6.62219L13.172 7.30461C13.0022 7.46987 13.005 7.7387 13.1782 7.9006L16.0623 10.596L3.74322 10.596C3.50643 10.596 3.31445 10.7828 3.31445 11.0132L3.31445 11.9868C3.31445 12.2172 3.50643 12.404 3.74322 12.404L16.0623 12.404L13.1783 15.0994C13.005 15.2613 13.0022 15.5301 13.172 15.6954L13.8733 16.3778C14.0407 16.5407 14.3122 16.5407 14.4797 16.3778Z" fill="white"/>
</g>
</svg>
