<svg width="16" height="17" viewBox="0 0 16 17" fill="none" xmlns="http://www.w3.org/2000/svg">
<g id="Icon">
<path id="Icon_2" d="M13.6863 9.71099L13.7757 3.14058C13.7789 2.90697 13.5921 2.72017 13.3584 2.7233L6.78801 2.81278C6.5544 2.81598 6.36245 3.00793 6.35924 3.24154L6.34593 4.21993C6.34271 4.45688 6.53477 4.64499 6.77173 4.637L10.717 4.50354L2.0061 13.2144C1.83867 13.3819 1.83503 13.6497 1.99796 13.8127L2.68639 14.5011C2.84933 14.664 3.11718 14.6604 3.28461 14.4929L11.9955 5.78205L11.8621 9.72727C11.8541 9.96428 12.0422 10.1563 12.2791 10.1531L13.2575 10.1398C13.4911 10.1366 13.6831 9.94462 13.6863 9.71099Z" fill="#C3C1F5"/>
</g>
</svg>
