<svg width="22" height="25" viewBox="0 0 22 25" fill="none" xmlns="http://www.w3.org/2000/svg">
<path id="Icon" fill-rule="evenodd" clip-rule="evenodd" d="M19.7547 14.2727V10.9555C19.7547 7.35829 17.5409 4.26816 14.2216 3.01801C13.8889 1.57812 12.5706 0.5 10.9999 0.5C9.4291 0.5 8.11071 1.57812 7.77816 3.01801C4.46009 4.26801 2.24506 7.35799 2.24506 10.9555V14.5626L0.272656 16.5085C0.0975538 16.6803 0 16.9123 0 17.1527V19.6104C0 20.1044 0.416496 20.5046 0.93052 20.5046H6.83233C6.83494 22.7116 8.70199 24.5 11.0047 24.5C13.3075 24.5 15.1745 22.7116 15.1772 20.5046H21.0695C21.5835 20.5046 22 20.1044 22 19.6104V17.1527C22 16.9123 21.9024 16.6816 21.7273 16.5085L19.7547 14.2727ZM2.08621 18.5H19.8168L19.819 17.0622L17.6412 14.9423V10.7944C17.6412 7.67605 15.4636 5.11338 12.3527 4.48994V3.8826C12.3527 3.14529 11.7303 2.5 10.9526 2.5C10.1749 2.5 9.55249 3.14529 9.55249 3.8826V4.48994C6.4418 5.11332 4.26401 7.67605 4.26401 10.7944V14.9423L2.08621 17.0622V18.5ZM13.091 20.5H8.91854C8.92374 21.4624 9.86003 22.5 11.0048 22.5C12.1495 22.5 13.0857 21.4624 13.091 20.5Z" fill="black"/>
</svg>
