<svg width="28" height="28" viewBox="0 0 28 28" fill="none" xmlns="http://www.w3.org/2000/svg">
<rect width="28" height="28" rx="14" fill="#00857C"/>
<path fill-rule="evenodd" clip-rule="evenodd" d="M20.5 22C20.775 22 21 21.775 21 21.5V21C21 20.7562 20.825 20.5531 20.5968 20.5093C20.4656 20.1031 20.4656 18.8969 20.5968 18.4906C20.8281 18.4437 21 18.2437 21 18V6.5C21 6.22501 20.775 6 20.5 6H9.49999C8.11874 6 7 7.11874 7 8.49999V19.5C7 20.8812 8.11874 22 9.49999 22H20.5ZM8.5 17.2094V8.49999C8.5 7.94686 8.94686 7.5 9.49999 7.5H19.5V17H9.49999C9.14373 17 8.80624 17.075 8.5 17.2094ZM18 10.75C18 10.8875 17.8875 11 17.75 11H11.25C11.1125 11 11 10.8875 11 10.75V9.74999C11 9.61248 11.1125 9.49999 11.25 9.49999H17.75C17.8875 9.49999 18 9.61248 18 9.74999V10.75ZM17.75 13.5C17.8875 13.5 18 13.3875 18 13.25V12.25C18 12.1125 17.8875 12 17.75 12H11.25C11.1125 12 11 12.1125 11 12.25V13.25C11 13.3875 11.1125 13.5 11.25 13.5H17.75ZM9.49999 20.5H19.3125C19.2281 19.9593 19.2281 19.0406 19.3125 18.5H9.49999C8.95001 18.5 8.5 18.95 8.5 19.5C8.5 20.0531 8.94686 20.5 9.49999 20.5Z" fill="white"/>
</svg>
