<svg width="24" height="24" viewBox="0 0 24 24" fill="none" xmlns="http://www.w3.org/2000/svg">
<g id="Icon">
<path id="Icon_2" fill-rule="evenodd" clip-rule="evenodd" d="M3 4.25806C3 1.9064 4.92378 0 7.29688 0H17.4531C19.8262 0 21.75 1.9064 21.75 4.25806V22.8387C21.75 23.2379 21.5431 23.609 21.2022 23.8216C20.8613 24.0342 20.4341 24.0584 20.071 23.8856L12.5501 20.3079L4.66047 23.8942C4.29767 24.0592 3.87511 24.0297 3.53914 23.8162C3.20317 23.6026 3 23.2343 3 22.8387V4.25806ZM7.29688 2.32258C6.21819 2.32258 5.34375 3.18913 5.34375 4.25806V21.0284L12.0728 17.9696C12.3895 17.8256 12.7545 17.8287 13.0686 17.9782L19.4062 20.9931V4.25806C19.4062 3.18913 18.5318 2.32258 17.4531 2.32258H7.29688Z" fill="#00857C"/>
</g>
</svg>
