<svg width="12" height="16" viewBox="0 0 12 16" fill="none" xmlns="http://www.w3.org/2000/svg">
<path id="Icon" fill-rule="evenodd" clip-rule="evenodd" d="M10.5 16C11.3281 16 12 15.3281 12 14.5V4.12188C12 3.725 11.8406 3.34063 11.5594 3.06249L8.93748 0.440612C8.65623 0.159362 8.27497 0 7.87809 0H1.5C0.671873 0 0 0.671873 0 1.5V14.5C0 15.3281 0.671873 16 1.5 16H10.5ZM10.5 14.5H1.5V1.5H6.49998V4.74999C6.49998 5.16561 6.83436 5.49999 7.24998 5.49999H10.5V14.5ZM7.99998 3.99999H10.3781L7.99998 1.62188V3.99999ZM8.62498 8.99998C8.83122 8.99998 8.99998 8.83122 8.99998 8.62498V7.74998C8.99998 7.54374 8.83122 7.37498 8.62498 7.37498H3.37499C3.16875 7.37498 2.99999 7.54374 2.99999 7.74998V8.62498C2.99999 8.83122 3.16875 8.99998 3.37499 8.99998H8.62498ZM8.99998 11.25C8.99998 11.4562 8.83122 11.625 8.62498 11.625H3.37499C3.16875 11.625 2.99999 11.4562 2.99999 11.25V10.375C2.99999 10.1687 3.16875 9.99998 3.37499 9.99998H8.62498C8.83122 9.99998 8.99998 10.1687 8.99998 10.375V11.25Z" fill="white"/>
</svg>
