<svg width="14" height="17" viewBox="0 0 14 17" fill="none" xmlns="http://www.w3.org/2000/svg">
<path fill-rule="evenodd" clip-rule="evenodd" d="M14 15.4531C14 16.2812 13.3281 16.9531 12.5 16.9531H1.5C0.671873 16.9531 0 16.2812 0 15.4531V4.45312C0 3.62499 0.671873 2.95312 1.5 2.95312H2.99999V1.32812C2.99999 1.12189 3.16875 0.953125 3.37499 0.953125H4.62499C4.83123 0.953125 4.99999 1.12189 4.99999 1.32812V2.95312H8.99998V1.32812C8.99998 1.12189 9.16874 0.953125 9.37498 0.953125H10.625C10.8312 0.953125 11 1.12189 11 1.32812V2.95312H12.5C13.3281 2.95312 14 3.62499 14 4.45312V15.4531ZM1.6875 15.4531H12.3125C12.4156 15.4531 12.5 15.3687 12.5 15.2656V5.95311H1.5V15.2656C1.5 15.3687 1.58438 15.4531 1.6875 15.4531ZM4.62499 9.9531C4.83123 9.9531 4.99999 9.78434 4.99999 9.5781V8.32811C4.99999 8.12187 4.83123 7.95311 4.62499 7.95311H3.37499C3.16875 7.95311 2.99999 8.12187 2.99999 8.32811V9.5781C2.99999 9.78434 3.16875 9.9531 3.37499 9.9531H4.62499ZM7.99998 9.5781C7.99998 9.78434 7.83122 9.9531 7.62498 9.9531H6.37498C6.16875 9.9531 5.99999 9.78434 5.99999 9.5781V8.32811C5.99999 8.12187 6.16875 7.95311 6.37498 7.95311H7.62498C7.83122 7.95311 7.99998 8.12187 7.99998 8.32811V9.5781ZM10.625 9.9531C10.8312 9.9531 11 9.78434 11 9.5781V8.32811C11 8.12187 10.8312 7.95311 10.625 7.95311H9.37498C9.16874 7.95311 8.99998 8.12187 8.99998 8.32811V9.5781C8.99998 9.78434 9.16874 9.9531 9.37498 9.9531H10.625ZM7.99998 12.5781C7.99998 12.7843 7.83122 12.9531 7.62498 12.9531H6.37498C6.16875 12.9531 5.99999 12.7843 5.99999 12.5781V11.3281C5.99999 11.1219 6.16875 10.9531 6.37498 10.9531H7.62498C7.83122 10.9531 7.99998 11.1219 7.99998 11.3281V12.5781ZM4.62499 12.9531C4.83123 12.9531 4.99999 12.7843 4.99999 12.5781V11.3281C4.99999 11.1219 4.83123 10.9531 4.62499 10.9531H3.37499C3.16875 10.9531 2.99999 11.1219 2.99999 11.3281V12.5781C2.99999 12.7843 3.16875 12.9531 3.37499 12.9531H4.62499ZM11 12.5781C11 12.7843 10.8312 12.9531 10.625 12.9531H9.37498C9.16874 12.9531 8.99998 12.7843 8.99998 12.5781V11.3281C8.99998 11.1219 9.16874 10.9531 9.37498 10.9531H10.625C10.8312 10.9531 11 11.1219 11 11.3281V12.5781Z" fill="#00857C"/>
</svg>
