<svg width="14" height="16" viewBox="0 0 14 16" fill="none" xmlns="http://www.w3.org/2000/svg">
<path id="Icon" fill-rule="evenodd" clip-rule="evenodd" d="M14 14.5C14 15.3281 13.3281 16 12.5 16H1.5C0.671873 16 0 15.3281 0 14.5V3.49999C0 2.67187 0.671873 2 1.5 2H2.99999V0.374999C2.99999 0.168762 3.16875 0 3.37499 0H4.62499C4.83123 0 4.99999 0.168762 4.99999 0.374999V2H8.99998V0.374999C8.99998 0.168762 9.16874 0 9.37498 0H10.625C10.8312 0 11 0.168762 11 0.374999V2H12.5C13.3281 2 14 2.67187 14 3.49999V14.5ZM1.6875 14.5H12.3125C12.4156 14.5 12.5 14.4156 12.5 14.3125V4.99999H1.5V14.3125C1.5 14.4156 1.58438 14.5 1.6875 14.5ZM4.62499 8.99998C4.83123 8.99998 4.99999 8.83122 4.99999 8.62498V7.37498C4.99999 7.16875 4.83123 6.99998 4.62499 6.99998H3.37499C3.16875 6.99998 2.99999 7.16875 2.99999 7.37498V8.62498C2.99999 8.83122 3.16875 8.99998 3.37499 8.99998H4.62499ZM7.99998 8.62498C7.99998 8.83122 7.83122 8.99998 7.62498 8.99998H6.37498C6.16875 8.99998 5.99999 8.83122 5.99999 8.62498V7.37498C5.99999 7.16875 6.16875 6.99998 6.37498 6.99998H7.62498C7.83122 6.99998 7.99998 7.16875 7.99998 7.37498V8.62498ZM10.625 8.99998C10.8312 8.99998 11 8.83122 11 8.62498V7.37498C11 7.16875 10.8312 6.99998 10.625 6.99998H9.37498C9.16874 6.99998 8.99998 7.16875 8.99998 7.37498V8.62498C8.99998 8.83122 9.16874 8.99998 9.37498 8.99998H10.625ZM7.99998 11.625C7.99998 11.8312 7.83122 12 7.62498 12H6.37498C6.16875 12 5.99999 11.8312 5.99999 11.625V10.375C5.99999 10.1687 6.16875 9.99998 6.37498 9.99998H7.62498C7.83122 9.99998 7.99998 10.1687 7.99998 10.375V11.625ZM4.62499 12C4.83123 12 4.99999 11.8312 4.99999 11.625V10.375C4.99999 10.1687 4.83123 9.99998 4.62499 9.99998H3.37499C3.16875 9.99998 2.99999 10.1687 2.99999 10.375V11.625C2.99999 11.8312 3.16875 12 3.37499 12H4.62499ZM11 11.625C11 11.8312 10.8312 12 10.625 12H9.37498C9.16874 12 8.99998 11.8312 8.99998 11.625V10.375C8.99998 10.1687 9.16874 9.99998 9.37498 9.99998H10.625C10.8312 9.99998 11 10.1687 11 10.375V11.625Z" fill="black"/>
</svg>
