<svg width="24" height="24" viewBox="0 0 24 24" fill="none" xmlns="http://www.w3.org/2000/svg">
<g id="Calendar">
<path id="Icon" fill-rule="evenodd" clip-rule="evenodd" d="M22.5 21.75C22.5 22.9922 21.4921 24 20.25 24H3.74999C2.50781 24 1.5 22.9922 1.5 21.75V5.25005C1.5 4.00786 2.50781 3.00005 3.74999 3.00005H5.99999V0.56256C5.99999 0.253204 6.25313 6.10352e-05 6.56249 6.10352e-05H8.43748C8.74684 6.10352e-05 8.99998 0.253204 8.99998 0.56256V3.00005H15V0.56256C15 0.253204 15.2531 6.10352e-05 15.5625 6.10352e-05H17.4375C17.7468 6.10352e-05 18 0.253204 18 0.56256V3.00005H20.25C21.4921 3.00005 22.5 4.00786 22.5 5.25005V21.75ZM4.03124 21.75H19.9687C20.1234 21.75 20.25 21.6234 20.25 21.4688V7.50004H3.74999V21.4688C3.74999 21.6234 3.87657 21.75 4.03124 21.75ZM8.43748 13.5C8.74684 13.5 8.99998 13.2469 8.99998 12.9375V11.0625C8.99998 10.7532 8.74684 10.5 8.43748 10.5H6.56249C6.25313 10.5 5.99999 10.7532 5.99999 11.0625V12.9375C5.99999 13.2469 6.25313 13.5 6.56249 13.5H8.43748ZM13.5 12.9375C13.5 13.2469 13.2468 13.5 12.9375 13.5H11.0625C10.7531 13.5 10.5 13.2469 10.5 12.9375V11.0625C10.5 10.7532 10.7531 10.5 11.0625 10.5H12.9375C13.2468 10.5 13.5 10.7532 13.5 11.0625V12.9375ZM17.4375 13.5C17.7468 13.5 18 13.2469 18 12.9375V11.0625C18 10.7532 17.7468 10.5 17.4375 10.5H15.5625C15.2531 10.5 15 10.7532 15 11.0625V12.9375C15 13.2469 15.2531 13.5 15.5625 13.5H17.4375ZM13.5 17.4375C13.5 17.7469 13.2468 18 12.9375 18H11.0625C10.7531 18 10.5 17.7469 10.5 17.4375V15.5625C10.5 15.2532 10.7531 15 11.0625 15H12.9375C13.2468 15 13.5 15.2532 13.5 15.5625V17.4375ZM8.43748 18C8.74684 18 8.99998 17.7469 8.99998 17.4375V15.5625C8.99998 15.2532 8.74684 15 8.43748 15H6.56249C6.25313 15 5.99999 15.2532 5.99999 15.5625V17.4375C5.99999 17.7469 6.25313 18 6.56249 18H8.43748ZM18 17.4375C18 17.7469 17.7468 18 17.4375 18H15.5625C15.2531 18 15 17.7469 15 17.4375V15.5625C15 15.2532 15.2531 15 15.5625 15H17.4375C17.7468 15 18 15.2532 18 15.5625V17.4375Z" fill="#00857C"/>
</g>
</svg>
