<svg width="28" height="28" viewBox="0 0 28 28" fill="none" xmlns="http://www.w3.org/2000/svg">
<rect width="28" height="28" rx="14" fill="#00857C"/>
<path fill-rule="evenodd" clip-rule="evenodd" d="M21 20.5C21 21.3281 20.3281 22 19.5 22H8.5C7.67187 22 7 21.3281 7 20.5V9.49999C7 8.67187 7.67187 8 8.5 8H9.99999V6.375C9.99999 6.16876 10.1688 6 10.375 6H11.625C11.8312 6 12 6.16876 12 6.375V8H16V6.375C16 6.16876 16.1687 6 16.375 6H17.625C17.8312 6 18 6.16876 18 6.375V8H19.5C20.3281 8 21 8.67187 21 9.49999V20.5ZM8.6875 20.5H19.3125C19.4156 20.5 19.5 20.4156 19.5 20.3125V11H8.5V20.3125C8.5 20.4156 8.58438 20.5 8.6875 20.5ZM11.625 15C11.8312 15 12 14.8312 12 14.625V13.375C12 13.1687 11.8312 13 11.625 13H10.375C10.1688 13 9.99999 13.1687 9.99999 13.375V14.625C9.99999 14.8312 10.1688 15 10.375 15H11.625ZM15 14.625C15 14.8312 14.8312 15 14.625 15H13.375C13.1687 15 13 14.8312 13 14.625V13.375C13 13.1687 13.1687 13 13.375 13H14.625C14.8312 13 15 13.1687 15 13.375V14.625ZM17.625 15C17.8312 15 18 14.8312 18 14.625V13.375C18 13.1687 17.8312 13 17.625 13H16.375C16.1687 13 16 13.1687 16 13.375V14.625C16 14.8312 16.1687 15 16.375 15H17.625ZM15 17.625C15 17.8312 14.8312 18 14.625 18H13.375C13.1687 18 13 17.8312 13 17.625V16.375C13 16.1687 13.1687 16 13.375 16H14.625C14.8312 16 15 16.1687 15 16.375V17.625ZM11.625 18C11.8312 18 12 17.8312 12 17.625V16.375C12 16.1687 11.8312 16 11.625 16H10.375C10.1688 16 9.99999 16.1687 9.99999 16.375V17.625C9.99999 17.8312 10.1688 18 10.375 18H11.625ZM18 17.625C18 17.8312 17.8312 18 17.625 18H16.375C16.1687 18 16 17.8312 16 17.625V16.375C16 16.1687 16.1687 16 16.375 16H17.625C17.8312 16 18 16.1687 18 16.375V17.625Z" fill="white"/>
</svg>
