<svg width="16" height="16" viewBox="0 0 16 16" fill="none" xmlns="http://www.w3.org/2000/svg">
<path d="M4.63382 12.8541L7.99975 9.48754L11.366 12.8538C11.5607 13.0485 11.8766 13.0485 12.0716 12.8538L12.8538 12.0716C13.0485 11.8769 13.0485 11.561 12.8538 11.366L9.48724 8.00006L12.8535 4.63382C13.0482 4.43912 13.0482 4.1232 12.8535 3.9282L12.0713 3.146C11.8766 2.95133 11.5607 2.95133 11.3657 3.146L7.99975 6.51257L4.63352 3.14631C4.43882 2.95164 4.1229 2.95164 3.92789 3.14631L3.146 3.9282C2.95133 4.12287 2.95133 4.43882 3.146 4.63382L6.51227 8.00006L3.146 11.3663C2.95133 11.561 2.95133 11.8769 3.146 12.0719L3.9282 12.8541C4.1229 13.0488 4.43882 13.0488 4.63382 12.8541Z" fill="#00857C"/>
</svg>
