<svg width="28" height="29" viewBox="0 0 28 29" fill="none" xmlns="http://www.w3.org/2000/svg">
<rect y="0.5" width="28" height="28" rx="14" fill="#00857C"/>
<path fill-rule="evenodd" clip-rule="evenodd" d="M18.5 11C18.5 13.4844 16.4844 15.5 14 15.5C11.5156 15.5 9.49999 13.4844 9.49999 11C9.49999 8.51562 11.5156 6.5 14 6.5C16.4844 6.5 18.5 8.51562 18.5 11ZM11 11C11 12.6531 12.3468 14 14 14C15.6531 14 17 12.6531 17 11C17 9.34686 15.6531 8 14 8C12.3468 8 11 9.34686 11 11ZM19.5 22.5C20.3281 22.5 21 21.8281 21 21V20.2C21 17.8812 19.1187 16 16.8 16C16.4068 16 16.1031 16.0961 15.762 16.204C15.325 16.3423 14.8266 16.5 14 16.5C13.174 16.5 12.6767 16.3425 12.2403 16.2043C11.899 16.0963 11.5949 16 11.2 16C8.88125 16 7 17.8812 7 20.2V21C7 21.8281 7.67187 22.5 8.5 22.5H19.5ZM8.5 20.2V21H19.5V20.2C19.5 18.7125 18.2875 17.5 16.8 17.5C16.6402 17.5 16.4483 17.5604 16.198 17.6393C15.7286 17.7873 15.0537 18 14 18C12.9546 18 12.2759 17.7873 11.8038 17.6394C11.5519 17.5605 11.3587 17.5 11.2 17.5C9.71249 17.5 8.5 18.7125 8.5 20.2Z" fill="white"/>
</svg>
