<svg width="14" height="14" viewBox="0 0 14 14" fill="none" xmlns="http://www.w3.org/2000/svg">
<path d="M2.2874 13.7956L6.99979 9.08245L11.7126 13.7952C11.9852 14.0677 12.4275 14.0677 12.7005 13.7952L13.7956 12.7001C14.0681 12.4275 14.0681 11.9853 13.7956 11.7122L9.0823 7L13.7952 2.28733C14.0677 2.01475 14.0677 1.57247 13.7952 1.29946L12.7001 0.204402C12.4275 -0.0681341 11.9852 -0.0681341 11.7122 0.204402L6.99979 4.91755L2.28697 0.20483C2.01438 -0.0677069 1.57209 -0.0677069 1.29907 0.20483L0.204409 1.29946C-0.0681362 1.572 -0.0681362 2.01432 0.204409 2.28733L4.91727 7L0.204409 11.7127C-0.0681362 11.9853 -0.0681362 12.4275 0.204409 12.7005L1.2995 13.7956C1.57209 14.0681 2.01438 14.0681 2.2874 13.7956Z" fill="#00857C"/>
</svg>
