<svg width="32" height="32" viewBox="0 0 32 32" fill="none" xmlns="http://www.w3.org/2000/svg">
<g id="dna">
<path id="Icon" d="M5.92493 31.9999C6.43121 31.9999 6.84369 31.6124 6.88116 31.0999C6.89996 30.8187 6.94366 30.4437 7.01867 29.9999H24.9561C25.0311 30.4437 25.0874 30.8375 25.1124 31.1062C25.1561 31.6124 25.5686 31.9999 26.0686 31.9999H27.0374C27.7561 31.9999 28.0249 31.3312 27.9937 30.9499C27.8624 29.1062 26.9749 23.025 21.2124 17.9C20.4249 18.4812 19.5749 19.0374 18.6562 19.5687C19.2249 20.0374 19.7187 20.5187 20.1936 21.0062H11.7249C13.0124 19.7 14.6249 18.4249 16.6812 17.2999C26.4874 11.9062 27.8249 3.49999 27.9999 1.05627C28.0311 0.562499 27.6749 0 27.0374 0H26.0749C25.5686 0 25.1561 0.387511 25.1187 0.900022C25.0999 1.18127 25.0562 1.55627 24.9812 2H7.03741C6.95617 1.55627 6.91241 1.17498 6.88745 0.893736C6.84369 0.387511 6.43121 0 5.93121 0H4.96247C4.32496 0 3.96869 0.568724 3.99994 1.05627C4.16242 3.28747 5.32495 10.6187 13.2437 15.9874C5.33118 21.3375 4.16242 28.6812 3.99994 30.9437C3.96869 31.4374 4.32496 31.9999 4.96247 31.9999H5.92493ZM22.6374 7.99999H9.39367C8.73119 6.95622 8.23742 5.93749 7.87493 4.99999H24.1499C23.7937 5.93749 23.2999 6.95622 22.6374 7.99999ZM15.9999 14.3C14.2874 13.2812 12.9124 12.1562 11.7812 11H20.2437C19.1062 12.15 17.7249 13.275 15.9999 14.3ZM24.0999 26.9999H7.83746C8.19366 26.0687 8.68121 25.0499 9.34368 23.9999H22.5749C23.2374 25.0499 23.7374 26.0624 24.0999 26.9999Z" fill="white"/>
</g>
</svg>
