<svg width="32" height="32" viewBox="0 0 32 32" fill="none" xmlns="http://www.w3.org/2000/svg">
<g id="document">
<path id="Icon" d="M25 31.9999C26.6562 31.9999 27.9999 30.6562 27.9999 28.9999V8.24375C27.9999 7.44999 27.6812 6.68126 27.1187 6.12499L21.875 0.881223C21.3125 0.318725 20.5499 0 19.7562 0H7C5.34375 0 4 1.34375 4 3V28.9999C4 30.6562 5.34375 31.9999 7 31.9999H25ZM25 28.9999H6.99999V2.99999H17V9.49998C17 10.3312 17.6687 11 18.5 11H25V28.9999ZM24.7562 7.99998H20V3.24377L24.7562 7.99998ZM21.25 18C21.6624 18 22 17.6624 22 17.25V15.5C22 15.0875 21.6624 14.75 21.25 14.75H10.75C10.3375 14.75 9.99999 15.0875 9.99999 15.5V17.25C9.99999 17.6624 10.3375 18 10.75 18H21.25ZM21.25 23.2499C21.6624 23.2499 22 22.9124 22 22.4999V20.75C22 20.3375 21.6624 20 21.25 20H10.75C10.3375 20 9.99999 20.3375 9.99999 20.75V22.4999C9.99999 22.9124 10.3375 23.2499 10.75 23.2499H21.25Z" fill="white"/>
</g>
</svg>
