<svg width="190" height="59" viewBox="0 0 190 59" fill="none" xmlns="http://www.w3.org/2000/svg">
<path fill-rule="evenodd" clip-rule="evenodd" d="M28.9643 29.0068C36.9631 29.0068 43.4461 35.5005 43.4461 43.5115C51.444 43.5115 57.9294 37.0186 57.9294 29.0068C57.9294 20.9975 51.444 14.503 43.4461 14.503C43.4461 22.5148 36.9631 29.0068 28.9643 29.0068ZM14.4818 43.5115C14.4818 51.5232 20.9664 58.0153 28.9643 58.0153C36.9631 58.0153 43.4461 51.5232 43.4461 43.5115H14.4818ZM14.4818 43.5115C14.4818 35.5005 20.9664 29.0068 28.9643 29.0068C20.9664 29.0068 14.4818 22.5148 14.4818 14.503C6.48381 14.503 0 20.9975 0 29.0068C0 37.0186 6.48381 43.5115 14.4818 43.5115ZM14.4818 14.503C14.4818 6.49287 20.9664 0 28.9643 0C36.9631 0 43.4461 6.49287 43.4461 14.503H14.4818Z" fill="#0C2340"/>
<path fill-rule="evenodd" clip-rule="evenodd" d="M133.209 22.9593C133.209 21.8025 132.961 18.7038 128.305 18.7038H125.55V27.0512H128.989C131.367 27.0512 133.209 25.169 133.209 22.9593ZM134.45 30.5393L142.707 42.548H135.982L125.55 27.1799V42.548H119.24V13.946H130.311C136.829 13.946 139.519 19.2766 139.519 22.5374C139.519 25.8006 138.277 29.0662 134.45 30.5393ZM179.205 27.2093L188.24 14.2837H181.257L172.306 27.1863L182.698 42.548H189.556L179.205 27.2093ZM165.722 42.548H171.701V14.2217H165.722V42.548ZM140.638 28.2518C140.638 38.8987 151.56 47.4186 163.069 41.7193V35.5918C154.213 41.9028 146.505 35.5799 146.632 28.4973C146.718 23.7904 149.826 19.3156 155.84 18.966C158.797 18.7951 160.8 19.5428 163.069 21.7524V15.3802C154.753 10.3666 140.638 15.8847 140.638 28.2518ZM100.222 13.946V42.548H116.444V37.6981H106.511V30.4225H116.033V25.5273H106.511V18.966H116.444V13.946H100.222ZM88.3005 13.946H97.0117V42.548H90.5568V23.3129L82.2985 42.548L73.6083 23.2891V42.548H67.5845V13.946H76.1934L82.4008 28.75L88.3005 13.946Z" fill="#0C2340"/>
</svg>
