<svg width="16" height="16" viewBox="0 0 16 16" fill="none" xmlns="http://www.w3.org/2000/svg">
<path fill-rule="evenodd" clip-rule="evenodd" d="M14.2857 16C15.2325 16 16 15.2325 16 14.2857V1.71429C16 0.767508 15.2325 0 14.2857 0H1.71429C0.767508 0 0 0.767508 0 1.71429V14.2857C0 15.2325 0.767508 16 1.71429 16H14.2857ZM14.0714 14.2857H1.92857C1.8103 14.2857 1.71429 14.1897 1.71429 14.0714V1.92857C1.71429 1.8103 1.8103 1.71429 1.92857 1.71429H14.0714C14.1897 1.71429 14.2857 1.8103 14.2857 1.92857V14.0714C14.2857 14.1897 14.1897 14.2857 14.0714 14.2857ZM10.7944 6.63414L4.98267 12.4459C4.81533 12.6132 4.54398 12.6132 4.3766 12.4459L3.55409 11.6234C3.38675 11.456 3.38675 11.1847 3.55409 11.0173L9.36586 5.2056L7.2944 5.28209C7.05437 5.2869 6.85714 5.09365 6.85714 4.85359V3.8623C6.85714 3.62563 7.04904 3.43373 7.28571 3.43373L12.1429 3.42857C12.3795 3.42857 12.5714 3.62047 12.5714 3.85714L12.5663 8.71425C12.5663 8.95093 12.3744 9.14282 12.1377 9.14282H11.1465C10.9064 9.14282 10.7131 8.94563 10.7179 8.7056L10.7944 6.63414Z" fill="white"/>
</svg>
