<svg width="19" height="19" viewBox="0 0 19 19" fill="none" xmlns="http://www.w3.org/2000/svg">
<path id="Icon" d="M18.531 10.8161L18.6651 0.960506C18.6698 0.610095 18.3896 0.329893 18.0391 0.334588L8.18348 0.468799C7.83307 0.473605 7.54513 0.761536 7.54033 1.11195L7.52036 2.57953C7.51552 2.93495 7.80362 3.21712 8.15906 3.20513L14.077 3.00494L1.01062 16.0713C0.759472 16.3224 0.754004 16.7242 0.998407 16.9686L2.03105 18.0013C2.27546 18.2457 2.67724 18.2402 2.92838 17.9891L15.9947 4.92271L15.7946 10.8405C15.7826 11.1961 16.0647 11.4841 16.4202 11.4793L17.8878 11.4593C18.2382 11.4545 18.5261 11.1666 18.531 10.8161Z" fill="white"/>
</svg>
