<svg width="35" height="16" viewBox="0 0 35 16" fill="none" xmlns="http://www.w3.org/2000/svg">
<path fill-rule="evenodd" clip-rule="evenodd" d="M16.2612 14.3125L21.32 1H7.65625C3.9801 1 1 3.9801 1 7.65625C1 11.3324 3.9801 14.3125 7.65625 14.3125H16.2612ZM21.7 0H26.925H27.3438C31.5722 0 35 3.42782 35 7.65625C35 7.69447 34.9997 7.73263 34.9992 7.77072C34.9997 7.81186 35 7.8532 35 7.89474C35 9.16049 34.6961 10.2098 34.195 11.0773C32.9388 13.5884 30.3426 15.3125 27.3438 15.3125H7.65625C3.42782 15.3125 0 11.8847 0 7.65625C0 3.42782 3.42782 0 7.65625 0H21.7Z" fill="#00857C"/>
<path fill-rule="evenodd" clip-rule="evenodd" d="M25.6332 7.92011L27.8207 5.71578C27.9216 5.61482 27.9216 5.46338 27.8207 5.36242L27.4841 5.00905C27.3832 4.90809 27.2317 4.90809 27.1308 5.00905L24.9264 7.21338C24.8591 7.28069 24.7582 7.28069 24.6909 7.21338L22.4865 4.99223C22.3856 4.89126 22.2341 4.89126 22.1332 4.99223L21.7798 5.34559C21.6788 5.44655 21.6788 5.59799 21.7798 5.69896L23.9841 7.90328C24.0514 7.97059 24.0514 8.07155 23.9841 8.13886L21.763 10.36C21.662 10.461 21.662 10.6124 21.763 10.7134L22.1163 11.0667C22.2173 11.1677 22.3687 11.1677 22.4697 11.0667L24.674 8.86242C24.7413 8.79511 24.8423 8.79511 24.9096 8.86242L27.1139 11.0667C27.2149 11.1677 27.3663 11.1677 27.4673 11.0667L27.8207 10.7134C27.9216 10.6124 27.9216 10.461 27.8207 10.36L25.6332 8.15569C25.5659 8.08838 25.5659 7.98742 25.6332 7.92011Z" fill="white"/>
<path d="M8.20054 10.4854L5.18645 7.45303C5.07685 7.34342 5.07685 7.16075 5.18645 7.05115L5.58833 6.64927C5.69793 6.53967 5.88061 6.53967 5.99021 6.64927L8.25534 8.93267C8.32841 9.00574 8.45628 9.00574 8.52935 8.93267L12.9683 4.4572C13.0779 4.3476 13.2606 4.3476 13.3702 4.4572L13.772 4.85908C13.8816 4.96868 13.8816 5.15136 13.772 5.26096L8.60242 10.4854C8.49282 10.6133 8.31015 10.6133 8.20054 10.4854Z" fill="#00857C"/>
</svg>
