<svg width="107" height="41" viewBox="0 0 107 41" fill="none" xmlns="http://www.w3.org/2000/svg">
<path d="M40.4127 19.9963C40.4127 14.3967 43.8108 9.43976 49.0457 7.51205C45.2803 2.73867 39.5861 0.0765955 33.5247 0.0765955H20.3915C9.37059 -0.198792 0.186529 8.6136 0.00284772 19.6291C-0.180833 30.6446 8.54402 39.8242 19.5649 40.0077C19.8404 40.0077 20.1159 40.0077 20.3915 40.0077H33.5247C39.5861 40.0077 45.3721 37.2539 49.1376 32.5723C43.9026 30.5528 40.4127 25.5958 40.4127 19.9963Z" fill="#BDD9EA"/>
<path d="M86.6086 0.0766593H73.4754C67.5057 0.0766593 61.8116 2.73874 58.0461 7.32852C65.026 9.62342 68.8833 17.2425 66.4955 24.2189C65.1179 28.258 61.9953 31.379 58.0461 32.6642C61.8116 37.2539 67.5057 39.916 73.4754 39.916H86.6086C97.6294 40.1914 106.813 31.379 106.997 20.3635C107.181 9.34803 98.5478 0.260251 87.527 0.0766593C87.2514 -0.0151364 86.9759 -0.0151364 86.6086 0.0766593Z" fill="#BDD9EA"/>
<path d="M23.0548 11.0922C24.1569 11.0922 25.0753 10.1743 25.0753 9.07273C25.0753 7.97118 24.1569 7.05322 23.0548 7.05322C21.9527 7.05322 21.0343 7.97118 21.0343 9.07273C21.0343 10.1743 21.9527 11.0922 23.0548 11.0922Z" fill="#0E3C60"/>
<path d="M28.4735 24.5863C28.0143 24.6781 27.7387 25.0453 27.6469 25.5043C27.004 27.3402 25.5346 28.7171 23.6978 29.2679C22.8712 29.5433 22.0446 29.5433 21.3099 29.4515C20.116 29.2679 19.0139 28.7171 18.0955 27.891L18.0036 27.7992C17.9118 27.7074 17.82 27.6156 17.7281 27.5238L17.5444 27.2484L17.4526 27.1566C16.9934 26.514 16.626 25.8715 16.3505 25.1371C16.1668 24.3109 16.075 23.393 16.1668 22.475C16.4424 20.5473 17.5444 18.895 19.2894 17.977C19.9323 17.7016 20.2078 17.0591 20.0241 16.4165C19.8405 16.0493 19.4731 15.7739 19.1057 15.6821C18.8302 15.6821 18.6465 15.6821 18.371 15.7739C15.8913 17.0591 14.1463 19.4458 13.779 22.2914C13.5953 23.5766 13.6871 24.8617 14.0545 26.1468C15.3403 30.4612 19.9323 33.0315 24.3406 31.7464C27.004 30.9202 29.0245 28.8089 29.8511 26.1468C29.9429 25.8715 29.9429 25.6879 29.8511 25.4125C29.6674 24.7699 29.0245 24.4945 28.4735 24.5863Z" fill="#0E3C60"/>
<path d="M38.1167 26.2386C37.8411 25.7796 37.2901 25.6878 36.9227 25.8714L35.5451 26.6058L32.147 21.4652C31.9633 21.098 31.5041 20.8226 31.1368 20.8226H24.7079V18.8031H29.2081C29.9429 18.7113 30.4021 18.0688 30.3102 17.3344C30.2184 16.7836 29.7592 16.2329 29.2081 16.2329H24.7079V13.5708C24.7079 12.7446 24.0651 12.1021 23.2385 12.1021C22.4119 12.1021 21.769 12.7446 21.769 13.5708V22.016C21.769 22.7504 22.3201 23.3929 23.0548 23.4847H30.8613L34.0757 28.3499C34.2594 28.6253 34.443 28.7171 34.7186 28.8089C34.8104 28.8089 34.8104 28.8089 34.9022 28.8089C34.9941 28.8089 35.1778 28.8089 35.2696 28.7171H35.3614C35.3614 28.7171 35.3614 28.7171 35.4533 28.7171L37.7493 27.4319C38.1167 27.2484 38.3003 26.6976 38.1167 26.2386Z" fill="#0E3C60"/>
<path d="M59.2401 17.518L48.5865 12.0103C48.5865 14.3051 48.8621 15.7739 50.4234 16.6L55.7501 19.3539L59.2401 17.518Z" fill="#0E3C60"/>
<path d="M60.7095 18.1606L57.2195 19.9966L50.5152 23.4848C48.9539 24.311 48.6783 26.1469 48.6783 28.0746L58.3216 23.0258C60.4339 21.9243 60.7095 20.4555 60.7095 18.1606Z" fill="#0E3C60"/>
<path fill-rule="evenodd" clip-rule="evenodd" d="M73.1998 23.8518C73.1998 23.9436 73.2916 24.0354 73.3835 24.0354H91.2006C91.2924 24.0354 91.3842 23.9436 91.3842 23.8518V7.14502C91.3842 7.05322 91.2924 6.96143 91.2006 6.96143H73.2916C73.1998 6.96143 73.108 7.05322 73.108 7.14502L73.1998 23.8518ZM91.5679 32.2053C91.6598 32.2053 91.7516 32.1135 91.7516 32.0217H91.6598V25.2288C91.6598 25.137 91.5679 25.0452 91.4761 25.0452H72.9243C72.8324 25.0452 72.7406 25.137 72.7406 25.2288V32.0217C72.7406 32.1135 72.8324 32.2053 72.9243 32.2053H91.5679ZM81.5573 28.258H79.7205C79.5368 28.258 79.5368 28.1662 79.5368 28.0744V26.2385C79.5368 26.1467 79.6286 26.0549 79.7205 26.0549H81.5573C81.6491 26.0549 81.741 26.1467 81.741 26.2385V28.0744C81.741 28.1662 81.6491 28.258 81.5573 28.258ZM76.2305 28.9006H74.3937C74.3019 28.9006 74.21 28.9924 74.21 29.0842V30.9201C74.21 31.0119 74.3019 31.1037 74.3937 31.1037H76.2305C76.3224 31.1037 76.4142 31.0119 76.4142 30.9201V29.0842C76.4142 28.9924 76.3224 28.9006 76.2305 28.9006ZM78.0674 28.258H76.2305C76.1387 28.258 76.0469 28.1662 76.0469 28.0744V26.2385C76.0469 26.1467 76.1387 26.0549 76.2305 26.0549H78.0674C78.1592 26.0549 78.251 26.1467 78.251 26.2385V28.0744C78.251 28.1662 78.1592 28.258 78.0674 28.258ZM83.1186 28.258H84.9554C85.0472 28.258 85.1391 28.1662 85.1391 28.0744V26.2385C85.1391 26.1467 85.0472 26.0549 84.9554 26.0549H83.1186C83.0267 26.0549 82.9349 26.1467 82.9349 26.2385V28.0744C82.9349 28.1662 83.0267 28.258 83.1186 28.258ZM88.4453 28.258H86.6085C86.5167 28.258 86.4248 28.1662 86.4248 28.0744V26.2385C86.4248 26.1467 86.5167 26.0549 86.6085 26.0549H88.4453C88.5372 26.0549 88.629 26.1467 88.629 26.2385V28.0744C88.629 28.1662 88.5372 28.258 88.4453 28.258ZM86.6085 28.9006H84.7717C84.6799 28.9006 84.588 28.9924 84.588 29.0842V30.9201C84.588 31.0119 84.6799 31.1037 84.7717 31.1037H86.6085C86.7004 31.1037 86.7922 31.0119 86.7922 30.9201V29.0842C86.7922 28.9924 86.7004 28.9006 86.6085 28.9006ZM77.8837 28.9006H79.7205C79.8123 28.9006 79.9042 28.9924 79.9042 29.0842V30.9201C79.9042 31.0119 79.8123 31.1037 79.7205 31.1037H77.8837C77.7918 31.1037 77.7 31.0119 77.7 30.9201V29.0842C77.7 28.9924 77.7918 28.9006 77.8837 28.9006ZM90.0985 28.9006H88.2617C88.1698 28.9006 88.078 28.9924 88.078 29.0842V30.9201C88.078 31.0119 88.1698 31.1037 88.2617 31.1037H90.0985C90.1903 31.1037 90.2822 31.0119 90.2822 30.9201V29.0842C90.2822 28.9924 90.1903 28.9006 90.0985 28.9006ZM81.2818 28.9006H83.1186C83.3023 28.9006 83.3941 28.9924 83.3023 29.0842V30.9201C83.3023 31.0119 83.2104 31.1037 83.1186 31.1037H81.2818C81.1899 31.1037 81.0981 31.0119 81.0981 30.9201V29.0842C81.0981 28.9924 81.1899 28.9006 81.2818 28.9006ZM75.5877 9.6235V20.9144C75.5877 20.9711 75.6227 20.9928 75.6712 21.0227C75.7012 21.0412 75.7363 21.0629 75.7713 21.098H88.9964C88.9964 21.098 89.0882 21.0062 89.0882 20.9144V9.6235C89.0882 9.53171 88.9964 9.43991 88.9045 9.43991H75.7713C75.6795 9.43991 75.5877 9.53171 75.5877 9.6235Z" fill="#0E3C60"/>
<path d="M102.864 39.6406V37.8047H102.221V37.4375H103.966V37.8047H103.324V39.6406H102.864Z" fill="#0E3C60"/>
<path d="M104.242 39.6406V37.4375H104.885L105.252 38.998L105.62 37.4375H106.354V39.6406H105.987V37.8965L105.528 39.6406H105.069L104.609 37.8965V39.6406H104.242Z" fill="#0E3C60"/>
</svg>
