<svg width="24" height="16" viewBox="0 0 24 16" fill="none" xmlns="http://www.w3.org/2000/svg">
<path d="M8.16173 15.3167L9.21359 14.2931C9.46833 14.0452 9.46414 13.6419 9.20433 13.3991L4.87816 9.35606H23.3569C23.712 9.35606 24 9.07582 24 8.73019V7.26981C24 6.92417 23.712 6.64393 23.3569 6.64393H4.87816L9.20422 2.6009C9.46414 2.35804 9.46833 1.9548 9.21354 1.70691L8.16168 0.683286C7.9105 0.438905 7.5033 0.438905 7.25207 0.683286L0.188343 7.55743C-0.0627811 7.80186 -0.0627811 8.19813 0.188343 8.44261L7.25217 15.3168C7.50335 15.5611 7.91055 15.5611 8.16173 15.3167Z" fill="black"/>
</svg>
