<svg width="19" height="24" viewBox="0 0 19 24" fill="none" xmlns="http://www.w3.org/2000/svg">
<path fill-rule="evenodd" clip-rule="evenodd" d="M0 4.25806C0 1.9064 1.92378 0 4.29688 0H14.4531C16.8262 0 18.75 1.9064 18.75 4.25806V22.8387C18.75 23.2379 18.5431 23.609 18.2022 23.8216C17.8613 24.0342 17.4341 24.0584 17.071 23.8856L9.55012 20.3079L1.66047 23.8942C1.29767 24.0592 0.875107 24.0297 0.539137 23.8162C0.203168 23.6026 0 23.2343 0 22.8387V4.25806ZM4.29688 2.32258C3.21819 2.32258 2.34375 3.18913 2.34375 4.25806V21.0284L9.07283 17.9696C9.38954 17.8256 9.75447 17.8287 10.0686 17.9782L16.4062 20.9931V4.25806C16.4062 3.18913 15.5318 2.32258 14.4531 2.32258H4.29688Z" fill="#00857C"/>
</svg>
