<svg width="14" height="16" viewBox="0 0 14 16" fill="none" xmlns="http://www.w3.org/2000/svg">
<path id="Icon" fill-rule="evenodd" clip-rule="evenodd" d="M14 14.5C14 15.3281 13.3281 16 12.5 16H1.5C0.671873 16 0 15.3281 0 14.5V7.5C0 6.67187 0.671873 6 1.5 6H2.49999V4.5C2.49999 2.01563 4.52498 -0.00624161 7.0125 1.44792e-05C9.49998 0.00627057 11.5 2.05625 11.5 4.54377V6H12.5C13.3281 6 14 6.67187 14 7.5V14.5ZM3.99999 4.5V6H9.99998V4.5C9.99998 2.84687 8.65312 1.50001 6.99998 1.50001C5.34685 1.50001 3.99999 2.84687 3.99999 4.5ZM1.5 14.5V7.5H12.5V14.5H1.5ZM7.87498 12C7.87498 12.4844 7.48436 12.875 6.99998 12.875C6.51561 12.875 6.12499 12.4844 6.12499 12V9.99999C6.12499 9.51562 6.51561 9.12499 6.99998 9.12499C7.48436 9.12499 7.87498 9.51562 7.87498 9.99999V12Z" fill="#A4A4A4"/>
</svg>
