<svg width="16" height="13" viewBox="0 0 16 13" fill="none" xmlns="http://www.w3.org/2000/svg">
<path id="Icon" fill-rule="evenodd" clip-rule="evenodd" d="M15.5714 2.28723C15.8081 2.28723 16 2.11575 16 1.90426V0.882979C16 0.67148 15.8081 0.5 15.5714 0.5H0.428571C0.191895 0.5 0 0.67148 0 0.882979V1.90426C0 2.11575 0.191895 2.28723 0.428571 2.28723H15.5714ZM15.5714 7.39362C15.8081 7.39362 16 7.22214 16 7.01064V5.98936C16 5.77786 15.8081 5.60638 15.5714 5.60638H0.428571C0.191895 5.60638 0 5.77786 0 5.98936V7.01064C0 7.22214 0.191895 7.39362 0.428571 7.39362H15.5714ZM16 12.117C16 12.3285 15.8081 12.5 15.5714 12.5H0.428571C0.191895 12.5 0 12.3285 0 12.117V11.0957C0 10.8842 0.191895 10.7128 0.428571 10.7128H15.5714C15.8081 10.7128 16 10.8842 16 11.0957V12.117Z" fill="black"/>
</svg>
