<svg width="22" height="21" viewBox="0 0 22 21" fill="none" xmlns="http://www.w3.org/2000/svg">
<path id="Icon" d="M3.93109 20.6934L10.9997 13.6237L18.0689 20.6928C18.4778 21.1016 19.1412 21.1016 19.5507 20.6928L21.1934 19.0502C21.6022 18.6413 21.6022 17.9779 21.1934 17.5684L14.1235 10.5L21.1927 3.43099C21.6016 3.02212 21.6016 2.3587 21.1927 1.94919L19.5501 0.306604C19.1412 -0.102201 18.4778 -0.102201 18.0683 0.306604L10.9997 7.37632L3.93045 0.307244C3.52157 -0.10156 2.85813 -0.10156 2.44861 0.307244L0.806613 1.94919C0.397796 2.358 0.397796 3.02148 0.806613 3.43099L7.8759 10.5L0.806613 17.569C0.397796 17.9779 0.397796 18.6413 0.806613 19.0508L2.44925 20.6934C2.85813 21.1022 3.52157 21.1022 3.93109 20.6934Z" fill="black"/>
</svg>
