<svg width="163" height="64" viewBox="0 0 163 64" fill="none" xmlns="http://www.w3.org/2000/svg">
<rect width="163" height="64" fill="white"/>
<path fill-rule="evenodd" clip-rule="evenodd" d="M35.9701 31.9994C41.4851 31.9994 45.9549 36.4767 45.9549 42C51.4693 42 55.9408 37.5233 55.9408 31.9994C55.9408 26.4772 51.4693 21.9994 45.9549 21.9994C45.9549 27.5233 41.4851 31.9994 35.9701 31.9994ZM25.9848 42C25.9848 47.5239 30.4558 52 35.9701 52C41.4851 52 45.9549 47.5239 45.9549 42H25.9848ZM25.9848 42C25.9848 36.4767 30.4558 31.9994 35.9701 31.9994C30.4558 31.9994 25.9848 27.5233 25.9848 21.9994C20.4704 21.9994 16 26.4772 16 31.9994C16 37.5233 20.4704 42 25.9848 42ZM25.9848 21.9994C25.9848 16.4767 30.4558 12 35.9701 12C41.4851 12 45.9549 16.4767 45.9549 21.9994H25.9848Z" fill="#008176"/>
<path fill-rule="evenodd" clip-rule="evenodd" d="M107.844 27.8299C107.844 27.0322 107.673 24.8958 104.463 24.8958H102.564V30.6511H104.934C106.574 30.6511 107.844 29.3533 107.844 27.8299ZM108.699 33.056L114.393 41.3358H109.756L102.564 30.7399V41.3358H98.2126V21.6154H105.846C110.34 21.6154 112.195 25.2907 112.195 27.539C112.195 29.7889 111.338 32.0404 108.699 33.056ZM139.557 30.7601L145.787 21.8483H140.972L134.8 30.7443L141.966 41.3358H146.694L139.557 30.7601ZM130.261 41.3358H134.383V21.8055H130.261V41.3358ZM112.966 31.4789C112.966 38.8196 120.496 44.6939 128.431 40.7644V36.5396C122.326 40.8909 117.011 36.5314 117.099 31.6482C117.158 28.4029 119.301 25.3176 123.447 25.0765C125.486 24.9588 126.867 25.4743 128.431 26.9977V22.6042C122.698 19.1475 112.966 22.9521 112.966 31.4789ZM85.1007 21.6154V41.3358H96.2849V37.9919H89.4365V32.9755H96.0016V29.6004H89.4365V25.0765H96.2849V21.6154H85.1007ZM76.8808 21.6154H82.887V41.3358H78.4365V28.0736L72.7426 41.3358L66.7509 28.0572V41.3358H62.5977V21.6154H68.5333L72.8131 31.8224L76.8808 21.6154Z" fill="#333C3F"/>
</svg>
