<svg width="100" height="31" viewBox="0 0 100 31" fill="none" xmlns="http://www.w3.org/2000/svg">
<g id="merck-connect-logo">
<path id="merck-symbol" fill-rule="evenodd" clip-rule="evenodd" d="M15.2444 15.2668C19.4543 15.2668 22.8664 18.6846 22.8664 22.9008C27.0758 22.9008 30.4892 19.4835 30.4892 15.2668C30.4892 11.0514 27.0758 7.63323 22.8664 7.63323C22.8664 11.8499 19.4543 15.2668 15.2444 15.2668ZM7.62198 22.9007C7.62198 27.1175 11.0349 30.5343 15.2444 30.5343C19.4543 30.5343 22.8664 27.1175 22.8664 22.9007H7.62198ZM7.62198 22.9008C7.62198 18.6846 11.0349 15.2668 15.2444 15.2668C11.0349 15.2668 7.62198 11.8499 7.62198 7.63323C3.41253 7.63323 0 11.0514 0 15.2668C0 19.4835 3.41253 22.9008 7.62198 22.9008ZM7.62198 7.63317C7.62198 3.41731 11.0349 0 15.2444 0C19.4543 0 22.8664 3.41731 22.8664 7.63317H7.62198Z" fill="#008176"/>
<path id="merck" fill-rule="evenodd" clip-rule="evenodd" d="M70.1098 12.084C70.1098 11.4751 69.9791 9.8442 67.5284 9.8442H66.0786V14.2376H67.8885C69.1401 14.2376 70.1098 13.2469 70.1098 12.084ZM70.7625 16.0735L75.1086 22.3939H71.569L66.0786 14.3054V22.3939H62.7573V7.34019H68.5844C72.0146 7.34019 73.4307 10.1458 73.4307 11.862C73.4307 13.5795 72.7767 15.2982 70.7625 16.0735ZM94.3179 14.3209L99.0734 7.51789H95.3981L90.6867 14.3087L96.1565 22.3939H99.766L94.3179 14.3209ZM87.2215 22.3939H90.3685V7.48528H87.2215V22.3939ZM74.0197 14.8696C74.0197 20.4732 79.7679 24.9574 85.8251 21.9577V18.7327C81.1642 22.0543 77.1075 18.7265 77.1741 14.9988C77.2193 12.5215 78.8553 10.1663 82.0204 9.98229C83.5767 9.89238 84.631 10.2859 85.8251 11.4489V8.09504C81.4487 5.45631 74.0197 8.36058 74.0197 14.8696ZM52.7482 7.34019V22.3939H61.2857V19.8413H56.058V16.012H61.0695V13.4356H56.058V9.98226H61.2857V7.34019H52.7482ZM46.4735 7.34019H51.0583V22.3939H47.661V12.2701L43.3145 22.3939L38.7408 12.2576V22.3939H35.5703V7.34019H40.1013L43.3684 15.1317L46.4735 7.34019Z" fill="#333C3F"/>
</g>
</svg>
