<svg width="16" height="16" viewBox="0 0 16 16" fill="none" xmlns="http://www.w3.org/2000/svg">
<path d="M8.49998 14C8.77623 14 8.99998 13.7762 8.99998 13.5V8.99998H13.5C13.7762 8.99998 14 8.77623 14 8.49998V7.49999C14 7.22374 13.7762 6.99999 13.5 6.99999H8.99998V2.5C8.99998 2.22375 8.77623 2 8.49998 2H7.49999C7.22374 2 6.99999 2.22375 6.99999 2.5V6.99999H2.5C2.22375 6.99999 2 7.22374 2 7.49999V8.49998C2 8.77623 2.22375 8.99998 2.5 8.99998H6.99999V13.5C6.99999 13.7762 7.22374 14 7.49999 14H8.49998Z" fill="#00857C"/>
</svg>
