<svg width="12" height="13" viewBox="0 0 12 13" fill="none" xmlns="http://www.w3.org/2000/svg">
<path fill-rule="evenodd" clip-rule="evenodd" d="M10.875 11C11.4963 11 12 10.4963 12 9.87498V3.125C12 2.50368 11.4963 2 10.875 2H1.125C0.503676 2 0 2.50368 0 3.125V9.87498C0 10.4963 0.503676 11 1.125 11H10.875ZM5.99999 7.6249C5.54744 7.63221 4.93003 7.11699 4.50811 6.76492C4.4229 6.69382 4.34566 6.62936 4.27937 6.57721C2.48858 5.17495 1.65058 4.50939 1.125 4.08136V3.125H10.875V4.08136C10.3495 4.50932 9.51167 5.17474 7.7206 6.57721C7.65426 6.6294 7.57699 6.69388 7.49175 6.765C7.0698 7.1171 6.45258 7.63213 5.99999 7.6249ZM1.125 5.52496V9.87498H10.875V5.52498C10.3379 5.95276 9.5761 6.55316 8.41528 7.46214C8.33943 7.52185 8.25623 7.59106 8.16637 7.66581C7.63024 8.11177 6.85745 8.75461 5.99999 8.74996C5.1388 8.7546 4.35747 8.10307 3.82899 7.66239C3.74005 7.58823 3.65828 7.52004 3.58449 7.46196C2.42365 6.55295 1.66204 5.95271 1.125 5.52496Z" fill="#00857C"/>
</svg>
