<svg width="159" height="46" viewBox="0 0 159 46" fill="none" xmlns="http://www.w3.org/2000/svg">
<g id="Group 7299">
<path id="Vector" d="M75.4302 11.4998H82.6199V34.4982H77.2922V19.0324L70.4765 34.4982L63.3033 19.013V34.4982H58.332V11.4998H65.4381L70.5612 23.4035L75.4302 11.4998Z" fill="black"/>
<path id="Vector_2" d="M85.2693 11.4998V34.4982H98.6579V30.5992H90.4596V24.7482H98.3189V20.8124H90.4596V15.5359H98.6579V11.4998H85.2693Z" fill="black"/>
<path id="Vector_3" d="M118.626 23.003C118.626 31.564 127.641 38.4146 137.139 33.8325V28.9052C129.831 33.9799 123.469 28.8936 123.573 23.1996C123.644 19.4154 126.21 15.8165 131.173 15.5359C133.614 15.3986 135.267 15.9999 137.139 17.7767V12.6529C130.276 8.62182 118.626 13.0585 118.626 23.003Z" fill="black"/>
<path id="Vector_4" d="M139.33 34.4982H144.265V11.7209H139.33V34.4982Z" fill="black"/>
<path id="Vector_5" d="M150.458 22.1653L157.915 11.7711H152.151L144.763 22.1458L153.341 34.4982H159L150.458 22.1653Z" fill="black"/>
<path id="Vector_6" d="M100.965 11.4994V34.4979H106.174V22.142L114.783 34.4979H120.335L113.519 24.8409C116.678 23.657 117.703 21.0318 117.703 18.4079C117.703 15.7861 115.482 11.4994 110.103 11.4994H100.965ZM106.174 15.3265H108.447C112.291 15.3265 112.496 17.817 112.496 18.747C112.496 20.5239 110.975 22.037 109.012 22.037H106.174V15.3265Z" fill="black"/>
<path id="Vector_7" d="M11.602 11.5002C11.602 5.14841 16.7975 0 23.205 0C29.6146 0 34.808 5.14841 34.808 11.5002H11.602ZM11.602 34.4997C11.602 28.1489 16.7975 22.9995 23.205 22.9995C16.7975 22.9995 11.602 17.8521 11.602 11.5002C5.19444 11.5002 0 16.6487 0 22.9995C0 29.3523 5.19444 34.4997 11.602 34.4997ZM11.602 34.4997C11.602 40.8526 16.7975 46 23.205 46C29.6146 46 34.808 40.8526 34.808 34.4997H11.602ZM23.205 22.9995C29.6146 22.9995 34.808 28.1489 34.808 34.4997C41.2166 34.4997 46.412 29.3523 46.412 22.9995C46.412 16.6487 41.2166 11.5002 34.808 11.5002C34.808 17.8521 29.6146 22.9995 23.205 22.9995Z" fill="black"/>
</g>
</svg>
