<svg width="262" height="80" viewBox="0 0 262 80" fill="none" xmlns="http://www.w3.org/2000/svg">
<path fill-rule="evenodd" clip-rule="evenodd" d="M39.9404 39.9988C50.9703 39.9988 59.91 48.9532 59.91 59.9999C70.9388 59.9999 79.8818 51.0466 79.8818 39.9988C79.8818 28.9543 70.9388 19.9988 59.91 19.9988C59.91 31.0466 50.9703 39.9988 39.9404 39.9988ZM19.9697 60C19.9697 71.0478 28.9117 80 39.9404 80C50.9703 80 59.91 71.0478 59.91 60H19.9697ZM19.9696 59.9999C19.9696 48.9532 28.9115 39.9988 39.9403 39.9988C28.9115 39.9988 19.9696 31.0466 19.9696 19.9988C8.94083 19.9988 0 28.9543 0 39.9988C0 51.0466 8.94083 59.9999 19.9696 59.9999ZM19.9697 19.9989C19.9697 8.95333 28.9117 0 39.9404 0C50.9703 0 59.91 8.95333 59.91 19.9989H19.9697Z" fill="#008176"/>
<path fill-rule="evenodd" clip-rule="evenodd" d="M183.689 31.6597C183.689 30.0645 183.346 25.7915 176.925 25.7915H173.127V37.3022H177.869C181.148 37.3022 183.689 34.7067 183.689 31.6597ZM185.399 42.1122L196.786 58.6716H187.512L173.127 37.4798V58.6716H164.425V19.231H179.692C188.679 19.231 192.39 26.5816 192.39 31.078C192.39 35.5778 190.676 40.0809 185.399 42.1122ZM247.114 37.5203L259.573 19.6965H249.944L237.6 37.4885L251.931 58.6715H261.388L247.114 37.5203ZM228.521 58.6715H236.767V19.6111H228.521V58.6715ZM193.933 38.9578C193.933 53.6393 208.993 65.3877 224.863 57.5288V49.0792C212.651 57.7818 202.023 49.0628 202.197 39.2963C202.316 32.8058 206.602 26.6352 214.895 26.1531C218.972 25.9175 221.734 26.9485 224.863 29.9955V21.2085C213.396 14.295 193.933 21.9042 193.933 38.9578ZM138.201 19.231V58.6716H160.57V51.9838H146.873V41.9511H160.003V35.2009H146.873V26.1532H160.57V19.231H138.201ZM121.762 19.231H133.774V58.6716H124.873V32.1474L113.485 58.6716L101.502 32.1145V58.6716H93.1953V19.231H105.067L113.626 39.6448L121.762 19.231Z" fill="#333C3F"/>
</svg>
