<svg width="16" height="16" viewBox="0 0 16 16" fill="none" xmlns="http://www.w3.org/2000/svg">
<path d="M5.44115 12.8778L6.1424 12.1954C6.31222 12.0301 6.30943 11.7613 6.13622 11.5994L3.25211 8.90404H15.5712C15.808 8.90404 16 8.71722 16 8.48679V7.51321C16 7.28278 15.808 7.09595 15.5712 7.09595H3.25211L6.13615 4.4006C6.30943 4.2387 6.31222 3.96987 6.14236 3.8046L5.44112 3.12219C5.27367 2.95927 5.0022 2.95927 4.83471 3.12219L0.125562 7.70495C-0.0418541 7.86791 -0.0418541 8.13209 0.125562 8.29507L4.83478 12.8778C5.00223 13.0407 5.2737 13.0407 5.44115 12.8778Z" fill="#00857C"/>
</svg>
