<svg width="14" height="16" viewBox="0 0 14 16" fill="none" xmlns="http://www.w3.org/2000/svg">
<path fill-rule="evenodd" clip-rule="evenodd" d="M13.5 16C13.775 16 14 15.775 14 15.5V15C14 14.7563 13.825 14.5532 13.5968 14.5094C13.4656 14.1031 13.4656 12.8969 13.5968 12.4907C13.8281 12.4438 14 12.2438 14 12V0.50006C14 0.225067 13.775 6.10352e-05 13.5 6.10352e-05H2.49999C1.11874 6.10352e-05 0 1.1188 0 2.50006V13.5C0 14.8813 1.11874 16 2.49999 16H13.5ZM1.5 11.2094V2.50006C1.5 1.94693 1.94686 1.50006 2.49999 1.50006H12.5V11H2.49999C2.14373 11 1.80624 11.075 1.5 11.2094ZM11 4.75005C11 4.88756 10.8875 5.00005 10.75 5.00005H4.24999C4.11248 5.00005 3.99999 4.88756 3.99999 4.75005V3.75005C3.99999 3.61254 4.11248 3.50005 4.24999 3.50005H10.75C10.8875 3.50005 11 3.61254 11 3.75005V4.75005ZM10.75 7.50004C10.8875 7.50004 11 7.38756 11 7.25004V6.25005C11 6.11253 10.8875 6.00005 10.75 6.00005H4.24999C4.11248 6.00005 3.99999 6.11253 3.99999 6.25005V7.25004C3.99999 7.38756 4.11248 7.50004 4.24999 7.50004H10.75ZM2.49999 14.5H12.3125C12.2281 13.9594 12.2281 13.0406 12.3125 12.5H2.49999C1.95001 12.5 1.5 12.95 1.5 13.5C1.5 14.0532 1.94686 14.5 2.49999 14.5Z" fill="white"/>
</svg>
