<svg width="10" height="10" viewBox="0 0 10 10" fill="none" xmlns="http://www.w3.org/2000/svg">
<path d="M1.63407 9.85406L5 6.4875L8.36623 9.85376C8.56093 10.0484 8.87685 10.0484 9.07185 9.85376L9.85405 9.07156C10.0487 8.87686 10.0487 8.56095 9.85405 8.36594L6.48748 5.00001L9.85374 1.63378C10.0484 1.43908 10.0484 1.12316 9.85374 0.928152L9.07155 0.145958C8.87685 -0.0487136 8.56093 -0.0487136 8.36592 0.145958L5 3.51253L1.63376 0.146263C1.43906 -0.0484084 1.12314 -0.0484084 0.928137 0.146263L0.146248 0.928152C-0.0484236 1.12282 -0.0484236 1.43877 0.146248 1.63378L3.51251 5.00001L0.146248 8.36624C-0.0484236 8.56095 -0.0484236 8.87686 0.146248 9.07187L0.928442 9.85406C1.12314 10.0487 1.43906 10.0487 1.63407 9.85406Z" fill="#00857C"/>
</svg>
