<svg width="13" height="13" viewBox="0 0 13 13" fill="none" xmlns="http://www.w3.org/2000/svg">
<path d="M12.6873 7.21075L12.7767 0.640337C12.7799 0.40673 12.5931 0.219928 12.3594 0.223058L5.78899 0.312533C5.55538 0.315736 5.36342 0.507691 5.36022 0.741299L5.34691 1.71969C5.34368 1.95663 5.53575 2.14475 5.77271 2.13675L9.71798 2.0033L1.00708 10.7142C0.839647 10.8816 0.836002 11.1495 0.998938 11.3124L1.68737 12.0008C1.8503 12.1638 2.11816 12.1601 2.28559 11.9927L10.9965 3.28181L10.8631 7.22703C10.855 7.46404 11.0432 7.6561 11.2801 7.65285L12.2585 7.63954C12.4921 7.63633 12.6841 7.44438 12.6873 7.21075Z" fill="black"/>
</svg>
