<svg width="24" height="24" viewBox="0 0 24 24" fill="none" xmlns="http://www.w3.org/2000/svg">
<path fill-rule="evenodd" clip-rule="evenodd" d="M20.7547 13.7727V10.4555C20.7547 6.85829 18.5409 3.76816 15.2216 2.51801C14.8889 1.07812 13.5706 0 11.9999 0C10.4291 0 9.11071 1.07812 8.77816 2.51801C5.46009 3.76801 3.24506 6.85799 3.24506 10.4555V14.0626L1.27266 16.0085C1.09755 16.1803 1 16.4123 1 16.6527V19.1104C1 19.6044 1.4165 20.0046 1.93052 20.0046H7.83233C7.83494 22.2116 9.70199 24 12.0047 24C14.3075 24 16.1745 22.2116 16.1772 20.0046H22.0695C22.5835 20.0046 23 19.6044 23 19.1104V16.6527C23 16.4123 22.9024 16.1816 22.7273 16.0085L20.7547 13.7727ZM3.08621 18H20.8168L20.819 16.5622L18.6412 14.4423V10.2944C18.6412 7.17605 16.4636 4.61338 13.3527 3.98994V3.3826C13.3527 2.64529 12.7303 2 11.9526 2C11.1749 2 10.5525 2.64529 10.5525 3.3826V3.98994C7.4418 4.61332 5.26401 7.17605 5.26401 10.2944V14.4423L3.08621 16.5622V18ZM14.091 20H9.91854C9.92374 20.9624 10.86 22 12.0048 22C13.1495 22 14.0857 20.9624 14.091 20Z" fill="white"/>
</svg>
