<svg width="12" height="12" viewBox="0 0 12 12" fill="none" xmlns="http://www.w3.org/2000/svg">
<path fill-rule="evenodd" clip-rule="evenodd" d="M5.99989 0.461914C2.95373 0.461914 0.461426 2.95422 0.461426 6.00038C0.461426 9.04653 2.95373 11.5388 5.99989 11.5388C9.04604 11.5388 11.5384 9.04653 11.5384 6.00038C11.5384 2.95422 9.04604 0.461914 5.99989 0.461914ZM5.99991 10.1542C3.71529 10.1542 1.84606 8.28499 1.84606 6.00037C1.84606 3.71576 3.71529 1.84653 5.99991 1.84653C8.28452 1.84653 10.1538 3.71576 10.1538 6.00037C10.1538 8.28499 8.28452 10.1542 5.99991 10.1542ZM6.78449 6.04658C6.71526 5.97735 6.69218 5.88504 6.69218 5.79274V3.57735C6.69218 3.39274 6.53064 3.2312 6.34603 3.2312H5.65372C5.4691 3.2312 5.30756 3.39274 5.30756 3.57735V6.36966C5.30756 6.46197 5.35372 6.55427 5.39987 6.6235L7.10756 8.3312C7.24603 8.46966 7.45372 8.46966 7.59218 8.3312L8.0768 7.84658C8.21526 7.70812 8.21526 7.50043 8.0768 7.36197L6.78449 6.04658Z" fill="#5450E4"/>
</svg>
