<svg width="32" height="32" viewBox="0 0 32 32" fill="none" xmlns="http://www.w3.org/2000/svg">
<g clip-path="url(#clip0_2158_25276)">
<path fill-rule="evenodd" clip-rule="evenodd" d="M0 16C0 7.16344 7.16344 0 16 0C24.8366 0 32 7.16344 32 16C32 24.8366 24.8366 32 16 32C7.16344 32 0 24.8366 0 16Z" fill="#5450E4"/>
<path fill-rule="evenodd" clip-rule="evenodd" d="M16.0038 16.3829C13.6469 16.3829 11.7364 14.4971 11.7364 12.1709C11.7364 9.84468 13.6469 7.95892 16.0038 7.95892C18.3606 7.95892 20.2711 9.84468 20.2711 12.1709C20.2711 14.4971 18.3606 16.3829 16.0038 16.3829ZM16.0038 14.8512C17.5035 14.8512 18.7194 13.6512 18.7194 12.1709C18.7194 10.6906 17.5035 9.49055 16.0038 9.49055C14.504 9.49055 13.2881 10.6906 13.2881 12.1709C13.2881 13.6512 14.504 14.8512 16.0038 14.8512ZM8.63281 24.041H10.1846V20.9777C10.1846 20.1318 10.8793 19.4461 11.7364 19.4461L20.2711 19.4461C21.1282 19.4461 21.8229 20.1318 21.8229 20.9777V24.041H23.3747V20.9777C23.3747 19.2859 21.9852 17.9145 20.2711 17.9145L11.7364 17.9145C10.0223 17.9145 8.63281 19.2859 8.63281 20.9777V24.041Z" fill="white"/>
</g>
<defs>
<clipPath id="clip0_2158_25276">
<rect width="32" height="32" fill="white"/>
</clipPath>
</defs>
</svg>
