<svg width="24" height="25" viewBox="0 0 24 25" fill="none" xmlns="http://www.w3.org/2000/svg">
<path fill-rule="evenodd" clip-rule="evenodd" d="M20.2094 14.5387L23.1009 17.4225C23.689 18.0085 24 18.701 24 19.4274C24.0024 20.1513 23.6962 20.8511 23.1155 21.454C22.9211 21.655 22.7024 21.8729 22.4254 22.1368L22.3574 22.2022C22.0609 22.4855 21.7839 22.7567 21.541 23.0448C21.5271 23.0637 21.5133 23.079 21.5012 23.0924C21.4963 23.0978 21.4917 23.1029 21.4875 23.1077C20.62 24.0448 19.5558 24.5 18.2364 24.5C18.1197 24.5 18.0104 24.4952 17.9035 24.4903H17.8816C16.0422 24.3717 14.3802 23.684 13.1385 23.0981L13.1361 23.0956C9.92624 21.5436 7.11733 19.3523 4.79196 16.5823C2.87237 14.2845 1.57726 12.1295 0.717086 9.80024C0.14607 8.2724 -0.0750472 6.99395 0.0221471 5.78329C0.107192 4.76634 0.520268 3.88499 1.25165 3.16344L3.0619 1.35956C3.65235 0.797821 4.34486 0.5 5.0641 0.5C5.7882 0.5 6.47342 0.795399 7.04686 1.35472C7.38461 1.66707 7.72236 2.00847 8.03581 2.33051L8.0431 2.33777C8.20347 2.50484 8.35898 2.66223 8.52179 2.82446L9.95783 4.25545C10.5604 4.85109 10.8787 5.55085 10.8787 6.27724C10.8787 6.99879 10.5604 7.69855 9.95783 8.29903L9.95764 8.29922C9.81191 8.44444 9.66133 8.59449 9.51803 8.73971C9.17785 9.08838 8.81823 9.45157 8.43674 9.80751C8.73318 10.4225 9.1414 11.0472 9.73185 11.7906C11.0707 13.4249 12.463 14.6913 13.9914 15.6574C14.1372 15.7494 14.3073 15.8366 14.4847 15.9237L14.4847 15.9238C14.5528 15.9577 14.6256 15.994 14.7009 16.0327L16.2074 14.5315C16.7954 13.9479 17.4904 13.638 18.2169 13.638C18.9483 13.638 19.6384 13.9479 20.2094 14.5387ZM2.67312 4.57506C2.28191 4.96489 2.07538 5.40315 2.02678 5.95278C1.95388 6.8632 2.14098 7.87046 2.60508 9.11501C3.38993 11.224 4.5757 13.1925 6.3422 15.3111C8.48291 17.8632 11.0658 19.8777 14.0157 21.3015C15.0873 21.8099 16.5087 22.4031 18.0177 22.5C18.0954 22.5048 18.1732 22.5097 18.2412 22.5097C18.9799 22.5097 19.5217 22.2845 19.998 21.776C20.3114 21.4031 20.6468 21.0787 20.9724 20.7639L21.0307 20.7082C21.2348 20.5121 21.4511 20.3039 21.6552 20.086L21.66 20.0811C22.0901 19.6356 22.0974 19.2676 21.6795 18.8511L18.7685 15.9552L18.7636 15.9504C18.6591 15.839 18.4526 15.655 18.2145 15.655C17.9812 15.655 17.7674 15.8196 17.6265 15.96L15.8235 17.7567C15.5271 18.0545 15.1869 18.2046 14.8127 18.2046C14.5916 18.2046 14.3705 18.1489 14.1566 18.04C14.1493 18.0363 14.142 18.0321 14.1348 18.0278C14.1275 18.0236 14.1202 18.0194 14.1129 18.0157L14.0691 17.9915C13.9234 17.8995 13.7533 17.8123 13.5759 17.7252L13.5735 17.7228C13.5479 17.7082 13.5209 17.695 13.4947 17.6821C13.486 17.6779 13.4774 17.6737 13.469 17.6695C13.2819 17.5775 13.0899 17.4806 12.9004 17.3571C11.1776 16.2651 9.62737 14.8584 8.15731 13.0521L8.15488 13.0496C7.33845 12.0254 6.79902 11.1489 6.40538 10.2094L6.39566 10.1852C6.39404 10.1804 6.39242 10.1758 6.3908 10.1712C6.38756 10.1621 6.38432 10.1529 6.38108 10.1416L6.38066 10.1404C6.30977 9.92602 6.0956 9.27843 6.72369 8.65254L6.765 8.61138C7.1805 8.24092 7.56685 7.85351 7.97264 7.44431L8.07469 7.34262L8.07473 7.34257C8.15005 7.26753 8.22536 7.19248 8.29824 7.11743C8.37355 7.03997 8.44886 6.96492 8.52417 6.88987L8.52421 6.88983C8.67487 6.73971 8.85468 6.51211 8.85468 6.2845C8.85468 6.0569 8.67487 5.8293 8.52421 5.67918L7.08331 4.24334C7.0007 4.1586 6.91808 4.07385 6.83546 3.99153C6.79325 3.94825 6.75103 3.90558 6.70911 3.8632C6.66658 3.82022 6.62436 3.77754 6.58276 3.73487L6.45641 3.60654L6.4478 3.59781C6.17397 3.32015 5.91416 3.05671 5.64484 2.80751L5.63026 2.79298C5.49904 2.65981 5.29251 2.5 5.05924 2.5C4.86728 2.5 4.66074 2.60169 4.46392 2.79056L2.67312 4.57506Z" fill="black"/>
</svg>
