<svg width="24" height="24" viewBox="0 0 24 24" fill="none" xmlns="http://www.w3.org/2000/svg">
<path fill-rule="evenodd" clip-rule="evenodd" d="M20.2094 14.0387L23.1009 16.9225C23.6889 17.5085 24 18.201 24 18.9274C24.0024 19.6513 23.6962 20.3511 23.1155 20.954C22.9211 21.155 22.7024 21.3729 22.4254 21.6368L22.3574 21.7022C22.0609 21.9855 21.7839 22.2567 21.541 22.5448C21.5271 22.5637 21.5133 22.579 21.5012 22.5924C21.4963 22.5978 21.4917 22.6029 21.4875 22.6077C20.62 23.5448 19.5558 24 18.2364 24C18.1197 24 18.0104 23.9952 17.9035 23.9903H17.8816C16.0422 23.8717 14.3802 23.184 13.1385 22.5981L13.1361 22.5956C9.92624 21.0436 7.11733 18.8523 4.79195 16.0823C2.87237 13.7845 1.57726 11.6295 0.717086 9.30024C0.14607 7.7724 -0.0750472 6.49395 0.0221471 5.28329C0.107192 4.26634 0.520268 3.38499 1.25165 2.66344L3.0619 0.859564C3.65235 0.297821 4.34486 0 5.0641 0C5.7882 0 6.47342 0.2954 7.04686 0.854722C7.38461 1.16707 7.72236 1.50847 8.03581 1.83051L8.0431 1.83777C8.20347 2.00484 8.35898 2.16223 8.52178 2.32446L9.95783 3.75545C10.5604 4.35109 10.8787 5.05085 10.8787 5.77724C10.8787 6.49879 10.5604 7.19855 9.95783 7.79903C9.81204 7.94431 9.66138 8.09444 9.51803 8.23971C9.17785 8.58838 8.81823 8.95157 8.43674 9.30751C8.73318 9.92252 9.1414 10.5472 9.73185 11.2906C11.0707 12.9249 12.463 14.1913 13.9914 15.1574C14.1372 15.2494 14.3073 15.3366 14.4847 15.4237C14.5527 15.4576 14.6256 15.494 14.7009 15.5327L16.2074 14.0315C16.7954 13.4479 17.4904 13.138 18.2169 13.138C18.9483 13.138 19.6384 13.4479 20.2094 14.0387ZM2.67312 4.07506C2.28191 4.46489 2.07538 4.90315 2.02678 5.45278C1.95388 6.3632 2.14098 7.37046 2.60508 8.61501C3.38993 10.724 4.5757 12.6925 6.3422 14.8111C8.48291 17.3632 11.0658 19.3777 14.0157 20.8015C15.0873 21.3099 16.5087 21.9031 18.0177 22C18.0954 22.0048 18.1732 22.0097 18.2412 22.0097C18.9799 22.0097 19.5217 21.7845 19.998 21.276C20.3114 20.9031 20.6468 20.5787 20.9724 20.2639L21.0307 20.2082C21.2348 20.0121 21.451 19.8039 21.6552 19.586L21.66 19.5811C22.0901 19.1356 22.0974 18.7676 21.6795 18.3511L18.7636 15.4504C18.6591 15.339 18.4526 15.155 18.2145 15.155C17.9812 15.155 17.7674 15.3196 17.6265 15.46L15.8235 17.2567C15.5271 17.5545 15.1869 17.7046 14.8127 17.7046C14.5916 17.7046 14.3704 17.6489 14.1566 17.54C14.1493 17.5363 14.142 17.5321 14.1347 17.5278C14.1275 17.5236 14.1202 17.5194 14.1129 17.5157L14.0691 17.4915C13.9234 17.3995 13.7533 17.3123 13.5759 17.2252L13.5735 17.2228C13.5479 17.2082 13.5209 17.195 13.4947 17.1821C13.486 17.1779 13.4774 17.1737 13.469 17.1695C13.2819 17.0775 13.0899 16.9806 12.9004 16.8571C11.1776 15.7651 9.62737 14.3584 8.15731 12.5521L8.15488 12.5496C7.33844 11.5254 6.79902 10.6489 6.40538 9.70944L6.39566 9.68523C6.39404 9.68039 6.39242 9.67582 6.3908 9.67125C6.38756 9.6621 6.38432 9.65295 6.38108 9.64165L6.38066 9.64039C6.30977 9.42602 6.09559 8.77843 6.72369 8.15254L6.765 8.11138C7.1805 7.74092 7.56685 7.35351 7.97264 6.94431L8.07469 6.84262C8.15002 6.76755 8.22534 6.69249 8.29824 6.61743C8.37356 6.53995 8.44889 6.46489 8.52421 6.38983C8.67487 6.23971 8.85468 6.01211 8.85468 5.7845C8.85468 5.5569 8.67487 5.3293 8.52421 5.17918L7.08331 3.74334C7.00069 3.6586 6.91808 3.57385 6.83546 3.49153C6.79324 3.44824 6.75101 3.40556 6.70908 3.36318C6.66656 3.3202 6.62435 3.27753 6.58276 3.23487L6.44784 3.09785C6.17399 2.82017 5.91417 2.55672 5.64483 2.30751L5.63026 2.29298C5.49904 2.15981 5.29251 2 5.05924 2C4.86728 2 4.66074 2.1017 4.46392 2.29056L2.67312 4.07506Z" fill="#00857C"/>
</svg>
