<svg width="12" height="12" viewBox="0 0 12 12" fill="none" xmlns="http://www.w3.org/2000/svg">
<path d="M6.49998 12C6.77623 12 6.99998 11.7762 6.99998 11.5V6.99998H11.5C11.7762 6.99998 12 6.77623 12 6.49998V5.49999C12 5.22374 11.7762 4.99999 11.5 4.99999H6.99998V0.499999C6.99998 0.223754 6.77623 0 6.49998 0H5.49999C5.22374 0 4.99999 0.223754 4.99999 0.499999V4.99999H0.499999C0.223754 4.99999 0 5.22374 0 5.49999V6.49998C0 6.77623 0.223754 6.99998 0.499999 6.99998H4.99999V11.5C4.99999 11.7762 5.22374 12 5.49999 12H6.49998Z" fill="#00857C"/>
</svg>
