<svg width="12" height="17" viewBox="0 0 12 17" fill="none" xmlns="http://www.w3.org/2000/svg">
<path id="Icon" fill-rule="evenodd" clip-rule="evenodd" d="M10.5 16.5C11.3281 16.5 12 15.8281 12 15V4.62188C12 4.225 11.8406 3.84063 11.5594 3.56249L8.93748 0.940612C8.65623 0.659362 8.27497 0.5 7.87809 0.5H1.5C0.671873 0.5 0 1.17187 0 2V15C0 15.8281 0.671873 16.5 1.5 16.5H10.5ZM10.5 15H1.5V2H6.49998V5.24999C6.49998 5.66561 6.83436 5.99999 7.24998 5.99999H10.5V15ZM7.99998 4.49999H10.3781L7.99998 2.12188V4.49999ZM8.62498 9.49998C8.83122 9.49998 8.99998 9.33122 8.99998 9.12498V8.24998C8.99998 8.04374 8.83122 7.87498 8.62498 7.87498H3.37499C3.16875 7.87498 2.99999 8.04374 2.99999 8.24998V9.12498C2.99999 9.33122 3.16875 9.49998 3.37499 9.49998H8.62498ZM8.99998 11.75C8.99998 11.9562 8.83122 12.125 8.62498 12.125H3.37499C3.16875 12.125 2.99999 11.9562 2.99999 11.75V10.875C2.99999 10.6687 3.16875 10.5 3.37499 10.5H8.62498C8.83122 10.5 8.99998 10.6687 8.99998 10.875V11.75Z" fill="#555555"/>
</svg>
