<svg width="17" height="10" viewBox="0 0 17 10" fill="none" xmlns="http://www.w3.org/2000/svg">
<path d="M11.6652 9.87781L16.3744 5.29504C16.5419 5.13209 16.5419 4.86791 16.3744 4.70492L11.6652 0.122191C11.4977 -0.0407302 11.2263 -0.0407302 11.0588 0.122191L10.3576 0.804604C10.1877 0.969867 10.1905 1.2387 10.3637 1.4006L13.2478 4.09596H0.928763C0.69198 4.09596 0.5 4.28278 0.5 4.51321V5.48679C0.5 5.71722 0.69198 5.90404 0.928763 5.90404H13.2478L10.3638 8.5994C10.1905 8.7613 10.1877 9.03013 10.3576 9.1954L11.0588 9.87781C11.2263 10.0407 11.4978 10.0407 11.6652 9.87781Z" fill="white"/>
</svg>
