<svg width="16" height="17" viewBox="0 0 16 17" fill="none" xmlns="http://www.w3.org/2000/svg">
<path d="M11.1652 13.3778L15.8744 8.79504C16.0419 8.63209 16.0419 8.36791 15.8744 8.20492L11.1652 3.62219C10.9977 3.45927 10.7263 3.45927 10.5588 3.62219L9.85756 4.3046C9.68774 4.46987 9.69053 4.7387 9.86374 4.9006L12.7478 7.59596H0.428763C0.19198 7.59596 0 7.78278 0 8.01321V8.98679C0 9.21722 0.19198 9.40404 0.428763 9.40404H12.7478L9.86381 12.0994C9.69053 12.2613 9.68774 12.5301 9.8576 12.6954L10.5588 13.3778C10.7263 13.5407 10.9978 13.5407 11.1652 13.3778Z" fill="#00857C"/>
</svg>
