<svg width="32" height="32" viewBox="0 0 32 32" fill="none" xmlns="http://www.w3.org/2000/svg">
<g id="search" clip-path="url(#clip0_31194_33926)">
<path id="Icon" d="M30.3687 31.7812L31.7812 30.3687C32.0749 30.0749 32.0749 29.5999 31.7812 29.3062L24.1937 21.7187C24.0499 21.575 23.8624 21.4999 23.6624 21.4999H22.8375C24.8062 19.2187 25.9999 16.25 25.9999 13C25.9999 5.81871 20.1812 0 13 0C5.81871 0 0 5.81871 0 13C0 20.1812 5.81871 25.9999 13 25.9999C16.25 25.9999 19.2187 24.8062 21.4999 22.8375V23.6624C21.4999 23.8624 21.5812 24.0499 21.7187 24.1937L29.3062 31.7812C29.5999 32.0749 30.0749 32.0749 30.3687 31.7812ZM13 22.9999C7.47496 22.9999 2.99999 18.525 2.99999 13C2.99999 7.47496 7.47496 2.99999 13 2.99999C18.525 2.99999 22.9999 7.47496 22.9999 13C22.9999 18.525 18.525 22.9999 13 22.9999Z" fill="white"/>
</g>
<defs>
<clipPath id="clip0_31194_33926">
<rect width="32" height="32" fill="white"/>
</clipPath>
</defs>
</svg>
