<svg width="52" height="51" viewBox="0 0 52 51" fill="none" xmlns="http://www.w3.org/2000/svg">
<path fill-rule="evenodd" clip-rule="evenodd" d="M26.0002 1.7002C39.1273 1.7002 49.8002 12.3731 49.8002 25.5002C49.8002 38.6273 39.1273 49.3002 26.0002 49.3002C12.8731 49.3002 2.2002 38.6273 2.2002 25.5002C2.2002 12.3731 12.8731 1.7002 26.0002 1.7002ZM26.0002 4.90693C14.6441 4.90693 5.40693 14.1441 5.40693 25.5002C5.40693 36.8562 14.6441 46.0935 26.0002 46.0935C37.3562 46.0935 46.5935 36.8562 46.5935 25.5002C46.5935 14.1441 37.3562 4.90693 26.0002 4.90693ZM15.247 24.284C15.9569 23.5364 17.1384 23.5058 17.886 24.2157L22.4443 28.5438L34.1088 17.1665C34.8468 16.4467 36.0286 16.4614 36.7484 17.1994L37.4653 17.9343C38.1851 18.6723 38.1704 19.8542 37.4324 20.574L23.7747 33.8956C23.0566 34.5959 21.9134 34.6036 21.186 33.9129L14.6084 27.6675C13.8608 26.9576 13.8302 25.7761 14.5401 25.0285L15.247 24.284Z" fill="black"/>
<mask id="mask0_161_33566" style="mask-type:luminance" maskUnits="userSpaceOnUse" x="2" y="1" width="48" height="49">
<path fill-rule="evenodd" clip-rule="evenodd" d="M26.0002 1.7002C39.1273 1.7002 49.8002 12.3731 49.8002 25.5002C49.8002 38.6273 39.1273 49.3002 26.0002 49.3002C12.8731 49.3002 2.2002 38.6273 2.2002 25.5002C2.2002 12.3731 12.8731 1.7002 26.0002 1.7002ZM26.0002 4.90693C14.6441 4.90693 5.40693 14.1441 5.40693 25.5002C5.40693 36.8562 14.6441 46.0935 26.0002 46.0935C37.3562 46.0935 46.5935 36.8562 46.5935 25.5002C46.5935 14.1441 37.3562 4.90693 26.0002 4.90693ZM15.247 24.284C15.9569 23.5364 17.1384 23.5058 17.886 24.2157L22.4443 28.5438L34.1088 17.1665C34.8468 16.4467 36.0286 16.4614 36.7484 17.1994L37.4653 17.9343C38.1851 18.6723 38.1704 19.8542 37.4324 20.574L23.7747 33.8956C23.0566 34.5959 21.9134 34.6036 21.186 33.9129L14.6084 27.6675C13.8608 26.9576 13.8302 25.7761 14.5401 25.0285L15.247 24.284Z" fill="white"/>
</mask>
<g mask="url(#mask0_161_33566)">
<rect x="0.5" width="51" height="51" fill="#00877C"/>
</g>
</svg>
