<svg width="32" height="32" viewBox="0 0 32 32" fill="none" xmlns="http://www.w3.org/2000/svg">
<g id="virus-shield">
<path id="Icon" d="M15 7V7.75751C15 9.53938 12.8456 10.4319 11.5856 9.17188L11.05 8.63563C10.6594 8.24506 10.0262 8.24506 9.63563 8.63563C9.24506 9.0262 9.24506 9.65944 9.63563 10.05L10.1719 10.5856C11.4319 11.8456 10.5394 14 8.75751 14H8.00001C7.44772 14 7.00001 14.4477 7.00001 15C7.00001 15.5523 7.44772 16 8.00001 16H8.75751C10.5394 16 11.4319 18.1544 10.1719 19.4144L9.63563 19.95C9.38298 20.2027 9.28431 20.5709 9.37678 20.9161C9.46926 21.2612 9.73884 21.5308 10.084 21.6232C10.4291 21.7157 10.7974 21.617 11.05 21.3644L11.5856 20.8281C12.8456 19.5681 15 20.4606 15 22.2425V23C15 23.5523 15.4477 24 16 24C16.5523 24 17 23.5523 17 23V22.2425C17 20.4606 19.1544 19.5681 20.4144 20.8281L20.95 21.3644C21.3406 21.755 21.9738 21.755 22.3644 21.3644C22.755 20.9738 22.755 20.3406 22.3644 19.95L21.8281 19.4144C20.5681 18.1544 21.4606 16 23.2425 16H24C24.5523 16 25 15.5523 25 15C25 14.4477 24.5523 14 24 14H23.2425C21.4606 14 20.5681 11.8456 21.8281 10.5856L22.3644 10.05C22.755 9.65944 22.755 9.0262 22.3644 8.63563C21.9738 8.24506 21.3406 8.24506 20.95 8.63563L20.4144 9.17188C19.1544 10.4319 17 9.53938 17 7.75751V7C17 6.44772 16.5523 6 16 6C15.4477 6 15 6.44772 15 7ZM14 14C13.4477 14 13 13.5523 13 13C13 12.4477 13.4477 12 14 12C14.5523 12 15 12.4477 15 13C15 13.5523 14.5523 14 14 14ZM18 16C18.5523 16 19 16.4477 19 17C19 17.5523 18.5523 18 18 18C17.4477 18 17 17.5523 17 17C17 16.4477 17.4477 16 18 16ZM29.1563 5.23L17.1563 0.23C16.7872 0.0904351 16.3975 0.0127248 16.0031 0C15.6086 0.0124562 15.2187 0.0899562 14.8494 0.229375L2.84938 5.22938C1.72892 5.69343 0.998798 6.78725 1 8C1 20.4063 8.15626 28.9825 14.8438 31.77C15.5822 32.0767 16.4122 32.0767 17.1506 31.77C22.5056 29.5381 31 21.8313 31 8C31.0007 6.78921 30.2735 5.69667 29.1563 5.23ZM16 29C10.2194 26.5925 4.00001 18.9925 4.00375 8.00001L15.93 3.02625C15.9506 3.02 15.9869 3.0125 16.02 3.00625L28 8.00001C28 20.655 20.1481 27.2706 16 29Z" fill="white"/>
</g>
</svg>
