<svg width="24" height="24" viewBox="0 0 24 24" fill="none" xmlns="http://www.w3.org/2000/svg">
<path d="M16.7479 19.3167L23.8117 12.4426C24.0628 12.1981 24.0628 11.8019 23.8117 11.5574L16.7478 4.68329C16.4966 4.4389 16.0894 4.4389 15.8382 4.68329L14.7863 5.70691C14.5316 5.9548 14.5358 6.35805 14.7956 6.6009L19.1218 10.6439H0.643144C0.28797 10.6439 0 10.9242 0 11.2698V12.7302C0 13.0758 0.28797 13.3561 0.643144 13.3561H19.1218L14.7957 17.3991C14.5358 17.642 14.5316 18.0452 14.7864 18.2931L15.8383 19.3167C16.0894 19.5611 16.4966 19.5611 16.7479 19.3167Z" fill="white"/>
</svg>
