<?xml version="1.0" standalone="no"?>
<!DOCTYPE svg PUBLIC "-//W3C//DTD SVG 20010904//EN"
 "http://www.w3.org/TR/2001/REC-SVG-20010904/DTD/svg10.dtd">
<svg version="1.0" xmlns="http://www.w3.org/2000/svg"
 width="75.000000pt" height="28.000000pt" viewBox="0 0 75.000000 28.000000"
 preserveAspectRatio="xMidYMid meet">

<g transform="translate(0.000000,28.000000) scale(0.100000,-0.100000)"
fill="#000000" stroke="none">
<path d="M151 256 c-9 -10 -9 -16 -1 -21 17 -10 37 12 24 25 -8 8 -15 6 -23
-4z"/>
<path d="M497 243 c-4 -3 -7 -35 -7 -70 l0 -63 80 0 80 0 0 70 0 70 -73 0
c-41 0 -77 -3 -80 -7z m133 -63 l0 -51 -57 3 -56 3 1 43 c0 23 1 44 1 47 1 3
26 5 56 5 l55 0 0 -50z"/>
<path d="M152 163 c3 -41 6 -48 26 -51 25 -4 28 -12 10 -30 -20 -20 -66 -15
-78 9 -13 23 -6 69 10 69 6 0 10 8 10 17 0 14 -4 12 -25 -7 -66 -62 17 -166
88 -110 15 12 27 28 27 36 0 21 18 17 25 -6 6 -20 45 -29 45 -10 0 6 -5 10
-11 10 -6 0 -20 12 -31 26 -15 19 -27 24 -44 20 -12 -3 -26 -2 -29 4 -4 6 5
10 20 10 17 0 25 5 22 13 -2 6 -12 12 -23 12 -10 0 -20 8 -22 18 -7 38 -23 14
-20 -30z"/>
<path d="M490 70 l0 -30 80 0 80 0 0 30 0 30 -80 0 -80 0 0 -30z m50 14 c0 -7
-27 -34 -34 -34 -4 0 -1 9 6 20 12 19 28 27 28 14z m14 -18 c-3 -9 -10 -16
-15 -16 -5 0 -4 9 3 20 14 22 21 20 12 -4z m76 14 c0 -5 -4 -10 -10 -10 -5 0
-10 5 -10 10 0 6 5 10 10 10 6 0 10 -4 10 -10z"/>
</g>
</svg>
